%TF.GenerationSoftware,Altium Limited,Altium Designer,26.5.1 (12)*%
G04 Layer_Physical_Order=4*
G04 Layer_Color=16711680*
G04 Board_Origin=38070866|8218504*
%FSLAX45Y45*%
%MOMM*%
%TF.SameCoordinates,840CF62D-7C74-4BC5-9218-24160F8078A9*%
%TF.FilePolarity,Positive*%
%TF.FileFunction,Copper,L4,Bot,Signal*%
%TF.Part,Single*%
G01*
G75*
%TA.AperFunction,SMDPad,CuDef*%
%ADD23R,0.90000X0.70000*%
%ADD35R,1.22000X0.91000*%
%ADD36R,0.70000X0.90000*%
%TA.AperFunction,Conductor*%
%ADD37C,0.20000*%
%ADD38C,0.40000*%
%TA.AperFunction,ViaPad*%
%ADD40C,8.00000*%
%TA.AperFunction,TestPad*%
G04:AMPARAMS|DCode=41|XSize=2mm|YSize=2mm|CornerRadius=0.5mm|HoleSize=0mm|Usage=FLASHONLY|Rotation=90.000|XOffset=0mm|YOffset=0mm|HoleType=Round|Shape=RoundedRectangle|*
%AMROUNDEDRECTD41*
21,1,2.00000,1.00000,0,0,90.0*
21,1,1.00000,2.00000,0,0,90.0*
1,1,1.00000,0.50000,0.50000*
1,1,1.00000,0.50000,-0.50000*
1,1,1.00000,-0.50000,-0.50000*
1,1,1.00000,-0.50000,0.50000*
%
%ADD41ROUNDEDRECTD41*%
%TA.AperFunction,ComponentPad*%
%ADD42R,1.50000X1.50000*%
%ADD43C,1.50000*%
%ADD44C,1.65000*%
%TA.AperFunction,ViaPad*%
%ADD45C,0.70000*%
%TA.AperFunction,SMDPad,CuDef*%
%ADD53R,1.05000X1.70000*%
%ADD54R,0.80000X0.80000*%
%ADD55R,0.91000X1.22000*%
%ADD56R,1.70000X1.05000*%
G04:AMPARAMS|DCode=57|XSize=0.91mm|YSize=1.22mm|CornerRadius=0mm|HoleSize=0mm|Usage=FLASHONLY|Rotation=45.000|XOffset=0mm|YOffset=0mm|HoleType=Round|Shape=Rectangle|*
%AMROTATEDRECTD57*
4,1,4,0.10960,-0.75307,-0.75307,0.10960,-0.10960,0.75307,0.75307,-0.10960,0.10960,-0.75307,0.0*
%
%ADD57ROTATEDRECTD57*%

G36*
X26664001Y7468000D02*
X26664001Y7468000D01*
X26659598Y7449823D01*
X26647809Y7443017D01*
X26631982Y7427191D01*
X26620792Y7407809D01*
X26614999Y7386190D01*
Y7363810D01*
X26620792Y7342191D01*
X26631982Y7322809D01*
X26647809Y7306983D01*
X26664001Y7297635D01*
Y7267985D01*
X26645523Y7260331D01*
X26619431Y7286424D01*
X26604807Y7297645D01*
X26587778Y7304698D01*
X26569504Y7307104D01*
X26485999D01*
Y7332000D01*
X26294678D01*
X26281836Y7352000D01*
X26285001Y7363810D01*
Y7386190D01*
X26279208Y7407809D01*
X26268018Y7427191D01*
X26252191Y7443017D01*
X26232809Y7454207D01*
X26213843Y7459289D01*
X26200238Y7472896D01*
X26201401Y7481004D01*
X26207642Y7492896D01*
X26264001D01*
Y7468000D01*
X26485999D01*
Y7492896D01*
X26664001D01*
Y7468000D01*
D02*
G37*
G36*
X27616339Y7358812D02*
X27620792Y7342191D01*
X27629504Y7327104D01*
X27622098Y7307104D01*
X27277902D01*
X27270496Y7327104D01*
X27279208Y7342191D01*
X27285001Y7363810D01*
Y7386190D01*
X27279208Y7407809D01*
X27270605Y7422710D01*
Y7525000D01*
X27268198Y7543274D01*
X27261145Y7560302D01*
X27249924Y7574925D01*
X27018930Y7805918D01*
X27026584Y7824396D01*
X27150754D01*
X27616339Y7358812D01*
D02*
G37*
G36*
X16529172Y7929021D02*
X15818478Y7218327D01*
X15800000Y7225980D01*
Y7949021D01*
X16520888D01*
X16529172Y7929021D01*
D02*
G37*
G36*
X1221709Y7484396D02*
X1220793Y7482809D01*
X1215000Y7461191D01*
Y7438810D01*
X1220793Y7417191D01*
X1231983Y7397809D01*
X1247809Y7381983D01*
X1267191Y7370793D01*
X1283812Y7366339D01*
X1475076Y7175076D01*
X1487419Y7165604D01*
X1487023Y7157659D01*
X1481818Y7145604D01*
X1179245D01*
X883661Y7441188D01*
X879207Y7457809D01*
X868017Y7477191D01*
X860812Y7484396D01*
X869096Y7504396D01*
X1210162D01*
X1221709Y7484396D01*
D02*
G37*
G36*
X19553348Y7609396D02*
X19545793Y7596309D01*
X19539999Y7574691D01*
Y7552310D01*
X19545793Y7530692D01*
X19554504Y7515604D01*
X19547098Y7495604D01*
X16825000D01*
X16806726Y7493198D01*
X16789697Y7486145D01*
X16775075Y7474924D01*
X16594875Y7294724D01*
X16583655Y7280102D01*
X16576602Y7263073D01*
X16574196Y7244800D01*
Y7060000D01*
X16542300D01*
Y6790000D01*
X16574196D01*
Y6660000D01*
X16542300D01*
Y6390000D01*
X16747301D01*
Y6660000D01*
X16715404D01*
Y6790000D01*
X16747301D01*
Y7060000D01*
X16715404D01*
Y7215555D01*
X16854245Y7354396D01*
X25646472D01*
X25660001Y7340000D01*
X25660001Y7334396D01*
X25659998Y7310000D01*
X25639999Y7310000D01*
X25610001D01*
Y7250000D01*
Y7190000D01*
X25659998Y7190000D01*
X25660001Y7170000D01*
Y7160000D01*
X25839395D01*
Y7139245D01*
X25821472Y7121320D01*
X25807809Y7129207D01*
X25786191Y7135000D01*
X25763809D01*
X25742191Y7129207D01*
X25722809Y7118017D01*
X25706982Y7102191D01*
X25695792Y7082809D01*
X25689999Y7061191D01*
Y7038810D01*
X25695792Y7017191D01*
X25696710Y7015604D01*
X25685162Y6995604D01*
X25332700D01*
Y7060000D01*
X25127699D01*
Y6790000D01*
X25332700D01*
Y6854396D01*
X25917300D01*
Y6790000D01*
X26122299D01*
Y7060000D01*
X25985077D01*
X25980203Y7065141D01*
X25973340Y7080000D01*
X25978198Y7091726D01*
X25980603Y7110000D01*
Y7142300D01*
X26110001D01*
Y7320885D01*
X26129999Y7326244D01*
X26131982Y7322809D01*
X26147809Y7306983D01*
X26167191Y7295793D01*
X26188809Y7290000D01*
X26211191D01*
X26232809Y7295793D01*
X26244000Y7302254D01*
X26264001Y7292020D01*
Y7141000D01*
X26485999D01*
Y7165896D01*
X26540259D01*
X26635080Y7071076D01*
X26649704Y7059855D01*
X26666733Y7052802D01*
X26685004Y7050396D01*
X27870999D01*
X27889273Y7052802D01*
X27906302Y7059855D01*
X27920923Y7071076D01*
X28406244Y7556396D01*
X28839001D01*
Y7416000D01*
X29060999D01*
Y7440896D01*
X29089001D01*
Y7416000D01*
X29103787D01*
X29117630Y7396000D01*
X29116339Y7391188D01*
X28720755Y6995604D01*
X26432700D01*
Y7060000D01*
X26227701D01*
Y6790000D01*
X26259595D01*
Y6660000D01*
X26227701D01*
Y6395000D01*
X26207300D01*
Y6370604D01*
X26123758D01*
X26122299Y6390001D01*
X26122299D01*
Y6660000D01*
X25917300D01*
Y6545604D01*
X25332700D01*
Y6660000D01*
X25127699D01*
Y6420604D01*
X25022301D01*
Y6660000D01*
X24990404D01*
Y6790000D01*
X25022301D01*
Y7060000D01*
X24817300D01*
Y6790000D01*
X24849196D01*
Y6660000D01*
X24817300D01*
Y6545604D01*
X23972710D01*
X23957809Y6554207D01*
X23936189Y6560000D01*
X23913809D01*
X23892191Y6554207D01*
X23872809Y6543017D01*
X23856982Y6527191D01*
X23845793Y6507809D01*
X23839999Y6486190D01*
Y6463810D01*
X23845793Y6442191D01*
X23846709Y6440604D01*
X23835162Y6420604D01*
X23200000D01*
X23181728Y6418198D01*
X23164697Y6411145D01*
X23150076Y6399924D01*
X21693263Y4943113D01*
X21669673Y4947806D01*
X21667387Y4953323D01*
X21660686Y4960025D01*
Y5409439D01*
X21675000D01*
X21691969Y5411673D01*
X21707780Y5418223D01*
X21721358Y5428642D01*
X21731776Y5442220D01*
X21738327Y5458032D01*
X21740561Y5475000D01*
Y5575000D01*
X21738327Y5591969D01*
X21731776Y5607781D01*
X21721358Y5621359D01*
X21707780Y5631777D01*
X21691969Y5638327D01*
X21675000Y5640561D01*
X21575000D01*
X21558031Y5638327D01*
X21542220Y5631777D01*
X21528641Y5621359D01*
X21518224Y5607781D01*
X21511673Y5591969D01*
X21509439Y5575000D01*
Y5475000D01*
X21511673Y5458032D01*
X21518224Y5442220D01*
X21528641Y5428642D01*
X21542220Y5418223D01*
X21558031Y5411673D01*
X21575000Y5409439D01*
X21589314D01*
Y4960686D01*
X20814783D01*
X20700000Y5075467D01*
Y5084946D01*
X20692387Y5103323D01*
X20678323Y5117388D01*
X20659946Y5125000D01*
X20640054D01*
X20621677Y5117388D01*
X20607613Y5103323D01*
X20600000Y5084946D01*
Y5075468D01*
X20349533Y4825000D01*
X20340054D01*
X20321677Y4817388D01*
X20307613Y4803323D01*
X20300000Y4784946D01*
Y4775468D01*
X20049533Y4525000D01*
X20040054D01*
X20021677Y4517388D01*
X20007613Y4503323D01*
X20000000Y4484946D01*
Y4475468D01*
X19749533Y4225000D01*
X19740054D01*
X19721677Y4217388D01*
X19707613Y4203323D01*
X19700000Y4184946D01*
Y4165054D01*
X19707613Y4146677D01*
X19721677Y4132612D01*
X19740054Y4125000D01*
X19759946D01*
X19778323Y4132612D01*
X19792387Y4146677D01*
X19800000Y4165054D01*
Y4174533D01*
X20050467Y4425000D01*
X20059946D01*
X20078323Y4432612D01*
X20092387Y4446677D01*
X20100000Y4465055D01*
Y4474533D01*
X20350468Y4725000D01*
X20359946D01*
X20378323Y4732612D01*
X20392387Y4746678D01*
X20400000Y4765055D01*
Y4774533D01*
X20650000Y5024533D01*
X20774767Y4899766D01*
X20786343Y4892031D01*
X20800000Y4889314D01*
X21589975D01*
X21596677Y4882612D01*
X21602194Y4880327D01*
X21606886Y4856736D01*
X21435754Y4685604D01*
X21289999D01*
X21271727Y4683198D01*
X21254698Y4676145D01*
X21240076Y4664924D01*
X20479173Y3904021D01*
X20467952Y3889399D01*
X20460899Y3872370D01*
X20458493Y3854097D01*
Y3293559D01*
X20438493Y3283696D01*
X20435303Y3286145D01*
X20418274Y3293198D01*
X20400000Y3295604D01*
X20298492D01*
X20280219Y3293198D01*
X20263190Y3286145D01*
X20248569Y3274924D01*
X20194670Y3221027D01*
X20169676Y3224317D01*
X20168018Y3227191D01*
X20152191Y3243017D01*
X20132809Y3254207D01*
X20111189Y3260000D01*
X20088809D01*
X20067191Y3254207D01*
X20052290Y3245604D01*
X20029245D01*
X19720604Y3554245D01*
Y3676850D01*
X19726105Y3677574D01*
X19750430Y3687650D01*
X19771321Y3703679D01*
X19787350Y3724569D01*
X19797426Y3748895D01*
X19800864Y3775000D01*
Y3875000D01*
X19797426Y3901105D01*
X19787350Y3925431D01*
X19771321Y3946321D01*
X19750430Y3962350D01*
X19726105Y3972426D01*
X19700000Y3975863D01*
X19600000D01*
X19573895Y3972426D01*
X19549570Y3962350D01*
X19528679Y3946321D01*
X19512650Y3925431D01*
X19502574Y3901105D01*
X19501849Y3895604D01*
X19379245D01*
X19334103Y3940745D01*
Y5839000D01*
X19359000D01*
Y6061000D01*
X19334103D01*
Y6814001D01*
X19359000D01*
Y7036000D01*
X19334103D01*
Y7163896D01*
X19343018Y7172809D01*
X19354207Y7192191D01*
X19360001Y7213810D01*
Y7236191D01*
X19354207Y7257809D01*
X19343018Y7277191D01*
X19327191Y7293017D01*
X19307809Y7304207D01*
X19286191Y7310000D01*
X19263811D01*
X19242191Y7304207D01*
X19222809Y7293017D01*
X19206982Y7277191D01*
X19195793Y7257809D01*
X19189999Y7236191D01*
Y7213810D01*
X19192896Y7203002D01*
Y7036000D01*
X19167999D01*
Y6814001D01*
X19192896D01*
Y6061000D01*
X19167999D01*
Y5839000D01*
X19192896D01*
Y5159357D01*
X19181004Y5153116D01*
X19172896Y5151953D01*
X18752533Y5572316D01*
X18762886Y5590248D01*
X18763811Y5590000D01*
X18786191D01*
X18807809Y5595793D01*
X18827191Y5606983D01*
X18843018Y5622809D01*
X18854207Y5642191D01*
X18858661Y5658812D01*
X18986424Y5786575D01*
X18997646Y5801198D01*
X19004698Y5818226D01*
X19007104Y5836500D01*
Y5839000D01*
X19032001D01*
Y6061000D01*
X18841000D01*
Y5840849D01*
X18758812Y5758661D01*
X18742191Y5754207D01*
X18722809Y5743017D01*
X18706982Y5727191D01*
X18695793Y5707809D01*
X18689999Y5686191D01*
Y5663810D01*
X18690248Y5662886D01*
X18672316Y5652533D01*
X18125804Y6199045D01*
Y6390000D01*
X18157700D01*
Y6660000D01*
X18125804D01*
Y6790000D01*
X18157700D01*
Y6854396D01*
X18316000D01*
Y6814000D01*
X18507001D01*
Y7036000D01*
X18316000D01*
Y6995604D01*
X18157700D01*
Y7060000D01*
X17952699D01*
Y6790000D01*
X17984596D01*
Y6660000D01*
X17952699D01*
Y6390000D01*
X17984596D01*
Y6169800D01*
X17987003Y6151526D01*
X17994055Y6134498D01*
X18005276Y6119875D01*
X18409547Y5715604D01*
X18401263Y5695604D01*
X17557700D01*
Y5760000D01*
X17525804D01*
Y5890000D01*
X17557700D01*
Y6160000D01*
X17352699D01*
Y5890000D01*
X17384596D01*
Y5760000D01*
X17352699D01*
Y5490000D01*
X17557700D01*
Y5554396D01*
X18395755D01*
X18954396Y4995755D01*
Y3850000D01*
X18956802Y3831726D01*
X18963855Y3814698D01*
X18975076Y3800075D01*
X19834547Y2940604D01*
X19826263Y2920604D01*
X19004245D01*
X18125804Y3799045D01*
Y4590000D01*
X18157700D01*
Y4860000D01*
X18125804D01*
Y4990000D01*
X18157700D01*
Y5054396D01*
X18225000D01*
X18243274Y5056802D01*
X18260303Y5063856D01*
X18274925Y5075076D01*
X18441188Y5241339D01*
X18457809Y5245793D01*
X18477191Y5256983D01*
X18493018Y5272809D01*
X18504207Y5292191D01*
X18510001Y5313810D01*
Y5336190D01*
X18504207Y5357809D01*
X18493018Y5377191D01*
X18477191Y5393017D01*
X18457809Y5404207D01*
X18436189Y5410000D01*
X18413811D01*
X18392191Y5404207D01*
X18372809Y5393017D01*
X18356982Y5377191D01*
X18345793Y5357809D01*
X18341339Y5341188D01*
X18195755Y5195604D01*
X18157700D01*
Y5260000D01*
X17952699D01*
Y4990000D01*
X17984596D01*
Y4860000D01*
X17952699D01*
Y4590000D01*
X17984596D01*
Y3769800D01*
X17987003Y3751526D01*
X17994055Y3734498D01*
X18005276Y3719875D01*
X18234547Y3490604D01*
X18226263Y3470604D01*
X17557700D01*
Y3535000D01*
X17525804D01*
Y3665000D01*
X17557700D01*
Y3935000D01*
X17352699D01*
Y3665000D01*
X17384596D01*
Y3535000D01*
X17352699D01*
Y3265000D01*
X17557700D01*
Y3329396D01*
X18220755D01*
X19025075Y2525075D01*
X19039697Y2513855D01*
X19056726Y2506802D01*
X19075000Y2504396D01*
X20450000D01*
X20468274Y2506802D01*
X20485303Y2513855D01*
X20499924Y2525075D01*
X20591188Y2616339D01*
X20607809Y2620793D01*
X20627191Y2631983D01*
X20643018Y2647809D01*
X20654207Y2667191D01*
X20660001Y2688809D01*
Y2711190D01*
X20657452Y2720697D01*
X20657809Y2720793D01*
X20677191Y2731983D01*
X20693018Y2747809D01*
X20704207Y2767191D01*
X20708661Y2783812D01*
X20719925Y2795076D01*
X20731145Y2809698D01*
X20738197Y2826727D01*
X20740604Y2845000D01*
Y2980000D01*
X20738197Y2998273D01*
X20731145Y3015302D01*
X20719925Y3029924D01*
X20695604Y3054245D01*
Y3770755D01*
X21354245Y4429396D01*
X21500000D01*
X21518272Y4431802D01*
X21535303Y4438855D01*
X21549924Y4450075D01*
X21589925Y4490075D01*
X23254245Y6154396D01*
X23626263D01*
X23634547Y6134396D01*
X21938936Y4438785D01*
X21927716Y4424162D01*
X21920662Y4407134D01*
X21918256Y4388860D01*
Y4091140D01*
Y3985419D01*
X21911226Y3973242D01*
X21905434Y3951624D01*
Y3929243D01*
X21911226Y3907624D01*
X21922417Y3888242D01*
X21937106Y3873551D01*
X21938092Y3869803D01*
X21935986Y3850625D01*
X21922809Y3843017D01*
X21906982Y3827191D01*
X21895793Y3807809D01*
X21889999Y3786191D01*
Y3763810D01*
X21895793Y3742191D01*
X21906982Y3722809D01*
X21922809Y3706983D01*
X21942191Y3695793D01*
X21963811Y3690000D01*
X21986189D01*
X22007809Y3695793D01*
X22027191Y3706983D01*
X22043018Y3722809D01*
X22054207Y3742191D01*
X22058661Y3758812D01*
X22115109Y3815261D01*
X22139981Y3814812D01*
X22147809Y3806983D01*
X22167191Y3795793D01*
X22188811Y3790000D01*
X22211191D01*
X22232809Y3795793D01*
X22247710Y3804396D01*
X22303416D01*
X22311070Y3785919D01*
X22302576Y3777425D01*
X21320755Y2795604D01*
X20998164D01*
X20983263Y2804207D01*
X20961646Y2810000D01*
X20939264D01*
X20917645Y2804207D01*
X20898264Y2793017D01*
X20882439Y2777191D01*
X20871246Y2757809D01*
X20865456Y2736190D01*
Y2735000D01*
X20848810D01*
X20827193Y2729207D01*
X20807809Y2718017D01*
X20791983Y2702191D01*
X20780794Y2682809D01*
X20775000Y2661191D01*
Y2638810D01*
X20777951Y2627799D01*
X20746326Y2596174D01*
X20545755Y2395604D01*
X18504245D01*
X18349924Y2549925D01*
X18335303Y2561145D01*
X18318272Y2568198D01*
X18300000Y2570604D01*
X18157700D01*
Y2635000D01*
X18125804D01*
Y2765000D01*
X18157700D01*
Y3035000D01*
X17952699D01*
Y2765000D01*
X17984596D01*
Y2635000D01*
X17952699D01*
Y2365000D01*
X18157700D01*
Y2429396D01*
X18270755D01*
X18425076Y2275075D01*
X18439697Y2263855D01*
X18456728Y2256802D01*
X18475000Y2254396D01*
X20571263D01*
X20577260Y2245642D01*
X20580038Y2234887D01*
X20510754Y2165604D01*
X17505000D01*
X17486726Y2163198D01*
X17469698Y2156145D01*
X17455075Y2144924D01*
X17445151Y2135000D01*
X17352699D01*
Y1865000D01*
X17384596D01*
Y1735000D01*
X17352699D01*
Y1465000D01*
X17557700D01*
Y1735000D01*
X17525804D01*
Y1865000D01*
X17557700D01*
Y2024396D01*
X20539999D01*
X20558273Y2026802D01*
X20575302Y2033855D01*
X20589925Y2045075D01*
X20943675Y2398826D01*
X21116188Y2571339D01*
X21132809Y2575792D01*
X21152191Y2586983D01*
X21168018Y2602809D01*
X21179207Y2622191D01*
X21185001Y2643809D01*
Y2654396D01*
X21350000D01*
X21368272Y2656802D01*
X21385303Y2663855D01*
X21387106Y2665241D01*
X21400322Y2650171D01*
X21212576Y2462425D01*
X19920755Y1170604D01*
X18157700D01*
Y1235000D01*
X17952699D01*
Y965001D01*
X17984596D01*
Y835000D01*
X17952699D01*
Y565001D01*
X18157700D01*
Y835000D01*
X18125804D01*
Y965001D01*
X18157700D01*
Y1029396D01*
X19950000D01*
X19968274Y1031802D01*
X19985303Y1038856D01*
X19999925Y1050076D01*
X21312424Y2362576D01*
X21541188Y2591339D01*
X21557809Y2595793D01*
X21577191Y2606983D01*
X21587500Y2617292D01*
X21597809Y2606983D01*
X21617191Y2595793D01*
X21633812Y2591339D01*
X23575075Y650076D01*
X23589697Y638856D01*
X23606726Y631803D01*
X23624998Y629397D01*
X24817300D01*
Y565001D01*
X25022301D01*
Y835000D01*
X24990404D01*
Y965001D01*
X25022301D01*
Y1235000D01*
X24817300D01*
Y965001D01*
X24849196D01*
Y835000D01*
X24817300D01*
Y770605D01*
X23654243D01*
X21733661Y2691188D01*
X21729207Y2707809D01*
X21718018Y2727191D01*
X21702191Y2743017D01*
X21682809Y2754207D01*
X21682452Y2754303D01*
X21685001Y2763810D01*
Y2786191D01*
X21679936Y2805088D01*
X21729778Y2854929D01*
X21753105Y2852428D01*
X21754396Y2851263D01*
Y2850000D01*
X21756802Y2831726D01*
X21763855Y2814698D01*
X21775076Y2800075D01*
X21798827Y2776325D01*
X22012544Y2562606D01*
X22027168Y2551386D01*
X22044196Y2544332D01*
X22062469Y2541927D01*
X22091821D01*
X22287932Y2345816D01*
Y2316464D01*
X22290338Y2298191D01*
X22297391Y2281162D01*
X22308611Y2266540D01*
X23025075Y1550076D01*
X23039697Y1538855D01*
X23056726Y1531802D01*
X23075000Y1529396D01*
X24217300D01*
Y1465000D01*
X24422301D01*
Y1735000D01*
X24390404D01*
Y1865000D01*
X24422301D01*
Y2135000D01*
X24217300D01*
Y1865000D01*
X24249196D01*
Y1735000D01*
X24217300D01*
Y1670604D01*
X23104245D01*
X22431464Y2343385D01*
X22431927Y2364554D01*
X22436145Y2368252D01*
X22563857D01*
X22582130Y2370658D01*
X22599158Y2377711D01*
X22613782Y2388931D01*
X22654247Y2429397D01*
X24817300D01*
Y2365001D01*
X25022301D01*
Y2635000D01*
X24990404D01*
Y2765001D01*
X25022301D01*
Y3035000D01*
X24817300D01*
Y2765001D01*
X24849196D01*
Y2635000D01*
X24817300D01*
Y2570604D01*
X22625002D01*
X22606728Y2568199D01*
X22589699Y2561145D01*
X22575076Y2549925D01*
X22534612Y2509460D01*
X22465388D01*
X22094354Y2880496D01*
Y2927493D01*
X22099918Y2937130D01*
X22105710Y2958748D01*
Y2981129D01*
X22099918Y3002748D01*
X22088727Y3022130D01*
X22072900Y3037956D01*
X22071536Y3038743D01*
X22069199Y3058361D01*
X22075870Y3064467D01*
X22083302Y3065036D01*
X22098999Y3061638D01*
X22106982Y3047809D01*
X22122809Y3031983D01*
X22142191Y3020793D01*
X22163811Y3015000D01*
X22186191D01*
X22207809Y3020793D01*
X22222710Y3029396D01*
X22700000D01*
X22718272Y3031802D01*
X22735303Y3038855D01*
X22749924Y3050075D01*
X22775038Y3075189D01*
X24245793D01*
X24264066Y3077595D01*
X24281094Y3084648D01*
X24295717Y3095868D01*
X24369724Y3169876D01*
X24380945Y3184498D01*
X24387997Y3201526D01*
X24390404Y3219800D01*
Y3265000D01*
X24422301D01*
Y3535000D01*
X24391737D01*
Y3665000D01*
X24422301D01*
Y3934999D01*
X24217300D01*
Y3665000D01*
X24250529D01*
Y3535000D01*
X24217300D01*
Y3265000D01*
X24239432D01*
X24245151Y3245000D01*
X24216547Y3216396D01*
X22745792D01*
X22727519Y3213991D01*
X22710490Y3206937D01*
X22708685Y3205552D01*
X22695470Y3220621D01*
X22999925Y3525075D01*
X23011145Y3539698D01*
X23018198Y3556726D01*
X23020604Y3575000D01*
Y3720755D01*
X23424245Y4124396D01*
X23952290D01*
X23967191Y4115793D01*
X23988811Y4110000D01*
X24011189D01*
X24032809Y4115793D01*
X24052191Y4126983D01*
X24068018Y4142809D01*
X24079207Y4162191D01*
X24085001Y4183810D01*
Y4206190D01*
X24084142Y4209396D01*
X24099487Y4229396D01*
X24125513D01*
X24140858Y4209396D01*
X24139999Y4206190D01*
Y4183810D01*
X24145793Y4162191D01*
X24156982Y4142809D01*
X24172809Y4126983D01*
X24192191Y4115793D01*
X24213811Y4110000D01*
X24236191D01*
X24257809Y4115793D01*
X24277191Y4126983D01*
X24279604Y4129396D01*
X26552280D01*
X26570551Y4131802D01*
X26587582Y4138855D01*
X26599539Y4148031D01*
X26612753Y4132962D01*
X26606982Y4127191D01*
X26595792Y4107809D01*
X26593442Y4099037D01*
X26571628Y4084177D01*
X26568558Y4085000D01*
X26546176D01*
X26524557Y4079207D01*
X26505176Y4068017D01*
X26489349Y4052191D01*
X26486087Y4046541D01*
X26472809Y4054207D01*
X26451190Y4060000D01*
X26428809D01*
X26407190Y4054207D01*
X26387808Y4043017D01*
X26371982Y4027191D01*
X26360791Y4007809D01*
X26354999Y3986190D01*
Y3963809D01*
X26360791Y3942191D01*
X26371982Y3922809D01*
X26378824Y3915967D01*
Y3830339D01*
X26298486Y3750000D01*
X26288809D01*
X26267191Y3744207D01*
X26247809Y3733017D01*
X26231982Y3717191D01*
X26220792Y3697809D01*
X26214999Y3676191D01*
Y3653810D01*
X26220792Y3632191D01*
X26231982Y3612809D01*
X26247809Y3596983D01*
X26267191Y3585793D01*
X26288809Y3580000D01*
X26311191Y3580000D01*
X26316684Y3560767D01*
Y3558809D01*
X26322479Y3537191D01*
X26333667Y3517809D01*
X26349493Y3501983D01*
X26368878Y3490793D01*
X26390494Y3485000D01*
X26412875D01*
X26414999Y3483370D01*
Y3463809D01*
X26420792Y3442191D01*
X26431982Y3422809D01*
X26447809Y3406983D01*
X26467191Y3395793D01*
X26488809Y3390000D01*
X26511191D01*
X26532809Y3395793D01*
X26552191Y3406983D01*
X26568018Y3422809D01*
X26579208Y3442191D01*
X26585001Y3463809D01*
Y3473485D01*
X26695346Y3583832D01*
X26713824Y3576178D01*
Y3210000D01*
X26713809D01*
X26692191Y3204207D01*
X26672809Y3193017D01*
X26656982Y3177191D01*
X26645792Y3157809D01*
X26639999Y3136191D01*
Y3113810D01*
X26645792Y3092191D01*
X26656982Y3072809D01*
X26672809Y3056983D01*
X26692191Y3045793D01*
X26713809Y3040000D01*
X26736191D01*
X26737033Y3039354D01*
Y3033398D01*
X26742825Y3011780D01*
X26754016Y2992398D01*
X26769839Y2976572D01*
X26789224Y2965381D01*
X26810843Y2959589D01*
X26824066D01*
Y2950783D01*
X26829858Y2929165D01*
X26841049Y2909782D01*
X26856873Y2893957D01*
X26876257Y2882766D01*
X26897876Y2876974D01*
X26920255D01*
X26920447Y2877025D01*
X26925793Y2857077D01*
X26936984Y2837695D01*
X26952808Y2821869D01*
X26972192Y2810678D01*
X26993808Y2804886D01*
X27015131D01*
X27020792Y2783763D01*
X27031982Y2764380D01*
X27047809Y2748555D01*
X27067191Y2737364D01*
X27080630Y2733763D01*
X27087976Y2712825D01*
X26550955Y2175804D01*
X26400803D01*
Y2365001D01*
X26432700D01*
Y2635000D01*
X26400803D01*
Y2765001D01*
X26432700D01*
Y3035000D01*
X26400803D01*
Y3294800D01*
X26398398Y3313074D01*
X26391345Y3330102D01*
X26380124Y3344724D01*
X26274924Y3449925D01*
X26260303Y3461145D01*
X26243274Y3468198D01*
X26225000Y3470604D01*
X25832700D01*
Y3535000D01*
X25802139D01*
Y3665000D01*
X25832700D01*
Y3934999D01*
X25627701D01*
Y3665000D01*
X25660931D01*
Y3535000D01*
X25627701D01*
Y3265000D01*
X25832700D01*
Y3329396D01*
X26195755D01*
X26259595Y3265555D01*
Y3035000D01*
X26227701D01*
Y2765001D01*
X26259595D01*
Y2635000D01*
X26227701D01*
Y2365001D01*
X26259595D01*
Y2134445D01*
X26195755Y2070604D01*
X25832700D01*
Y2135000D01*
X25627701D01*
Y1865000D01*
X25659595D01*
Y1735000D01*
X25627701D01*
Y1465000D01*
X25832700D01*
Y1529396D01*
X26195755D01*
X26259595Y1465555D01*
Y1235000D01*
X26227701D01*
Y965001D01*
X26259595D01*
Y835000D01*
X26227701D01*
Y565001D01*
X26432700D01*
Y835000D01*
X26400803D01*
Y965001D01*
X26432700D01*
Y1235000D01*
X26400803D01*
Y1494800D01*
X26398398Y1513074D01*
X26391345Y1530102D01*
X26380124Y1544725D01*
X26274924Y1649925D01*
X26260303Y1661145D01*
X26243274Y1668198D01*
X26225000Y1670604D01*
X25832700D01*
Y1735000D01*
X25800803D01*
Y1865000D01*
X25832700D01*
Y1929396D01*
X26225000D01*
X26243274Y1931802D01*
X26260303Y1938855D01*
X26274924Y1950075D01*
X26359445Y2034596D01*
X26580200D01*
X26598474Y2037002D01*
X26615503Y2044055D01*
X26630124Y2055276D01*
X27329926Y2755076D01*
X27341144Y2769698D01*
X27348199Y2786727D01*
X27350604Y2805000D01*
Y4650755D01*
X27529245Y4829396D01*
X28425000D01*
X28443274Y4831802D01*
X28460303Y4838855D01*
X28474924Y4850076D01*
X28774924Y5150076D01*
X28786145Y5164698D01*
X28793198Y5181726D01*
X28795605Y5200000D01*
Y5595755D01*
X28854926Y5655076D01*
X28866144Y5669698D01*
X28873199Y5686726D01*
X28875604Y5705000D01*
Y5870000D01*
X28873199Y5888273D01*
X28866144Y5905302D01*
X28854926Y5919924D01*
X28838931Y5935918D01*
X28846585Y5954396D01*
X29000000D01*
X29000000Y5000000D01*
X29949020Y5000000D01*
X29949020Y4415000D01*
X27575000D01*
Y2665000D01*
X29949020D01*
X29949020Y1200000D01*
X28800000Y1200000D01*
Y50981D01*
X15800000Y50980D01*
Y3100000D01*
X15419000Y3481000D01*
Y4519000D01*
X15800000Y4900000D01*
Y4974020D01*
X15818478Y4981674D01*
X15851695Y4948455D01*
Y2927700D01*
X15854102Y2909426D01*
X15861156Y2892398D01*
X15872375Y2877775D01*
X15974196Y2775955D01*
Y2135000D01*
X15942300D01*
Y1865000D01*
X15974196D01*
Y1735000D01*
X15942300D01*
Y1465000D01*
X15974196D01*
Y1205200D01*
X15976602Y1186927D01*
X15983655Y1169898D01*
X15994876Y1155276D01*
X16100076Y1050076D01*
X16114697Y1038855D01*
X16131726Y1031802D01*
X16150000Y1029396D01*
X16542300D01*
Y965001D01*
X16574196D01*
Y835000D01*
X16542300D01*
Y565001D01*
X16747301D01*
Y835000D01*
X16715404D01*
Y965001D01*
X16747301D01*
Y1235000D01*
X16542300D01*
Y1170604D01*
X16179245D01*
X16115404Y1234445D01*
Y1465000D01*
X16147301D01*
Y1735000D01*
X16115404D01*
Y1865000D01*
X16147301D01*
Y2135000D01*
X16115404D01*
Y2805200D01*
X16113773Y2817591D01*
X16121754Y2827611D01*
X16121834Y2827672D01*
X16131087Y2832067D01*
X16131726Y2831802D01*
X16150000Y2829396D01*
X16542300D01*
Y2765000D01*
X16574196D01*
Y2635000D01*
X16542300D01*
Y2365000D01*
X16747301D01*
Y2635000D01*
X16715404D01*
Y2765000D01*
X16747301D01*
Y3035000D01*
X16542300D01*
Y2970604D01*
X16179245D01*
X16115404Y3034445D01*
Y3265000D01*
X16147301D01*
Y3535000D01*
X16115404D01*
Y3665000D01*
X16147301D01*
Y3935000D01*
X16115404D01*
Y5005200D01*
X16112997Y5023474D01*
X16105945Y5040502D01*
X16096875Y5052322D01*
X16111139Y5066586D01*
X16114697Y5063855D01*
X16131726Y5056802D01*
X16150000Y5054396D01*
X16542300D01*
Y4990000D01*
X16574196D01*
Y4860000D01*
X16542300D01*
Y4590000D01*
X16747301D01*
Y4860000D01*
X16715404D01*
Y4990000D01*
X16747301D01*
Y5260000D01*
X16542300D01*
Y5195604D01*
X16179245D01*
X16115404Y5259445D01*
Y5490000D01*
X16147301D01*
Y5760000D01*
X16115404D01*
Y5890000D01*
X16147301D01*
Y6160000D01*
X16115404D01*
Y6965555D01*
X16779245Y7629396D01*
X19544492D01*
X19553348Y7609396D01*
D02*
G37*
G36*
X4977700Y6915000D02*
X5009596D01*
Y6785000D01*
X4977700D01*
Y6515000D01*
X5004396D01*
Y6479245D01*
X4970755Y6445604D01*
X4084000D01*
Y6486000D01*
X3895604D01*
Y6515000D01*
X4082700D01*
Y6579396D01*
X4667300D01*
Y6515000D01*
X4872300D01*
Y6785000D01*
X4667300D01*
Y6720604D01*
X4082700D01*
Y6785000D01*
X3895604D01*
Y6915000D01*
X4082700D01*
Y6979396D01*
X4667300D01*
Y6915000D01*
X4872300D01*
Y7179396D01*
X4977700D01*
Y6915000D01*
D02*
G37*
G36*
X739188Y7484396D02*
X731983Y7477191D01*
X720793Y7457809D01*
X715000Y7436190D01*
Y7413809D01*
X720793Y7392191D01*
X731983Y7372809D01*
X747809Y7356983D01*
X767191Y7345793D01*
X783812Y7341339D01*
X1100075Y7025076D01*
X1114698Y7013855D01*
X1131726Y7006802D01*
X1150000Y7004396D01*
X3567300D01*
Y6915000D01*
X3599196D01*
Y6785000D01*
X3567300D01*
Y6515000D01*
X3754396D01*
Y6275000D01*
X3756802Y6256726D01*
X3763855Y6239698D01*
X3775076Y6225075D01*
X3900075Y6100076D01*
X3914698Y6088855D01*
X3931726Y6081802D01*
X3950000Y6079396D01*
X4167300D01*
Y6015000D01*
X4203996D01*
Y5885000D01*
X4167300D01*
Y5820604D01*
X3879799D01*
X3861525Y5818198D01*
X3844497Y5811145D01*
X3829874Y5799924D01*
X3619875Y5589925D01*
X3608655Y5575302D01*
X3601602Y5558274D01*
X3599196Y5540000D01*
Y5385000D01*
X3567300D01*
Y5115000D01*
X3603996D01*
X3603996Y4985000D01*
X3567300D01*
Y4777105D01*
X3547300Y4766415D01*
X3545604Y4767548D01*
Y4975000D01*
X3543198Y4993273D01*
X3536145Y5010302D01*
X3524924Y5024924D01*
X3195604Y5354245D01*
Y5563055D01*
X3239849Y5607300D01*
X3320000D01*
Y5772700D01*
Y5904396D01*
X3505929D01*
X3520830Y5895793D01*
X3542449Y5890000D01*
X3564830D01*
X3586448Y5895793D01*
X3605830Y5906983D01*
X3621656Y5922809D01*
X3632846Y5942191D01*
X3638639Y5963810D01*
Y5986190D01*
X3632846Y6007809D01*
X3621656Y6027191D01*
X3605830Y6043017D01*
X3586448Y6054207D01*
X3564830Y6060000D01*
X3542449D01*
X3520830Y6054207D01*
X3505929Y6045604D01*
X3275000D01*
X3256726Y6043198D01*
X3239698Y6036145D01*
X3225076Y6024924D01*
X3179344Y5979193D01*
X3168124Y5964570D01*
X3161070Y5947542D01*
X3160433Y5942700D01*
X3130000D01*
Y5772700D01*
Y5697149D01*
X3113478Y5680626D01*
X3095000Y5688280D01*
Y5772700D01*
Y5942700D01*
X3095000D01*
X3083396Y5957822D01*
X3085000Y5963810D01*
Y5986190D01*
X3079207Y6007809D01*
X3068017Y6027191D01*
X3052191Y6043017D01*
X3032809Y6054207D01*
X3011191Y6060000D01*
X2988810D01*
X2967191Y6054207D01*
X2947809Y6043017D01*
X2931983Y6027191D01*
X2920793Y6007809D01*
X2915000Y5986190D01*
Y5963810D01*
X2916605Y5957822D01*
X2905000Y5942700D01*
X2905000D01*
Y5772700D01*
Y5688280D01*
X2886523Y5680626D01*
X2870000Y5697149D01*
Y5772700D01*
Y5942700D01*
X2870000D01*
X2858396Y5957822D01*
X2860000Y5963810D01*
Y5986190D01*
X2854207Y6007809D01*
X2843017Y6027191D01*
X2827191Y6043017D01*
X2807809Y6054207D01*
X2786191Y6060000D01*
X2763810D01*
X2742191Y6054207D01*
X2722809Y6043017D01*
X2706983Y6027191D01*
X2695793Y6007809D01*
X2690000Y5986190D01*
Y5963810D01*
X2691604Y5957822D01*
X2680000Y5942700D01*
X2680000D01*
Y5772700D01*
Y5688280D01*
X2661522Y5680626D01*
X2645000Y5697149D01*
Y5772700D01*
Y5942700D01*
X2645000D01*
X2633396Y5957822D01*
X2635000Y5963810D01*
Y5986190D01*
X2629207Y6007809D01*
X2618017Y6027191D01*
X2602191Y6043017D01*
X2582809Y6054207D01*
X2561190Y6060000D01*
X2538810D01*
X2517191Y6054207D01*
X2497809Y6043017D01*
X2478304Y6051797D01*
Y6103800D01*
X2475899Y6122073D01*
X2468845Y6139102D01*
X2457625Y6153724D01*
X2411000Y6200349D01*
Y6291314D01*
X3613500D01*
X3627156Y6294031D01*
X3633567Y6298314D01*
X3636000D01*
X3639449Y6299000D01*
X3722000D01*
Y6451000D01*
X3601000D01*
Y6363064D01*
X3600433Y6362686D01*
X1910005D01*
X1899952Y6360686D01*
X1728000D01*
X1714344Y6357969D01*
X1702766Y6350234D01*
X1674766Y6322233D01*
X1667031Y6310656D01*
X1664314Y6297000D01*
Y6272000D01*
X1624000D01*
Y6151000D01*
X1776000D01*
Y6272000D01*
X1776000D01*
X1782483Y6289314D01*
X1889000D01*
Y6116000D01*
X2079396D01*
Y6064838D01*
X2059396Y6053291D01*
X2057809Y6054207D01*
X2036190Y6060000D01*
X2013810D01*
X1992191Y6054207D01*
X1972809Y6043017D01*
X1956983Y6027191D01*
X1945793Y6007809D01*
X1940000Y5986190D01*
Y5963810D01*
X1941604Y5957822D01*
X1930000Y5942700D01*
X1930000D01*
Y5772700D01*
Y5607300D01*
X1954396D01*
Y5430000D01*
X1956802Y5411726D01*
X1963855Y5394698D01*
X1975076Y5380075D01*
X2026069Y5329082D01*
X2018416Y5310604D01*
X1693803D01*
X1645604Y5358803D01*
Y5607300D01*
X1670000D01*
Y5772700D01*
Y5942700D01*
X1670000D01*
X1658396Y5957823D01*
X1660000Y5963810D01*
Y5986190D01*
X1654207Y6007809D01*
X1643017Y6027191D01*
X1627191Y6043017D01*
X1607809Y6054207D01*
X1586190Y6060000D01*
X1563809D01*
X1542191Y6054207D01*
X1522809Y6043017D01*
X1509489Y6029698D01*
X1497417Y6029576D01*
X1486795Y6032224D01*
X1486145Y6033794D01*
X1474924Y6048417D01*
X1385917Y6137424D01*
X1371294Y6148645D01*
X1354266Y6155698D01*
X1335993Y6158104D01*
X1181000D01*
Y6201500D01*
X1100000D01*
Y6211500D01*
X1090000D01*
Y6277000D01*
X1019000D01*
Y6206980D01*
X1000523Y6199326D01*
X926831Y6273018D01*
X924207Y6282809D01*
X915604Y6297710D01*
Y6390000D01*
X957700D01*
Y6454396D01*
X989000D01*
Y6443000D01*
X1211000D01*
Y6454396D01*
X1589000D01*
Y6443000D01*
X1811000D01*
Y6454396D01*
X1889000D01*
Y6443000D01*
X2111000D01*
Y6454396D01*
X2189000D01*
Y6443000D01*
X2411000D01*
Y6634000D01*
X2189000D01*
Y6595604D01*
X2111000D01*
Y6634000D01*
X1889000D01*
Y6595604D01*
X1811000D01*
Y6634000D01*
X1589000D01*
Y6595604D01*
X1211000D01*
Y6634000D01*
X989000D01*
Y6595604D01*
X957700D01*
Y6660000D01*
X752700D01*
Y6405000D01*
X752700Y6390000D01*
X734771Y6385000D01*
X710000D01*
Y6325001D01*
X690000D01*
Y6385000D01*
X665229D01*
X647300Y6390000D01*
X647300Y6405000D01*
Y6660000D01*
X646979D01*
X632639Y6680000D01*
X635000Y6688810D01*
Y6711191D01*
X629207Y6732809D01*
X618017Y6752191D01*
X602191Y6768017D01*
X582809Y6779207D01*
X561190Y6785000D01*
X538809D01*
X517191Y6779207D01*
X497809Y6768017D01*
X481983Y6752191D01*
X470793Y6732809D01*
X465000Y6711191D01*
Y6688810D01*
X467361Y6680000D01*
X453020Y6660000D01*
X442300D01*
Y6390000D01*
X460000D01*
Y6240604D01*
X460000Y6235000D01*
X446472Y6220604D01*
X329245D01*
X295604Y6254245D01*
Y7320755D01*
X479245Y7504396D01*
X730904D01*
X739188Y7484396D01*
D02*
G37*
G36*
X29329395Y7412128D02*
Y6306524D01*
X29218475Y6195604D01*
X27950000D01*
X27931726Y6193198D01*
X27914697Y6186145D01*
X27900076Y6174924D01*
X27563477Y5838326D01*
X27545001Y5845980D01*
Y5942700D01*
X27538162D01*
X27526614Y5962700D01*
X27529208Y5967191D01*
X27535001Y5988809D01*
Y6011190D01*
X27529208Y6032809D01*
X27518018Y6052191D01*
X27502191Y6068017D01*
X27498361Y6070228D01*
X27495071Y6095222D01*
X27829245Y6429396D01*
X28777289D01*
X28792191Y6420793D01*
X28813809Y6415000D01*
X28836191D01*
X28857809Y6420793D01*
X28877191Y6431983D01*
X28893018Y6447809D01*
X28904208Y6467191D01*
X28910001Y6488809D01*
Y6511190D01*
X28904208Y6532809D01*
X28893018Y6552191D01*
X28877191Y6568017D01*
X28857809Y6579207D01*
X28836191Y6585000D01*
X28813809D01*
X28792191Y6579207D01*
X28777289Y6570604D01*
X27800000D01*
X27781726Y6568198D01*
X27764697Y6561145D01*
X27750076Y6549924D01*
X26790555Y5590404D01*
X26359445D01*
X26274924Y5674924D01*
X26260303Y5686145D01*
X26243274Y5693198D01*
X26225000Y5695604D01*
X25832700D01*
Y5759999D01*
X25800803D01*
Y5890000D01*
X25832700D01*
Y6154396D01*
X25870755D01*
X25890076Y6135076D01*
X25904697Y6123855D01*
X25921725Y6116802D01*
X25939999Y6114396D01*
X26521695D01*
X26539969Y6116802D01*
X26556998Y6123855D01*
X26571619Y6135076D01*
X26665939Y6229396D01*
X26707300D01*
Y6205000D01*
X27042700D01*
Y6285151D01*
X27124924Y6367375D01*
X27136145Y6381998D01*
X27143198Y6399026D01*
X27145605Y6417300D01*
Y6602290D01*
X27154208Y6617191D01*
X27160001Y6638809D01*
Y6661190D01*
X27154208Y6682809D01*
X27143018Y6702191D01*
X27127191Y6718017D01*
X27107809Y6729207D01*
X27086191Y6735000D01*
X27063809D01*
X27042191Y6729207D01*
X27022809Y6718017D01*
X27006982Y6702191D01*
X26995792Y6682809D01*
X26989999Y6661190D01*
Y6638809D01*
X26995792Y6617191D01*
X27004395Y6602290D01*
Y6446545D01*
X26952850Y6395000D01*
X26707300D01*
Y6370604D01*
X26652222D01*
X26650003Y6372175D01*
X26639709Y6390604D01*
X26643198Y6399027D01*
X26645605Y6417300D01*
Y6602290D01*
X26654208Y6617191D01*
X26660001Y6638809D01*
Y6661190D01*
X26654208Y6682809D01*
X26643018Y6702191D01*
X26627191Y6718017D01*
X26607809Y6729207D01*
X26586191Y6735000D01*
X26563809D01*
X26542191Y6729207D01*
X26522809Y6718017D01*
X26506982Y6702191D01*
X26495792Y6682809D01*
X26489999Y6661190D01*
Y6638809D01*
X26495792Y6617191D01*
X26504395Y6602290D01*
Y6446545D01*
X26452850Y6395000D01*
X26432700D01*
Y6660000D01*
X26400803D01*
Y6790000D01*
X26432700D01*
Y6854396D01*
X28750000D01*
X28768274Y6856802D01*
X28785303Y6863855D01*
X28799924Y6875076D01*
X29216187Y7291339D01*
X29232809Y7295793D01*
X29252191Y7306983D01*
X29268018Y7322809D01*
X29279208Y7342191D01*
X29285001Y7363810D01*
Y7386190D01*
X29282901Y7394023D01*
X29293768Y7411501D01*
X29310999Y7416000D01*
X29329395Y7412128D01*
D02*
G37*
G36*
X6329396Y5945755D02*
Y5746584D01*
X6310918Y5738931D01*
X6249925Y5799925D01*
X6235302Y5811145D01*
X6218274Y5818198D01*
X6200000Y5820604D01*
X5782700D01*
Y5885000D01*
X5750804D01*
Y6015000D01*
X5782700D01*
Y6285000D01*
X5577700D01*
Y6015000D01*
X5609596D01*
Y5885000D01*
X5577700D01*
Y5615000D01*
X5782700D01*
Y5679396D01*
X6170755D01*
X6229396Y5620755D01*
Y5125000D01*
X6231802Y5106726D01*
X6238855Y5089698D01*
X6250076Y5075075D01*
X6581071Y4744080D01*
X6573417Y4725603D01*
X5182700D01*
Y4779396D01*
X5377290D01*
X5392191Y4770793D01*
X5413810Y4765000D01*
X5436191D01*
X5457809Y4770793D01*
X5477191Y4781983D01*
X5493017Y4797809D01*
X5504207Y4817191D01*
X5510000Y4838809D01*
Y4861190D01*
X5504207Y4882809D01*
X5493017Y4902191D01*
X5477191Y4918017D01*
X5457809Y4929207D01*
X5436191Y4935000D01*
X5413810D01*
X5392191Y4929207D01*
X5377290Y4920604D01*
X5182700D01*
Y4985000D01*
X5150804D01*
Y5115000D01*
X5182700D01*
Y5385000D01*
X4977700D01*
Y5115000D01*
X5009596D01*
Y4985000D01*
X4977700D01*
Y4725603D01*
X4872300D01*
Y4985000D01*
X4667300D01*
Y4920604D01*
X4082700D01*
Y4985000D01*
X3877700D01*
Y4725603D01*
X3772300D01*
Y4985000D01*
X3745204D01*
X3745204Y5115000D01*
X3772300D01*
Y5385000D01*
X3740403D01*
Y5510755D01*
X3909044Y5679396D01*
X4167300D01*
Y5615000D01*
X4372300D01*
Y5885000D01*
X4345204D01*
Y6015000D01*
X4372300D01*
Y6285000D01*
X4372300D01*
X4373757Y6304396D01*
X4476242D01*
X4477699Y6285000D01*
X4477700Y6284396D01*
Y6015000D01*
X4682700D01*
Y6079396D01*
X5267300D01*
Y6015000D01*
X5472300D01*
Y6285000D01*
X5267300D01*
Y6220604D01*
X4682700D01*
Y6284396D01*
X4682700Y6285000D01*
X4684157Y6304396D01*
X5000000D01*
X5018273Y6306802D01*
X5035302Y6313855D01*
X5049924Y6325075D01*
X5124924Y6400076D01*
X5136145Y6414698D01*
X5143198Y6431727D01*
X5145604Y6450000D01*
Y6515000D01*
X5182700D01*
Y6579396D01*
X5695755D01*
X6329396Y5945755D01*
D02*
G37*
G36*
X24217300Y5890000D02*
X24249196D01*
Y5759999D01*
X24217300D01*
Y5695604D01*
X23650000D01*
X23631726Y5693198D01*
X23614697Y5686144D01*
X23600075Y5674924D01*
X22077942Y4152791D01*
X22059464Y4160444D01*
Y4359615D01*
X23729245Y6029396D01*
X23877290D01*
X23892191Y6020793D01*
X23913809Y6015000D01*
X23936189D01*
X23957809Y6020793D01*
X23977191Y6031983D01*
X23993018Y6047809D01*
X24004207Y6067191D01*
X24010001Y6088810D01*
Y6111190D01*
X24004207Y6132809D01*
X24003291Y6134396D01*
X24014838Y6154396D01*
X24217300D01*
Y5890000D01*
D02*
G37*
G36*
X29949020Y6000000D02*
X29375980Y6000000D01*
X29368326Y6018478D01*
X29539923Y6190076D01*
X29551144Y6204698D01*
X29558197Y6221726D01*
X29560605Y6240000D01*
Y7587279D01*
X29558197Y7605553D01*
X29551144Y7622581D01*
X29539923Y7637204D01*
X29410205Y7766924D01*
X29395581Y7778144D01*
X29378552Y7785198D01*
X29360281Y7787603D01*
X29281000D01*
Y7828502D01*
X29199997D01*
X29119000D01*
Y7787603D01*
X29031000D01*
Y7828501D01*
X28950000D01*
X28869000D01*
Y7787603D01*
X28339719D01*
X28321448Y7785198D01*
X28304419Y7778144D01*
X28289795Y7766924D01*
X27829977Y7307104D01*
X27777902D01*
X27770496Y7327104D01*
X27779208Y7342191D01*
X27785001Y7363810D01*
Y7386190D01*
X27779208Y7407809D01*
X27768018Y7427191D01*
X27752191Y7443017D01*
X27732809Y7454207D01*
X27716187Y7458661D01*
X27245828Y7929022D01*
X27254111Y7949022D01*
X29949020Y7949022D01*
X29949020Y6000000D01*
D02*
G37*
G36*
X25627701Y5890000D02*
X25659595D01*
Y5759999D01*
X25627701D01*
Y5490000D01*
X25832700D01*
Y5554396D01*
X26195755D01*
X26259595Y5490555D01*
Y5260000D01*
X26227701D01*
Y4990000D01*
X26259595D01*
Y4860000D01*
X26227701D01*
Y4640604D01*
X26122299D01*
Y4860000D01*
X25917300D01*
Y4795604D01*
X25332700D01*
Y4860000D01*
X25127699D01*
Y4640604D01*
X25022301D01*
Y4860000D01*
X24990404D01*
Y4990000D01*
X25022301D01*
Y5260000D01*
X24817300D01*
Y4990000D01*
X24849196D01*
Y4860000D01*
X24817300D01*
Y4745604D01*
X24294096D01*
X24285812Y4765604D01*
X24293018Y4772809D01*
X24304207Y4792191D01*
X24310001Y4813810D01*
Y4836190D01*
X24304207Y4857809D01*
X24293018Y4877191D01*
X24277191Y4893017D01*
X24257809Y4904207D01*
X24236191Y4910000D01*
X24213811D01*
X24192191Y4904207D01*
X24177290Y4895604D01*
X23997720D01*
X23979448Y4893198D01*
X23962419Y4886145D01*
X23947797Y4874924D01*
X23818475Y4745604D01*
X23150000D01*
X23131726Y4743198D01*
X23114697Y4736145D01*
X23100075Y4724925D01*
X22320755Y3945604D01*
X22247710D01*
X22232809Y3954207D01*
X22211191Y3960000D01*
X22188811D01*
X22177144Y3956874D01*
X22157144Y3969788D01*
Y4032295D01*
X23679245Y5554396D01*
X24217300D01*
Y5490000D01*
X24422301D01*
Y5759999D01*
X24390404D01*
Y5890000D01*
X24422301D01*
Y6154396D01*
X24527699D01*
Y5890000D01*
X24732700D01*
Y5954396D01*
X25317300D01*
Y5890000D01*
X25522301D01*
Y6154396D01*
X25627701D01*
Y5890000D01*
D02*
G37*
G36*
X28086069Y6035918D02*
X28025076Y5974925D01*
X28013855Y5960302D01*
X28006802Y5943274D01*
X28004395Y5925000D01*
Y5889838D01*
X27984396Y5878291D01*
X27982809Y5879207D01*
X27961191Y5885000D01*
X27938809D01*
X27917191Y5879207D01*
X27897809Y5868017D01*
X27881982Y5852191D01*
X27870792Y5832809D01*
X27864999Y5811191D01*
Y5788810D01*
X27870792Y5767191D01*
X27873315Y5762825D01*
X27861768Y5742825D01*
X27854999D01*
Y5572825D01*
Y5407425D01*
X27839896Y5395604D01*
X27244305D01*
X27236652Y5414082D01*
X27429266Y5606695D01*
X27435001D01*
X27439590Y5607300D01*
X27545001D01*
Y5628006D01*
X27552600Y5631155D01*
X27567224Y5642375D01*
X27979245Y6054396D01*
X28078415D01*
X28086069Y6035918D01*
D02*
G37*
G36*
X2337096Y6074555D02*
Y5704016D01*
X2339502Y5685742D01*
X2346556Y5668714D01*
X2357776Y5654091D01*
X2369492Y5642375D01*
X2384114Y5631155D01*
X2401143Y5624102D01*
X2419416Y5621696D01*
X2455000D01*
Y5607300D01*
X2535151D01*
X2729396Y5413055D01*
Y5248737D01*
X2709396Y5240453D01*
X2569925Y5379924D01*
X2555302Y5391144D01*
X2538274Y5398198D01*
X2520000Y5400604D01*
X2154245D01*
X2095604Y5459245D01*
Y5607300D01*
X2120000D01*
Y5622051D01*
X2135573Y5624102D01*
X2152602Y5631155D01*
X2167224Y5642375D01*
X2199924Y5675076D01*
X2211145Y5689698D01*
X2218198Y5706726D01*
X2220604Y5725000D01*
Y6116000D01*
X2295651D01*
X2337096Y6074555D01*
D02*
G37*
G36*
X27354999Y5926867D02*
Y5772700D01*
Y5730987D01*
X27350095Y5727224D01*
X26650076Y5027203D01*
X26638855Y5012581D01*
X26631802Y4995552D01*
X26629395Y4977279D01*
Y4887550D01*
X26451178Y4709332D01*
X26432700Y4716985D01*
Y4860000D01*
X26400803D01*
Y4990000D01*
X26432700D01*
Y5260000D01*
X26400803D01*
Y5449196D01*
X26819800D01*
X26838074Y5451602D01*
X26855103Y5458655D01*
X26869724Y5469875D01*
X27335001Y5935151D01*
X27354999Y5926867D01*
D02*
G37*
G36*
X1365076Y4785076D02*
X1379698Y4773856D01*
X1396726Y4766802D01*
X1415000Y4764396D01*
X2133476D01*
X2404396Y4493476D01*
Y4424000D01*
X50980D01*
Y4900000D01*
X1100000Y4900000D01*
Y5024020D01*
X1118478Y5031673D01*
X1365076Y4785076D01*
D02*
G37*
G36*
X5972467Y3852684D02*
X5962115Y3834752D01*
X5961191Y3835000D01*
X5938810D01*
X5917191Y3829207D01*
X5897809Y3818017D01*
X5881983Y3802191D01*
X5870793Y3782809D01*
X5865000Y3761191D01*
Y3738810D01*
X5870793Y3717191D01*
X5881983Y3697809D01*
X5897809Y3681983D01*
X5917191Y3670793D01*
X5938810Y3665000D01*
X5941501D01*
X6099762Y3506740D01*
X6085333Y3492310D01*
X6242310Y3335333D01*
X6267620Y3360643D01*
X6462576Y3165687D01*
X6475948Y3155426D01*
X6906299Y2725076D01*
X6918643Y2715604D01*
X6918247Y2707659D01*
X6913042Y2695604D01*
X6179245D01*
X5750804Y3124045D01*
Y3265000D01*
X5782700D01*
Y3535000D01*
X5750804D01*
Y3665000D01*
X5782700D01*
Y3904396D01*
X5920755D01*
X5972467Y3852684D01*
D02*
G37*
G36*
X6665859Y3689396D02*
X6665000Y3686190D01*
Y3663810D01*
X6670793Y3642191D01*
X6681983Y3622809D01*
X6697809Y3606983D01*
X6717191Y3595793D01*
X6738809Y3590000D01*
X6761190D01*
X6782809Y3595793D01*
X6797710Y3604396D01*
X6820755D01*
X7409547Y3015604D01*
X7401729Y2995604D01*
X7029245D01*
X6476899Y3547950D01*
X6473534Y3566557D01*
X6608591Y3701614D01*
Y3701614D01*
X6611815Y3709396D01*
X6650512D01*
X6665859Y3689396D01*
D02*
G37*
G36*
X9622809Y3781983D02*
X9642191Y3770793D01*
X9663809Y3765000D01*
X9686190D01*
X9707809Y3770793D01*
X9722710Y3779396D01*
X10251263D01*
X10259547Y3759396D01*
X10120755Y3620604D01*
X10000000D01*
X9981727Y3618198D01*
X9964698Y3611145D01*
X9950076Y3599924D01*
X9897576Y3547424D01*
X9689355Y3339204D01*
X9670412Y3348546D01*
X9670604Y3350000D01*
Y3675000D01*
X9668198Y3693274D01*
X9661145Y3710302D01*
X9649925Y3724925D01*
X9615272Y3759577D01*
X9619634Y3783499D01*
X9620776Y3784016D01*
X9622809Y3781983D01*
D02*
G37*
G36*
X7501326Y3523826D02*
X7579396Y3445755D01*
Y3372710D01*
X7570793Y3357809D01*
X7565000Y3336190D01*
Y3313809D01*
X7570793Y3292191D01*
X7577482Y3280604D01*
X7567536Y3260604D01*
X7537738D01*
X7109212Y3689129D01*
X7109141Y3689396D01*
X7124487Y3709396D01*
X7315755D01*
X7501326Y3523826D01*
D02*
G37*
G36*
X2950076Y3925075D02*
X2964698Y3913855D01*
X2981727Y3906802D01*
X3000000Y3904396D01*
X4167300D01*
Y3665000D01*
X4203996D01*
Y3535000D01*
X4167300D01*
Y3470604D01*
X3879799D01*
X3861526Y3468198D01*
X3844498Y3461144D01*
X3829875Y3449924D01*
X3619876Y3239925D01*
X3608655Y3225302D01*
X3606175Y3219315D01*
X3586175Y3223293D01*
Y3499661D01*
X3668258Y3581743D01*
X3681519Y3601589D01*
X3686176Y3625000D01*
Y3640967D01*
X3693017Y3647809D01*
X3704207Y3667191D01*
X3710000Y3688809D01*
Y3711190D01*
X3704207Y3732809D01*
X3693017Y3752191D01*
X3677191Y3768017D01*
X3657809Y3779207D01*
X3636191Y3785000D01*
X3613810D01*
X3592191Y3779207D01*
X3572809Y3768017D01*
X3562500Y3757708D01*
X3552191Y3768017D01*
X3532809Y3779207D01*
X3511191Y3785000D01*
X3488810D01*
X3467191Y3779207D01*
X3447809Y3768017D01*
X3435175Y3755382D01*
X3422191Y3768367D01*
X3402808Y3779557D01*
X3381190Y3785350D01*
X3358809D01*
X3337191Y3779557D01*
X3317808Y3768367D01*
X3309648Y3760206D01*
X3300830Y3769024D01*
X3281448Y3780214D01*
X3259829Y3786007D01*
X3237448D01*
X3215830Y3780214D01*
X3196448Y3769024D01*
X3186316Y3758892D01*
X3177191Y3768017D01*
X3157809Y3779207D01*
X3136191Y3785000D01*
X3113810D01*
X3092191Y3779207D01*
X3072809Y3768017D01*
X3056983Y3752191D01*
X3045793Y3732809D01*
X3040000Y3711190D01*
Y3688809D01*
X3045793Y3667191D01*
X3056983Y3647809D01*
X3063825Y3640967D01*
Y3057534D01*
X2983952Y2977661D01*
X2974276D01*
X2952658Y2971869D01*
X2933276Y2960678D01*
X2917450Y2944852D01*
X2906260Y2925470D01*
X2900467Y2903852D01*
Y2881471D01*
X2906260Y2859853D01*
X2917450Y2840470D01*
X2933276Y2824644D01*
X2952658Y2813454D01*
X2974276Y2807661D01*
X2976716D01*
Y2788810D01*
X2982509Y2767191D01*
X2993699Y2747809D01*
X3009525Y2731983D01*
X3028907Y2720793D01*
X3050526Y2715000D01*
X3050590D01*
X3065000Y2711190D01*
Y2688809D01*
X3070793Y2667191D01*
X3081983Y2647809D01*
X3097809Y2631983D01*
X3117191Y2620793D01*
X3121554Y2619624D01*
X3140000Y2611190D01*
Y2588809D01*
X3140247Y2587886D01*
X3122316Y2577533D01*
X2795604Y2904245D01*
Y4053416D01*
X2814081Y4061070D01*
X2950076Y3925075D01*
D02*
G37*
G36*
X14200000Y4900000D02*
X14581000Y4519000D01*
Y3480999D01*
X14200000Y3100000D01*
Y50980D01*
X1200000Y50979D01*
Y1200000D01*
X50980D01*
X50980Y2674000D01*
X2425000D01*
Y4167309D01*
X2445000Y4175593D01*
X2564396Y4056197D01*
Y2790000D01*
X2566802Y2771726D01*
X2573855Y2754698D01*
X2585076Y2740076D01*
X3375076Y1950076D01*
X3389698Y1938855D01*
X3406726Y1931802D01*
X3425000Y1929396D01*
X4167300D01*
Y1865000D01*
X4199196D01*
Y1735000D01*
X4167300D01*
Y1670604D01*
X3879799D01*
X3861526Y1668198D01*
X3844498Y1661145D01*
X3829875Y1649924D01*
X3619876Y1439925D01*
X3608655Y1425302D01*
X3601602Y1408274D01*
X3599196Y1390000D01*
Y1235000D01*
X3567300D01*
Y965000D01*
X3603997D01*
X3603996Y835000D01*
X3567300D01*
Y565000D01*
X3772300D01*
Y835000D01*
X3745204D01*
X3745204Y965000D01*
X3772300D01*
Y1235000D01*
X3740404D01*
Y1360755D01*
X3909045Y1529396D01*
X4167300D01*
Y1465000D01*
X4372300D01*
Y1735000D01*
X4340404D01*
Y1865000D01*
X4372300D01*
Y2135000D01*
X4167300D01*
Y2070604D01*
X3454245D01*
X3140453Y2384396D01*
X3148737Y2404396D01*
X3567300D01*
Y2365000D01*
X3772300D01*
Y2635000D01*
X3745204D01*
X3745204Y2765000D01*
X3772300D01*
Y3035000D01*
X3740404D01*
Y3160755D01*
X3909045Y3329396D01*
X4167300D01*
Y3265000D01*
X4372300D01*
Y3535000D01*
X4345204D01*
Y3665000D01*
X4372300D01*
Y3904396D01*
X4477700D01*
Y3665000D01*
X4682700D01*
Y3729396D01*
X5267300D01*
Y3665000D01*
X5472300D01*
Y3904396D01*
X5577700D01*
Y3665000D01*
X5609596D01*
Y3535000D01*
X5577700D01*
Y3265000D01*
X5609596D01*
Y3094800D01*
X5612002Y3076526D01*
X5619056Y3059498D01*
X5630276Y3044875D01*
X6084547Y2590604D01*
X6076263Y2570604D01*
X5182700D01*
Y2635000D01*
X5150804D01*
Y2765000D01*
X5182700D01*
Y3035000D01*
X4977700D01*
Y2765000D01*
X5009596D01*
Y2635000D01*
X4977700D01*
Y2365000D01*
X5182700D01*
Y2429396D01*
X8225000D01*
X8243274Y2431802D01*
X8260302Y2438855D01*
X8274925Y2450076D01*
X8372425Y2547576D01*
X8466188Y2641339D01*
X8474704Y2643621D01*
X8495793Y2642191D01*
X8506983Y2622809D01*
X8522809Y2606983D01*
X8542191Y2595793D01*
X8563810Y2590000D01*
X8586191D01*
X8607809Y2595793D01*
X8627191Y2606983D01*
X8634396Y2614188D01*
X8654396Y2605904D01*
Y2379245D01*
X7945755Y1670604D01*
X5782700D01*
Y1735000D01*
X5750804D01*
Y1865000D01*
X5782700D01*
Y2135000D01*
X5577700D01*
Y1865000D01*
X5609596D01*
Y1735000D01*
X5577700D01*
Y1465000D01*
X5782700D01*
Y1529396D01*
X7928416D01*
X7936070Y1510918D01*
X7595755Y1170604D01*
X5182700D01*
Y1235000D01*
X4977700D01*
Y965000D01*
X5009596D01*
Y835000D01*
X4977700D01*
Y565000D01*
X5182700D01*
Y835000D01*
X5150804D01*
Y965000D01*
X5182700D01*
Y1029396D01*
X7625000D01*
X7643274Y1031802D01*
X7660302Y1038855D01*
X7674925Y1050076D01*
X8912425Y2287576D01*
X9141188Y2516339D01*
X9157809Y2520793D01*
X9177191Y2531983D01*
X9193017Y2547809D01*
X9196818Y2554392D01*
X9217271Y2551699D01*
X9219623Y2546554D01*
X9220793Y2542191D01*
X9231983Y2522809D01*
X9247809Y2506983D01*
X9267191Y2495793D01*
X9288809Y2490000D01*
X9311190D01*
X9332809Y2495793D01*
X9347710Y2504396D01*
X9495755D01*
X10950075Y1050076D01*
X10964698Y1038856D01*
X10981726Y1031802D01*
X11000000Y1029396D01*
X11842300D01*
Y965001D01*
X11874196D01*
Y835000D01*
X11842300D01*
Y565001D01*
X12047300D01*
Y835000D01*
X12015404D01*
Y965001D01*
X12047300D01*
Y1235000D01*
X11842300D01*
Y1170604D01*
X11029245D01*
X10289203Y1910645D01*
X10298545Y1929588D01*
X10299999Y1929397D01*
X12442300D01*
Y1865001D01*
X12474196D01*
Y1735000D01*
X12442300D01*
Y1465000D01*
X12647300D01*
Y1735000D01*
X12615404D01*
Y1865001D01*
X12647300D01*
Y2135000D01*
X12442300D01*
Y2070604D01*
X10329245D01*
X9613834Y2786015D01*
X9620610Y2807524D01*
X9632809Y2810792D01*
X9652191Y2821983D01*
X9659605Y2829396D01*
X11842300D01*
Y2765000D01*
X11874196D01*
Y2635000D01*
X11842300D01*
Y2365001D01*
X12047300D01*
Y2635000D01*
X12015404D01*
Y2765000D01*
X12047300D01*
Y3035000D01*
X11842300D01*
Y2970604D01*
X9662648D01*
X9661191Y2990000D01*
X9682809Y2995793D01*
X9702191Y3006983D01*
X9718017Y3022809D01*
X9729207Y3042191D01*
X9733661Y3058812D01*
X10004245Y3329396D01*
X12442300D01*
Y3265000D01*
X12647300D01*
Y3535000D01*
X12615404D01*
Y3665000D01*
X12647300D01*
Y3935000D01*
X12442300D01*
Y3665000D01*
X12474196D01*
Y3535000D01*
X12442300D01*
Y3470604D01*
X10193182D01*
X10187977Y3482659D01*
X10187581Y3490604D01*
X10199924Y3500076D01*
X11354246Y4654397D01*
X11842300D01*
Y4590001D01*
X12047300D01*
Y4860000D01*
X12015404D01*
Y4990001D01*
X12047300D01*
Y5260000D01*
X11842300D01*
Y4990001D01*
X11874196D01*
Y4860000D01*
X11842300D01*
Y4795604D01*
X11325000D01*
X11306727Y4793198D01*
X11289699Y4786145D01*
X11275076Y4774925D01*
X10650457Y4150306D01*
X10630457Y4158590D01*
Y4231506D01*
X10650457Y4243578D01*
X10663810Y4240000D01*
X10686190D01*
X10707809Y4245793D01*
X10727191Y4256983D01*
X10743017Y4272809D01*
X10754207Y4292191D01*
X10760000Y4313810D01*
Y4323485D01*
X11376515Y4940000D01*
X11386191D01*
X11407809Y4945793D01*
X11427191Y4956983D01*
X11443017Y4972809D01*
X11454207Y4992191D01*
X11460000Y5013810D01*
Y5036191D01*
X11454207Y5057809D01*
X11443017Y5077191D01*
X11427191Y5093017D01*
X11407809Y5104207D01*
X11407439Y5104306D01*
X11401462Y5126614D01*
X11829245Y5554396D01*
X12442300D01*
Y5490000D01*
X12647300D01*
Y5760000D01*
X12615404D01*
Y5890000D01*
X12647300D01*
Y6160000D01*
X12442300D01*
Y5890000D01*
X12474196D01*
Y5760000D01*
X12442300D01*
Y5695604D01*
X11800000D01*
X11781726Y5693198D01*
X11764698Y5686145D01*
X11750076Y5674925D01*
X10509928Y4434778D01*
X10498708Y4420155D01*
X10491655Y4403127D01*
X10489249Y4384853D01*
Y4169392D01*
X10240461Y3920604D01*
X9921584D01*
X9913930Y3939082D01*
X10394924Y4420075D01*
X10406145Y4434698D01*
X10413198Y4451726D01*
X10435244Y4465956D01*
X10438809Y4465000D01*
X10461190D01*
X10482809Y4470793D01*
X10502191Y4481983D01*
X10518017Y4497809D01*
X10529207Y4517191D01*
X10535000Y4538810D01*
Y4561191D01*
X10529207Y4582809D01*
X10525590Y4589075D01*
X11160925Y5224410D01*
X11167191Y5220793D01*
X11188809Y5215000D01*
X11211190D01*
X11232809Y5220793D01*
X11252191Y5231983D01*
X11268017Y5247809D01*
X11279207Y5267191D01*
X11285000Y5288810D01*
Y5311191D01*
X11279207Y5332809D01*
X11268017Y5352191D01*
X11252191Y5368017D01*
X11232809Y5379207D01*
X11211190Y5385000D01*
X11188809D01*
X11187886Y5384753D01*
X11177533Y5402684D01*
X11994724Y6219875D01*
X12005944Y6234498D01*
X12012998Y6251526D01*
X12015404Y6269800D01*
Y6390000D01*
X12047300D01*
Y6660000D01*
X12015404D01*
Y6790001D01*
X12047300D01*
Y7060000D01*
X11842300D01*
Y6790001D01*
X11874196D01*
Y6660000D01*
X11842300D01*
Y6390000D01*
X11874196D01*
Y6299045D01*
X11152684Y5577533D01*
X11134752Y5587885D01*
X11135000Y5588809D01*
Y5611190D01*
X11129207Y5632809D01*
X11118017Y5652191D01*
X11102191Y5668017D01*
X11082809Y5679207D01*
X11061190Y5685000D01*
X11038810D01*
X11017191Y5679207D01*
X10997809Y5668017D01*
X10981983Y5652191D01*
X10970793Y5632809D01*
X10965000Y5611190D01*
Y5588809D01*
X10970793Y5567191D01*
X10974410Y5560925D01*
X10264075Y4850590D01*
X10257809Y4854207D01*
X10236191Y4860000D01*
X10213810D01*
X10192191Y4854207D01*
X10172809Y4843017D01*
X10156983Y4827191D01*
X10145793Y4807809D01*
X10140000Y4786191D01*
Y4763810D01*
X10145793Y4742191D01*
X10156983Y4722809D01*
X10172809Y4706983D01*
X10192191Y4695793D01*
X10213810Y4690000D01*
X10236191D01*
X10257809Y4695793D01*
X10258413Y4696142D01*
X10265614Y4693060D01*
X10276145Y4683285D01*
X10274396Y4670000D01*
Y4499245D01*
X9795755Y4020604D01*
X9672710D01*
X9657809Y4029207D01*
X9636191Y4035000D01*
X9613810D01*
X9592191Y4029207D01*
X9572809Y4018017D01*
X9556983Y4002191D01*
X9545793Y3982809D01*
X9545694Y3982439D01*
X9523387Y3976462D01*
X9097132Y4402717D01*
X9082509Y4413937D01*
X9065481Y4420990D01*
X9047207Y4423396D01*
X7347391D01*
X7342963Y4428438D01*
X7336212Y4443396D01*
X7341777Y4456831D01*
Y4466310D01*
X7450467Y4575000D01*
X7459945D01*
X7478323Y4582612D01*
X7492388Y4596677D01*
X7492701Y4597434D01*
X7494396Y4597771D01*
X7505974Y4605507D01*
X7750467Y4850000D01*
X7759945D01*
X7778323Y4857612D01*
X7792388Y4871677D01*
X7793688Y4874816D01*
X7802205Y4880506D01*
X8046698Y5125000D01*
X8059946D01*
X8078323Y5132612D01*
X8092388Y5146677D01*
X8100000Y5165054D01*
Y5173305D01*
X8177903Y5251207D01*
X8698326D01*
X8811195Y5138338D01*
X8809439Y5125000D01*
Y5025000D01*
X8811673Y5008031D01*
X8818223Y4992220D01*
X8828641Y4978642D01*
X8842220Y4968223D01*
X8858031Y4961673D01*
X8875000Y4959439D01*
X8975000D01*
X8988338Y4961195D01*
X9389314Y4560218D01*
Y4310025D01*
X9382612Y4303323D01*
X9375000Y4284946D01*
Y4265054D01*
X9382612Y4246677D01*
X9396677Y4232612D01*
X9415054Y4225000D01*
X9434946D01*
X9453323Y4232612D01*
X9467388Y4246677D01*
X9475000Y4265054D01*
Y4284946D01*
X9467388Y4303323D01*
X9460686Y4310025D01*
Y4575000D01*
X9457969Y4588656D01*
X9450234Y4600234D01*
X9038805Y5011662D01*
X9040561Y5025000D01*
Y5125000D01*
X9038327Y5141969D01*
X9031777Y5157780D01*
X9021358Y5171358D01*
X9007780Y5181777D01*
X8991969Y5188327D01*
X8975000Y5190561D01*
X8875000D01*
X8861662Y5188805D01*
X8738341Y5312127D01*
X8726763Y5319862D01*
X8713107Y5322579D01*
X8163121D01*
X8149465Y5319862D01*
X8137887Y5312127D01*
X8050761Y5225000D01*
X8040055D01*
X8021677Y5217388D01*
X8007612Y5203323D01*
X8000000Y5184946D01*
Y5179237D01*
X7767595Y4946831D01*
X7759945Y4950000D01*
X7740054D01*
X7721677Y4942388D01*
X7707612Y4928323D01*
X7700000Y4909945D01*
Y4900467D01*
X7470260Y4670728D01*
X7459945Y4675000D01*
X7440054D01*
X7421677Y4667388D01*
X7407612Y4653323D01*
X7400000Y4634946D01*
Y4625468D01*
X7291309Y4516777D01*
X7281831D01*
X7263454Y4509165D01*
X7249389Y4495100D01*
X7241777Y4476723D01*
Y4456831D01*
X7247342Y4443396D01*
X7240591Y4428438D01*
X7236162Y4423396D01*
X6951453D01*
X6820071Y4554778D01*
X6823361Y4579772D01*
X6827191Y4581983D01*
X6840000Y4594792D01*
X6852809Y4581983D01*
X6872191Y4570793D01*
X6893809Y4565000D01*
X6916190D01*
X6937809Y4570793D01*
X6957191Y4581983D01*
X6973017Y4597809D01*
X6984207Y4617191D01*
X6990000Y4638810D01*
Y4661191D01*
X6984207Y4682809D01*
X6973017Y4702191D01*
X6957191Y4718017D01*
X6941968Y4726806D01*
X6941145Y4728794D01*
X6929924Y4743417D01*
X6470604Y5202738D01*
Y5975000D01*
X6468198Y5993274D01*
X6461145Y6010302D01*
X6449924Y6024925D01*
X5774925Y6699924D01*
X5760302Y6711145D01*
X5743274Y6718198D01*
X5725000Y6720604D01*
X5182700D01*
Y6785000D01*
X5150804D01*
Y6915000D01*
X5182700D01*
Y7179396D01*
X13170755D01*
X13270151Y7080000D01*
X13261867Y7060000D01*
X13252699D01*
Y6790000D01*
X13284596D01*
Y6660000D01*
X13252699D01*
Y6390000D01*
X13457700D01*
Y6660000D01*
X13425804D01*
Y6790000D01*
X13457700D01*
Y7039167D01*
X13477699Y7047451D01*
X13884596Y6640555D01*
Y6160000D01*
X13852699D01*
Y5890000D01*
X13884596D01*
Y5760000D01*
X13852699D01*
Y5490000D01*
X13889397D01*
Y5364245D01*
X13720755Y5195604D01*
X13457700D01*
Y5260000D01*
X13252699D01*
Y4990001D01*
X13284596D01*
Y4860000D01*
X13252699D01*
Y4590001D01*
X13457700D01*
Y4860000D01*
X13425804D01*
Y4990001D01*
X13457700D01*
Y5054397D01*
X13750000D01*
X13768274Y5056802D01*
X13785303Y5063856D01*
X13799925Y5075076D01*
X14009396Y5284547D01*
X14011505Y5284468D01*
X14029396Y5277598D01*
Y5212293D01*
X13905275Y5088172D01*
X13894055Y5073549D01*
X13887003Y5056521D01*
X13884596Y5038247D01*
Y3935000D01*
X13852699D01*
Y3665000D01*
X13884596D01*
Y3535000D01*
X13852699D01*
Y3265000D01*
X13889397D01*
Y3139245D01*
X13720755Y2970604D01*
X13457700D01*
Y3035000D01*
X13252699D01*
Y2765000D01*
X13284596D01*
Y2635000D01*
X13252699D01*
Y2365000D01*
X13457700D01*
Y2429396D01*
X13720755D01*
X13879396Y2270755D01*
Y2135000D01*
X13852699D01*
Y1865001D01*
X13884596D01*
Y1735000D01*
X13852699D01*
Y1465001D01*
X13889397D01*
Y1339245D01*
X13720755Y1170604D01*
X13457700D01*
Y1235000D01*
X13252699D01*
Y965001D01*
X13284596D01*
Y835000D01*
X13252699D01*
Y565001D01*
X13457700D01*
Y835000D01*
X13425804D01*
Y965001D01*
X13457700D01*
Y1029396D01*
X13750000D01*
X13768274Y1031802D01*
X13785303Y1038856D01*
X13799925Y1050076D01*
X14009924Y1260075D01*
X14021146Y1274698D01*
X14028198Y1291726D01*
X14030605Y1310000D01*
Y1465001D01*
X14057700D01*
Y1735000D01*
X14025804D01*
Y1865001D01*
X14057700D01*
Y2135000D01*
X14020604D01*
Y2300000D01*
X14018198Y2318273D01*
X14011145Y2335302D01*
X13999925Y2349924D01*
X13799924Y2549925D01*
X13785303Y2561145D01*
X13768272Y2568198D01*
X13750000Y2570604D01*
X13457700D01*
Y2635000D01*
X13425804D01*
Y2765000D01*
X13457700D01*
Y2829396D01*
X13750000D01*
X13768274Y2831802D01*
X13785303Y2838855D01*
X13799925Y2850076D01*
X14009924Y3060075D01*
X14021146Y3074698D01*
X14028198Y3091726D01*
X14030605Y3110000D01*
Y3265000D01*
X14057700D01*
Y3535000D01*
X14025804D01*
Y3665000D01*
X14057700D01*
Y3935000D01*
X14025804D01*
Y5009002D01*
X14149924Y5133123D01*
X14161145Y5147746D01*
X14168198Y5164774D01*
X14170604Y5183048D01*
Y6675000D01*
X14168198Y6693273D01*
X14161145Y6710302D01*
X14149924Y6724924D01*
X13374924Y7499925D01*
X13360303Y7511145D01*
X13343272Y7518198D01*
X13325000Y7520604D01*
X4604245D01*
X4382925Y7741924D01*
X4368302Y7753144D01*
X4351274Y7760198D01*
X4333000Y7762603D01*
X4081000D01*
Y7803500D01*
X3999999D01*
X3919000D01*
Y7762603D01*
X3681000D01*
Y7803500D01*
X3600001D01*
X3519000D01*
Y7762603D01*
X3042000D01*
X3023726Y7760198D01*
X3006698Y7753144D01*
X2992075Y7741924D01*
X2783812Y7533661D01*
X2767191Y7529207D01*
X2747809Y7518017D01*
X2731983Y7502191D01*
X2720793Y7482809D01*
X2715000Y7461191D01*
Y7438810D01*
X2720793Y7417191D01*
X2731983Y7397809D01*
X2747809Y7381983D01*
X2767191Y7370793D01*
X2788810Y7365000D01*
X2811190D01*
X2832809Y7370793D01*
X2852191Y7381983D01*
X2868017Y7397809D01*
X2879207Y7417191D01*
X2883661Y7433812D01*
X3071245Y7621396D01*
X3345415D01*
X3353069Y7602918D01*
X3283812Y7533661D01*
X3267191Y7529207D01*
X3247809Y7518017D01*
X3231983Y7502191D01*
X3220793Y7482809D01*
X3215000Y7461191D01*
Y7438810D01*
X3220793Y7417191D01*
X3231983Y7397809D01*
X3247809Y7381983D01*
X3267191Y7370793D01*
X3288810Y7365000D01*
X3311190D01*
X3332809Y7370793D01*
X3352191Y7381983D01*
X3368017Y7397809D01*
X3379207Y7417191D01*
X3383661Y7433812D01*
X3469000Y7519151D01*
X3489000Y7510867D01*
Y7391000D01*
X3711000D01*
Y7415896D01*
X3738896D01*
X3747809Y7406983D01*
X3767191Y7395793D01*
X3788810Y7390000D01*
X3811190D01*
X3832809Y7395793D01*
X3852191Y7406983D01*
X3861104Y7415896D01*
X3889000D01*
Y7391000D01*
X4111000D01*
Y7415896D01*
X4159255D01*
X4375076Y7200076D01*
X4389698Y7188855D01*
X4406727Y7181802D01*
X4425000Y7179396D01*
X4667300D01*
Y7120604D01*
X4082700D01*
Y7185000D01*
X3894287D01*
X3893198Y7193274D01*
X3886145Y7210302D01*
X3874924Y7224925D01*
X3824925Y7274924D01*
X3810302Y7286145D01*
X3793274Y7293198D01*
X3775000Y7295604D01*
X1554245D01*
X1383661Y7466188D01*
X1379207Y7482809D01*
X1378291Y7484396D01*
X1389838Y7504396D01*
X1645755D01*
X1716339Y7433812D01*
X1720793Y7417191D01*
X1731983Y7397809D01*
X1747809Y7381983D01*
X1767191Y7370793D01*
X1788809Y7365000D01*
X1811190D01*
X1832809Y7370793D01*
X1852191Y7381983D01*
X1868017Y7397809D01*
X1879207Y7417191D01*
X1885000Y7438810D01*
Y7461191D01*
X1879207Y7482809D01*
X1868017Y7502191D01*
X1852191Y7518017D01*
X1832809Y7529207D01*
X1816188Y7533661D01*
X1773931Y7575918D01*
X1781584Y7594396D01*
X2055755D01*
X2216339Y7433812D01*
X2220793Y7417191D01*
X2231983Y7397809D01*
X2247809Y7381983D01*
X2267191Y7370793D01*
X2288809Y7365000D01*
X2311190D01*
X2332809Y7370793D01*
X2352191Y7381983D01*
X2368017Y7397809D01*
X2379207Y7417191D01*
X2385000Y7438810D01*
Y7461191D01*
X2379207Y7482809D01*
X2368017Y7502191D01*
X2352191Y7518017D01*
X2332809Y7529207D01*
X2316188Y7533661D01*
X2134925Y7714924D01*
X2120302Y7726145D01*
X2103274Y7733198D01*
X2085000Y7735604D01*
X345000D01*
X326727Y7733198D01*
X309698Y7726145D01*
X295076Y7714924D01*
X70980Y7490828D01*
X50979Y7499112D01*
Y7949020D01*
X14200000Y7949021D01*
Y4900000D01*
D02*
G37*
G36*
X20514188Y2759396D02*
X20506982Y2752191D01*
X20495793Y2732809D01*
X20491339Y2716188D01*
X20420755Y2645604D01*
X19104245D01*
X18990453Y2759396D01*
X18998737Y2779396D01*
X20505904D01*
X20514188Y2759396D01*
D02*
G37*
G36*
X9429396Y3620755D02*
Y3429245D01*
X9375075Y3374924D01*
X9363855Y3360302D01*
X9356802Y3343273D01*
X9354396Y3325000D01*
Y3032478D01*
X9342191Y3029207D01*
X9322809Y3018017D01*
X9306983Y3002191D01*
X9295793Y2982809D01*
X9290000Y2961190D01*
Y2938809D01*
X9295793Y2917191D01*
X9306983Y2897809D01*
X9322809Y2881983D01*
X9340000Y2872058D01*
Y2863810D01*
X9345793Y2842191D01*
X9356983Y2822809D01*
X9372809Y2806983D01*
X9392191Y2795793D01*
X9408812Y2791339D01*
X9535796Y2664355D01*
X9526454Y2645412D01*
X9525000Y2645604D01*
X9347710D01*
X9332809Y2654207D01*
X9311190Y2660000D01*
X9288810D01*
X9280376Y2678446D01*
X9279207Y2682809D01*
X9268017Y2702191D01*
X9252191Y2718017D01*
X9232809Y2729207D01*
X9216188Y2733661D01*
X9149924Y2799925D01*
X9135302Y2811145D01*
X9118273Y2818198D01*
X9100000Y2820604D01*
X8854245D01*
X7826174Y3848675D01*
X7604067Y4070782D01*
X7611720Y4089260D01*
X8960891D01*
X9429396Y3620755D01*
D02*
G37*
%LPC*%
G36*
X25589999Y7310000D02*
X25539999D01*
Y7260000D01*
X25589999D01*
Y7310000D01*
D02*
G37*
G36*
X25481000Y7302000D02*
X25409999D01*
Y7246500D01*
X25481000D01*
Y7302000D01*
D02*
G37*
G36*
X25389999D02*
X25319000D01*
Y7246500D01*
X25389999D01*
Y7302000D01*
D02*
G37*
G36*
X25589999Y7240000D02*
X25539999D01*
Y7190000D01*
X25589999D01*
Y7240000D01*
D02*
G37*
G36*
X25481000Y7226500D02*
X25409999D01*
Y7171000D01*
X25481000D01*
Y7226500D01*
D02*
G37*
G36*
X25389999D02*
X25319000D01*
Y7171000D01*
X25389999D01*
Y7226500D01*
D02*
G37*
G36*
X17847301Y7060000D02*
X17642300D01*
Y6995604D01*
X17057700D01*
Y7060000D01*
X16852699D01*
Y6790000D01*
X17057700D01*
Y6854396D01*
X17642300D01*
Y6790000D01*
X17847301D01*
Y7060000D01*
D02*
G37*
G36*
X18997000Y7001000D02*
X18875999D01*
Y6960686D01*
X18799001D01*
Y7001000D01*
X18678000D01*
Y6849000D01*
X18799001D01*
Y6889314D01*
X18875999D01*
Y6849001D01*
X18997000D01*
Y7001000D01*
D02*
G37*
G36*
X17847301Y6660000D02*
X17642300D01*
Y6595604D01*
X17057700D01*
Y6660000D01*
X16852699D01*
Y6390000D01*
X17057700D01*
Y6454396D01*
X17642300D01*
Y6390000D01*
X17847301D01*
Y6660000D01*
D02*
G37*
G36*
X17247301Y6160000D02*
X17042300D01*
Y6095604D01*
X16457700D01*
Y6160000D01*
X16252699D01*
Y5890000D01*
X16457700D01*
Y5954396D01*
X17042300D01*
Y5890000D01*
X17247301D01*
Y6160000D01*
D02*
G37*
G36*
Y5760000D02*
X17042300D01*
Y5695604D01*
X16457700D01*
Y5760000D01*
X16252699D01*
Y5490000D01*
X16457700D01*
Y5554396D01*
X17042300D01*
Y5490000D01*
X17247301D01*
Y5760000D01*
D02*
G37*
G36*
X19884946Y6375000D02*
X19865054D01*
X19846677Y6367388D01*
X19832613Y6353323D01*
X19825000Y6334946D01*
Y6315054D01*
X19832613Y6296677D01*
X19846677Y6282612D01*
X19849510Y6281439D01*
Y5525000D01*
X19851451Y5515246D01*
X19856976Y5506976D01*
X19976173Y5387778D01*
X19975000Y5384946D01*
Y5365054D01*
X19982613Y5346677D01*
X19996677Y5332612D01*
X20015054Y5325000D01*
X20034946D01*
X20053323Y5332612D01*
X20067387Y5346677D01*
X20075000Y5365054D01*
Y5384946D01*
X20067387Y5403323D01*
X20053323Y5417388D01*
X20034946Y5425000D01*
X20015054D01*
X20012222Y5423826D01*
X19900490Y5535558D01*
Y6281439D01*
X19903323Y6282612D01*
X19917387Y6296677D01*
X19925000Y6315054D01*
Y6334946D01*
X19917387Y6353323D01*
X19903323Y6367388D01*
X19884946Y6375000D01*
D02*
G37*
G36*
X17847301Y5260000D02*
X17642300D01*
Y5195604D01*
X17057700D01*
Y5260000D01*
X16852699D01*
Y4990000D01*
X17057700D01*
Y5054396D01*
X17642300D01*
Y4990000D01*
X17847301D01*
Y5260000D01*
D02*
G37*
G36*
X20909946Y6375000D02*
X20890054D01*
X20871677Y6367388D01*
X20857613Y6353323D01*
X20850000Y6334946D01*
Y6315054D01*
X20857613Y6296677D01*
X20871677Y6282612D01*
X20874510Y6281439D01*
Y5810558D01*
X19989442Y4925490D01*
X19968562D01*
X19967387Y4928323D01*
X19953323Y4942388D01*
X19934946Y4950000D01*
X19915054D01*
X19913821Y4949489D01*
X19902492Y4966444D01*
X20643024Y5706976D01*
X20648549Y5715245D01*
X20650490Y5725000D01*
Y6181438D01*
X20653323Y6182612D01*
X20667387Y6196677D01*
X20675000Y6215054D01*
Y6234946D01*
X20667387Y6253323D01*
X20653323Y6267388D01*
X20634946Y6275000D01*
X20615054D01*
X20596677Y6267388D01*
X20582613Y6253323D01*
X20575000Y6234946D01*
Y6215054D01*
X20582613Y6196677D01*
X20596677Y6182612D01*
X20599510Y6181438D01*
Y5735558D01*
X20291444Y5427492D01*
X20274489Y5438821D01*
X20275000Y5440054D01*
Y5459946D01*
X20267387Y5478323D01*
X20253323Y5492388D01*
X20250490Y5493562D01*
Y6181438D01*
X20253323Y6182612D01*
X20267387Y6196677D01*
X20275000Y6215054D01*
Y6234946D01*
X20267387Y6253323D01*
X20253323Y6267388D01*
X20234946Y6275000D01*
X20215054D01*
X20196677Y6267388D01*
X20182613Y6253323D01*
X20175000Y6234946D01*
Y6215054D01*
X20182613Y6196677D01*
X20196677Y6182612D01*
X20199510Y6181438D01*
Y5493562D01*
X20196677Y5492388D01*
X20182613Y5478323D01*
X20175000Y5459946D01*
Y5440054D01*
X20182613Y5421677D01*
X20196677Y5407612D01*
X20215054Y5400000D01*
X20234946D01*
X20236179Y5400511D01*
X20247508Y5383556D01*
X19612779Y4748826D01*
X19609946Y4750000D01*
X19590054D01*
X19571677Y4742388D01*
X19557613Y4728323D01*
X19550000Y4709946D01*
Y4690054D01*
X19557613Y4671677D01*
X19571677Y4657612D01*
X19590054Y4650000D01*
X19609946D01*
X19628323Y4657612D01*
X19642387Y4671677D01*
X19650000Y4690054D01*
Y4709946D01*
X19648827Y4712779D01*
X19858556Y4922508D01*
X19875511Y4911179D01*
X19875000Y4909946D01*
Y4890054D01*
X19882613Y4871677D01*
X19896677Y4857612D01*
X19915054Y4850000D01*
X19934946D01*
X19953323Y4857612D01*
X19967387Y4871677D01*
X19968562Y4874510D01*
X20000000D01*
X20009755Y4876451D01*
X20018024Y4881976D01*
X20918024Y5781976D01*
X20923549Y5790245D01*
X20925490Y5800000D01*
Y6281439D01*
X20928323Y6282612D01*
X20942387Y6296677D01*
X20950000Y6315054D01*
Y6334946D01*
X20942387Y6353323D01*
X20928323Y6367388D01*
X20909946Y6375000D01*
D02*
G37*
G36*
X18786191Y4985000D02*
X18763811D01*
X18742191Y4979207D01*
X18722809Y4968017D01*
X18706982Y4952191D01*
X18695793Y4932809D01*
X18689999Y4911191D01*
Y4888810D01*
X18694965Y4870284D01*
X18688399Y4861601D01*
X18679716Y4855036D01*
X18661191Y4860000D01*
X18638811D01*
X18617191Y4854207D01*
X18597809Y4843017D01*
X18581982Y4827191D01*
X18570793Y4807809D01*
X18564999Y4786191D01*
Y4763810D01*
X18569965Y4745284D01*
X18563399Y4736601D01*
X18554716Y4730036D01*
X18536191Y4735000D01*
X18513811D01*
X18492191Y4729207D01*
X18472809Y4718017D01*
X18456982Y4702191D01*
X18445793Y4682809D01*
X18439999Y4661191D01*
Y4638810D01*
X18444965Y4620284D01*
X18438399Y4611601D01*
X18429716Y4605036D01*
X18411191Y4610000D01*
X18388811D01*
X18367191Y4604207D01*
X18347809Y4593017D01*
X18331982Y4577191D01*
X18320793Y4557809D01*
X18314999Y4536191D01*
Y4513810D01*
X18319965Y4495284D01*
X18313399Y4486601D01*
X18304716Y4480036D01*
X18286191Y4485000D01*
X18263811D01*
X18242191Y4479207D01*
X18222809Y4468017D01*
X18206982Y4452191D01*
X18195793Y4432809D01*
X18189999Y4411191D01*
Y4388810D01*
X18195793Y4367191D01*
X18206982Y4347809D01*
X18213824Y4340967D01*
Y3859032D01*
X18206982Y3852191D01*
X18195793Y3832809D01*
X18189999Y3811190D01*
Y3788810D01*
X18195793Y3767191D01*
X18206982Y3747809D01*
X18222809Y3731983D01*
X18242192Y3720793D01*
X18263811Y3715000D01*
X18286191D01*
X18307809Y3720793D01*
X18327191Y3731983D01*
X18343018Y3747809D01*
X18354208Y3767191D01*
X18360001Y3788810D01*
Y3803020D01*
X18375050Y3816300D01*
X18378979Y3817634D01*
X18388811Y3815000D01*
X18411191D01*
X18432809Y3820793D01*
X18452191Y3831983D01*
X18468018Y3847809D01*
X18479207Y3867191D01*
X18485001Y3888810D01*
Y3911191D01*
X18480035Y3929717D01*
X18486601Y3938399D01*
X18495284Y3944964D01*
X18513811Y3940000D01*
X18536191D01*
X18557809Y3945793D01*
X18577191Y3956983D01*
X18593018Y3972809D01*
X18604207Y3992191D01*
X18610001Y4013810D01*
Y4036191D01*
X18605035Y4054717D01*
X18611601Y4063399D01*
X18620284Y4069964D01*
X18638811Y4065000D01*
X18661191D01*
X18682809Y4070793D01*
X18702191Y4081983D01*
X18718018Y4097809D01*
X18729207Y4117191D01*
X18735001Y4138810D01*
Y4161191D01*
X18730035Y4179717D01*
X18736601Y4188399D01*
X18745284Y4194964D01*
X18763811Y4190000D01*
X18786191D01*
X18807809Y4195793D01*
X18827191Y4206983D01*
X18843018Y4222809D01*
X18854207Y4242191D01*
X18860001Y4263810D01*
Y4286191D01*
X18854207Y4307809D01*
X18843018Y4327191D01*
X18836530Y4333678D01*
Y4603274D01*
X18836176Y4605058D01*
Y4840967D01*
X18843018Y4847809D01*
X18854207Y4867191D01*
X18860001Y4888810D01*
Y4911191D01*
X18854207Y4932809D01*
X18843018Y4952191D01*
X18827191Y4968017D01*
X18807809Y4979207D01*
X18786191Y4985000D01*
D02*
G37*
G36*
X17847301Y4860000D02*
X17642300D01*
Y4795604D01*
X17057700D01*
Y4860000D01*
X16852699D01*
Y4590000D01*
X17057700D01*
Y4654396D01*
X17642300D01*
Y4590000D01*
X17847301D01*
Y4860000D01*
D02*
G37*
G36*
X17247301Y3935000D02*
X17042300D01*
Y3870604D01*
X16457700D01*
Y3935000D01*
X16252699D01*
Y3665000D01*
X16457700D01*
Y3729396D01*
X17042300D01*
Y3665000D01*
X17247301D01*
Y3935000D01*
D02*
G37*
G36*
X25522301Y3934999D02*
X25317300D01*
Y3867608D01*
X24732700D01*
Y3934999D01*
X24527699D01*
Y3665000D01*
X24732700D01*
Y3726401D01*
X25317300D01*
Y3665000D01*
X25522301D01*
Y3934999D01*
D02*
G37*
G36*
X17247301Y3535000D02*
X17042300D01*
Y3470604D01*
X16457700D01*
Y3535000D01*
X16252699D01*
Y3265000D01*
X16457700D01*
Y3329396D01*
X17042300D01*
Y3265000D01*
X17247301D01*
Y3535000D01*
D02*
G37*
G36*
X25522301Y3535000D02*
X25317300D01*
Y3467609D01*
X24732700D01*
Y3535000D01*
X24527699D01*
Y3265000D01*
X24732700D01*
Y3326401D01*
X25317300D01*
Y3265000D01*
X25522301D01*
Y3535000D01*
D02*
G37*
G36*
X26122299Y3035000D02*
X25917300D01*
Y2970604D01*
X25332700D01*
Y3035000D01*
X25127699D01*
Y2765001D01*
X25332700D01*
Y2829397D01*
X25917300D01*
Y2765001D01*
X26122299D01*
Y3035000D01*
D02*
G37*
G36*
X17847301Y3035000D02*
X17642300D01*
Y2970604D01*
X17057700D01*
Y3035000D01*
X16852699D01*
Y2765000D01*
X17057700D01*
Y2829396D01*
X17642300D01*
Y2765000D01*
X17847301D01*
Y3035000D01*
D02*
G37*
G36*
X26122299Y2635000D02*
X25917300D01*
Y2570604D01*
X25332700D01*
Y2635000D01*
X25127699D01*
Y2365001D01*
X25332700D01*
Y2429397D01*
X25917300D01*
Y2365001D01*
X26122299D01*
Y2635000D01*
D02*
G37*
G36*
X17847301Y2635000D02*
X17642300D01*
Y2570604D01*
X17057700D01*
Y2635000D01*
X16852699D01*
Y2365000D01*
X17057700D01*
Y2429396D01*
X17642300D01*
Y2365000D01*
X17847301D01*
Y2635000D01*
D02*
G37*
G36*
X25522301Y2135000D02*
X25317300D01*
Y2070604D01*
X24732700D01*
Y2135000D01*
X24527699D01*
Y1865000D01*
X24732700D01*
Y1929396D01*
X25317300D01*
Y1865000D01*
X25522301D01*
Y2135000D01*
D02*
G37*
G36*
X17247301D02*
X17042300D01*
Y2070604D01*
X16457700D01*
Y2135000D01*
X16252699D01*
Y1865000D01*
X16457700D01*
Y1929396D01*
X17042300D01*
Y1865000D01*
X17247301D01*
Y2135000D01*
D02*
G37*
G36*
X25522301Y1735000D02*
X25317300D01*
Y1670604D01*
X24732700D01*
Y1735000D01*
X24527699D01*
Y1465000D01*
X24732700D01*
Y1529396D01*
X25317300D01*
Y1465000D01*
X25522301D01*
Y1735000D01*
D02*
G37*
G36*
X17247301D02*
X17042300D01*
Y1670604D01*
X16457700D01*
Y1735000D01*
X16252699D01*
Y1465000D01*
X16457700D01*
Y1529396D01*
X17042300D01*
Y1465000D01*
X17247301D01*
Y1735000D01*
D02*
G37*
G36*
X26122299Y1235000D02*
X25917300D01*
Y1170604D01*
X25332700D01*
Y1235000D01*
X25127699D01*
Y965001D01*
X25332700D01*
Y1029397D01*
X25917300D01*
Y965001D01*
X26122299D01*
Y1235000D01*
D02*
G37*
G36*
X17847301Y1235000D02*
X17642300D01*
Y1170604D01*
X17057700D01*
Y1235000D01*
X16852699D01*
Y965001D01*
X17057700D01*
Y1029396D01*
X17642300D01*
Y965001D01*
X17847301D01*
Y1235000D01*
D02*
G37*
G36*
X21175000Y1270604D02*
X21135001D01*
Y1159999D01*
X21245604D01*
Y1200000D01*
X21243198Y1218274D01*
X21236145Y1235302D01*
X21224925Y1249925D01*
X21210303Y1261145D01*
X21193274Y1268198D01*
X21175000Y1270604D01*
D02*
G37*
G36*
X21115001D02*
X21075000D01*
X21056726Y1268198D01*
X21039697Y1261145D01*
X21025075Y1249925D01*
X21013855Y1235302D01*
X21006802Y1218274D01*
X21004396Y1200000D01*
Y1159999D01*
X21115001D01*
Y1270604D01*
D02*
G37*
G36*
X21245604Y1139999D02*
X21135001D01*
Y1029396D01*
X21175000D01*
X21193274Y1031802D01*
X21210303Y1038855D01*
X21224925Y1050075D01*
X21236145Y1064698D01*
X21243198Y1081726D01*
X21245604Y1100000D01*
Y1139999D01*
D02*
G37*
G36*
X21115001D02*
X21004396D01*
Y1100000D01*
X21006802Y1081726D01*
X21013855Y1064698D01*
X21025075Y1050075D01*
X21039697Y1038855D01*
X21056726Y1031802D01*
X21075000Y1029396D01*
X21115001D01*
Y1139999D01*
D02*
G37*
G36*
X26122299Y835000D02*
X25917300D01*
Y770605D01*
X25332700D01*
Y835000D01*
X25127699D01*
Y565001D01*
X25332700D01*
Y629397D01*
X25917300D01*
Y565001D01*
X26122299D01*
Y835000D01*
D02*
G37*
G36*
X17847301Y835000D02*
X17642300D01*
Y770604D01*
X17057700D01*
Y835000D01*
X16852699D01*
Y565001D01*
X17057700D01*
Y629397D01*
X17642300D01*
Y565001D01*
X17847301D01*
Y835000D01*
D02*
G37*
G36*
X1181000Y6277000D02*
X1110000D01*
Y6221500D01*
X1181000D01*
Y6277000D01*
D02*
G37*
G36*
X5472300Y5885000D02*
X5267300D01*
Y5820604D01*
X4682700D01*
Y5885000D01*
X4477700D01*
Y5615000D01*
X4682700D01*
Y5679396D01*
X5267300D01*
Y5615000D01*
X5472300D01*
Y5885000D01*
D02*
G37*
G36*
X4872300Y5385000D02*
X4667300D01*
Y5320604D01*
X4082700D01*
Y5385000D01*
X3877700D01*
Y5115000D01*
X4082700D01*
Y5179396D01*
X4667300D01*
Y5115000D01*
X4872300D01*
Y5385000D01*
D02*
G37*
G36*
X29281000Y7904000D02*
X29209998D01*
Y7848502D01*
X29281000D01*
Y7904000D01*
D02*
G37*
G36*
X29189999D02*
X29119000D01*
Y7848502D01*
X29189999D01*
Y7904000D01*
D02*
G37*
G36*
X29031000D02*
X28960001D01*
Y7848501D01*
X29031000D01*
Y7904000D01*
D02*
G37*
G36*
X28940002D02*
X28869000D01*
Y7848501D01*
X28940002D01*
Y7904000D01*
D02*
G37*
G36*
X25522301Y5760000D02*
X25317300D01*
Y5695604D01*
X24732700D01*
Y5759999D01*
X24527699D01*
Y5490000D01*
X24732700D01*
Y5554396D01*
X25317300D01*
Y5490000D01*
X25522301D01*
Y5760000D01*
D02*
G37*
G36*
X26122299Y5260000D02*
X25917300D01*
Y5195604D01*
X25332700D01*
Y5260000D01*
X25127699D01*
Y4990000D01*
X25332700D01*
Y5054396D01*
X25917300D01*
Y4990000D01*
X26122299D01*
Y5260000D01*
D02*
G37*
G36*
X450000Y4850863D02*
X350000D01*
X323895Y4847426D01*
X299569Y4837350D01*
X278679Y4821321D01*
X262650Y4800431D01*
X252574Y4776105D01*
X249137Y4750000D01*
Y4650000D01*
X252574Y4623895D01*
X262650Y4599569D01*
X278679Y4578679D01*
X299569Y4562650D01*
X323895Y4552574D01*
X350000Y4549137D01*
X450000D01*
X476105Y4552574D01*
X500431Y4562650D01*
X521321Y4578679D01*
X537350Y4599569D01*
X547426Y4623895D01*
X550863Y4650000D01*
Y4750000D01*
X547426Y4776105D01*
X537350Y4800431D01*
X521321Y4821321D01*
X500431Y4837350D01*
X476105Y4847426D01*
X450000Y4850863D01*
D02*
G37*
G36*
X4081000Y7879000D02*
X4009999D01*
Y7823500D01*
X4081000D01*
Y7879000D01*
D02*
G37*
G36*
X3989999D02*
X3919000D01*
Y7823500D01*
X3989999D01*
Y7879000D01*
D02*
G37*
G36*
X3681000D02*
X3610001D01*
Y7823500D01*
X3681000D01*
Y7879000D01*
D02*
G37*
G36*
X3590001D02*
X3519000D01*
Y7823500D01*
X3590001D01*
Y7879000D01*
D02*
G37*
G36*
X12357700Y7060000D02*
X12152700D01*
Y6790001D01*
X12357700D01*
Y6854397D01*
X12942300D01*
Y6790000D01*
X13147301D01*
Y7060000D01*
X12942300D01*
Y6995604D01*
X12357700D01*
Y7060000D01*
D02*
G37*
G36*
X13147301Y6660000D02*
X12942300D01*
Y6595604D01*
X12357700D01*
Y6660000D01*
X12152700D01*
Y6390000D01*
X12357700D01*
Y6454396D01*
X12942300D01*
Y6390000D01*
X13147301D01*
Y6660000D01*
D02*
G37*
G36*
X13747301Y6160000D02*
X13542300D01*
Y6095604D01*
X12957700D01*
Y6160000D01*
X12752700D01*
Y5890000D01*
X12957700D01*
Y5954396D01*
X13542300D01*
Y5890000D01*
X13747301D01*
Y6160000D01*
D02*
G37*
G36*
Y5760000D02*
X13542300D01*
Y5695604D01*
X12957700D01*
Y5760000D01*
X12752700D01*
Y5490000D01*
X12957700D01*
Y5554396D01*
X13542300D01*
Y5490000D01*
X13747301D01*
Y5760000D01*
D02*
G37*
G36*
X13147301Y5260000D02*
X12942300D01*
Y5195604D01*
X12357700D01*
Y5260000D01*
X12152700D01*
Y4990001D01*
X12357700D01*
Y5054397D01*
X12942300D01*
Y4990001D01*
X13147301D01*
Y5260000D01*
D02*
G37*
G36*
X7834946Y6200000D02*
X7815054D01*
X7796677Y6192388D01*
X7782612Y6178323D01*
X7775000Y6159946D01*
Y6140054D01*
X7782612Y6121677D01*
X7796677Y6107612D01*
X7799510Y6106438D01*
Y5193562D01*
X7796677Y5192388D01*
X7782612Y5178323D01*
X7775000Y5159946D01*
Y5140054D01*
X7782612Y5121677D01*
X7796677Y5107612D01*
X7815054Y5100000D01*
X7834946D01*
X7853323Y5107612D01*
X7867388Y5121677D01*
X7875000Y5140054D01*
Y5159946D01*
X7867388Y5178323D01*
X7853323Y5192388D01*
X7850490Y5193562D01*
Y6106438D01*
X7853323Y6107612D01*
X7867388Y6121677D01*
X7875000Y6140054D01*
Y6159946D01*
X7867388Y6178323D01*
X7853323Y6192388D01*
X7834946Y6200000D01*
D02*
G37*
G36*
X7684946D02*
X7665054D01*
X7646677Y6192388D01*
X7632612Y6178323D01*
X7625000Y6159946D01*
Y6140054D01*
X7632612Y6121677D01*
X7646677Y6107612D01*
X7649510Y6106438D01*
Y5193562D01*
X7646677Y5192388D01*
X7632612Y5178323D01*
X7625000Y5159946D01*
Y5140054D01*
X7632612Y5121677D01*
X7646677Y5107612D01*
X7665054Y5100000D01*
X7684946D01*
X7703323Y5107612D01*
X7717388Y5121677D01*
X7725000Y5140054D01*
Y5159946D01*
X7717388Y5178323D01*
X7703323Y5192388D01*
X7700490Y5193562D01*
Y6106438D01*
X7703323Y6107612D01*
X7717388Y6121677D01*
X7725000Y6140054D01*
Y6159946D01*
X7717388Y6178323D01*
X7703323Y6192388D01*
X7684946Y6200000D01*
D02*
G37*
G36*
X7534946D02*
X7515054D01*
X7496677Y6192388D01*
X7482612Y6178323D01*
X7475000Y6159946D01*
Y6140054D01*
X7482612Y6121677D01*
X7496677Y6107612D01*
X7499510Y6106438D01*
Y5193562D01*
X7496677Y5192388D01*
X7482612Y5178323D01*
X7475000Y5159946D01*
Y5140054D01*
X7482612Y5121677D01*
X7496677Y5107612D01*
X7515054Y5100000D01*
X7534946D01*
X7553323Y5107612D01*
X7567388Y5121677D01*
X7575000Y5140054D01*
Y5159946D01*
X7567388Y5178323D01*
X7553323Y5192388D01*
X7550490Y5193562D01*
Y6106438D01*
X7553323Y6107612D01*
X7567388Y6121677D01*
X7575000Y6140054D01*
Y6159946D01*
X7567388Y6178323D01*
X7553323Y6192388D01*
X7534946Y6200000D01*
D02*
G37*
G36*
X7384946D02*
X7365054D01*
X7346677Y6192388D01*
X7332612Y6178323D01*
X7325000Y6159946D01*
Y6140054D01*
X7332612Y6121677D01*
X7346677Y6107612D01*
X7349510Y6106438D01*
Y5193562D01*
X7346677Y5192388D01*
X7332612Y5178323D01*
X7325000Y5159946D01*
Y5140054D01*
X7332612Y5121677D01*
X7346677Y5107612D01*
X7365054Y5100000D01*
X7384946D01*
X7403323Y5107612D01*
X7417388Y5121677D01*
X7425000Y5140054D01*
Y5159946D01*
X7417388Y5178323D01*
X7403323Y5192388D01*
X7400490Y5193562D01*
Y6106438D01*
X7403323Y6107612D01*
X7417388Y6121677D01*
X7425000Y6140054D01*
Y6159946D01*
X7417388Y6178323D01*
X7403323Y6192388D01*
X7384946Y6200000D01*
D02*
G37*
G36*
X13147301Y4860000D02*
X12942300D01*
Y4795604D01*
X12357700D01*
Y4860000D01*
X12152700D01*
Y4590001D01*
X12357700D01*
Y4654396D01*
X12942300D01*
Y4590001D01*
X13147301D01*
Y4860000D01*
D02*
G37*
G36*
X11736190Y4585000D02*
X11713809D01*
X11692191Y4579207D01*
X11672809Y4568017D01*
X11662770Y4557978D01*
X11650000Y4554237D01*
X11637230Y4557978D01*
X11627191Y4568017D01*
X11607809Y4579207D01*
X11586190Y4585000D01*
X11563809D01*
X11542191Y4579207D01*
X11522809Y4568017D01*
X11506983Y4552191D01*
X11495793Y4532809D01*
X11490000Y4511190D01*
Y4488809D01*
X11495793Y4467191D01*
X11502153Y4456175D01*
X11491791Y4436175D01*
X11359033D01*
X11352191Y4443017D01*
X11332809Y4454207D01*
X11311190Y4460000D01*
X11288810D01*
X11267191Y4454207D01*
X11247809Y4443017D01*
X11231983Y4427191D01*
X11220793Y4407809D01*
X11215000Y4386190D01*
Y4363809D01*
X11220793Y4342191D01*
X11231983Y4322809D01*
X11247809Y4306983D01*
X11267191Y4295793D01*
X11288810Y4290000D01*
X11311190D01*
X11321021Y4292634D01*
X11324949Y4291301D01*
X11340000Y4278020D01*
Y4263810D01*
X11345793Y4242191D01*
X11356983Y4222809D01*
X11372809Y4206983D01*
X11392191Y4195793D01*
X11413810Y4190000D01*
X11420862D01*
X11436823Y4186823D01*
X11440000Y4170862D01*
Y4163810D01*
X11445793Y4142191D01*
X11456983Y4122809D01*
X11463825Y4115967D01*
Y3838870D01*
X11456743Y3831788D01*
X11443481Y3811941D01*
X11438825Y3788530D01*
Y3659033D01*
X11431983Y3652191D01*
X11420793Y3632809D01*
X11415000Y3611190D01*
Y3588809D01*
X11420793Y3567191D01*
X11431983Y3547809D01*
X11447809Y3531983D01*
X11467191Y3520793D01*
X11488810Y3515000D01*
X11511191D01*
X11532809Y3520793D01*
X11552191Y3531983D01*
X11562164Y3541956D01*
X11576961Y3527159D01*
X11596344Y3515969D01*
X11617962Y3510176D01*
X11640343D01*
X11661961Y3515969D01*
X11681343Y3527159D01*
X11691988Y3537804D01*
X11697809Y3531983D01*
X11717191Y3520793D01*
X11738810Y3515000D01*
X11761191D01*
X11782809Y3520793D01*
X11802191Y3531983D01*
X11818017Y3547809D01*
X11829207Y3567191D01*
X11835000Y3588809D01*
Y3595861D01*
X11838177Y3611823D01*
X11854139Y3615000D01*
X11861190D01*
X11882809Y3620793D01*
X11902191Y3631983D01*
X11918017Y3647809D01*
X11929207Y3667191D01*
X11935000Y3688809D01*
Y3703020D01*
X11950051Y3716300D01*
X11953979Y3717634D01*
X11963809Y3715000D01*
X11986190D01*
X12007809Y3720793D01*
X12027191Y3731983D01*
X12043017Y3747809D01*
X12054207Y3767191D01*
X12060000Y3788810D01*
Y3811190D01*
X12054207Y3832809D01*
X12043017Y3852191D01*
X12036175Y3859033D01*
Y4250000D01*
X12031519Y4273411D01*
X12018258Y4293257D01*
X11810000Y4501515D01*
Y4511190D01*
X11804207Y4532809D01*
X11793017Y4552191D01*
X11777191Y4568017D01*
X11757809Y4579207D01*
X11736190Y4585000D01*
D02*
G37*
G36*
X13747301Y3935000D02*
X13542300D01*
Y3870604D01*
X12957700D01*
Y3935000D01*
X12752700D01*
Y3665000D01*
X12957700D01*
Y3729396D01*
X13542300D01*
Y3665000D01*
X13747301D01*
Y3935000D01*
D02*
G37*
G36*
Y3535000D02*
X13542300D01*
Y3470604D01*
X12957700D01*
Y3535000D01*
X12752700D01*
Y3265000D01*
X12957700D01*
Y3329396D01*
X13542300D01*
Y3265000D01*
X13747301D01*
Y3535000D01*
D02*
G37*
G36*
X5472300D02*
X5267300D01*
Y3470604D01*
X4682700D01*
Y3535000D01*
X4477700D01*
Y3265000D01*
X4682700D01*
Y3329396D01*
X5267300D01*
Y3265000D01*
X5472300D01*
Y3535000D01*
D02*
G37*
G36*
X4872300Y3035000D02*
X4667300D01*
Y2970604D01*
X4082700D01*
Y3035000D01*
X3877700D01*
Y2765000D01*
X4082700D01*
Y2829396D01*
X4667300D01*
Y2765000D01*
X4872300D01*
Y3035000D01*
D02*
G37*
G36*
X12357700Y3035000D02*
X12152700D01*
Y2765001D01*
X12357700D01*
Y2829396D01*
X12942300D01*
Y2765000D01*
X13147301D01*
Y3035000D01*
X12942300D01*
Y2970604D01*
X12357700D01*
Y3035000D01*
D02*
G37*
G36*
X4872300Y2635000D02*
X4667300D01*
Y2570604D01*
X4082700D01*
Y2635000D01*
X3877700D01*
Y2365000D01*
X4082700D01*
Y2429396D01*
X4667300D01*
Y2365000D01*
X4872300D01*
Y2635000D01*
D02*
G37*
G36*
X12357700Y2635000D02*
X12152700D01*
Y2365001D01*
X12357700D01*
Y2429396D01*
X12942300D01*
Y2365000D01*
X13147301D01*
Y2635000D01*
X12942300D01*
Y2570604D01*
X12357700D01*
Y2635000D01*
D02*
G37*
G36*
X13747301Y2135000D02*
X13542300D01*
Y2070604D01*
X12957700D01*
Y2135000D01*
X12752700D01*
Y1865001D01*
X12957700D01*
Y1929397D01*
X13542300D01*
Y1865001D01*
X13747301D01*
Y2135000D01*
D02*
G37*
G36*
X5472300Y2135000D02*
X5267300D01*
Y2070604D01*
X4682700D01*
Y2135000D01*
X4477700D01*
Y1865000D01*
X4682700D01*
Y1929396D01*
X5267300D01*
Y1865000D01*
X5472300D01*
Y2135000D01*
D02*
G37*
G36*
X13747301Y1735000D02*
X13542300D01*
Y1670604D01*
X12957700D01*
Y1735000D01*
X12752700D01*
Y1465000D01*
X12957700D01*
Y1529396D01*
X13542300D01*
Y1465000D01*
X13747301D01*
Y1735000D01*
D02*
G37*
G36*
X5472300D02*
X5267300D01*
Y1670604D01*
X4682700D01*
Y1735000D01*
X4477700D01*
Y1465000D01*
X4682700D01*
Y1529396D01*
X5267300D01*
Y1465000D01*
X5472300D01*
Y1735000D01*
D02*
G37*
G36*
X13147301Y1235000D02*
X12942300D01*
Y1170604D01*
X12357700D01*
Y1235000D01*
X12152700D01*
Y965001D01*
X12357700D01*
Y1029396D01*
X12942300D01*
Y965001D01*
X13147301D01*
Y1235000D01*
D02*
G37*
G36*
X4872300Y1235000D02*
X4667300D01*
Y1170604D01*
X4082700D01*
Y1235000D01*
X3877700D01*
Y965000D01*
X4082700D01*
Y1029396D01*
X4667300D01*
Y965000D01*
X4872300D01*
Y1235000D01*
D02*
G37*
G36*
X8850000Y1120604D02*
X8810000D01*
Y1010000D01*
X8920604D01*
Y1050000D01*
X8918198Y1068274D01*
X8911145Y1085302D01*
X8899925Y1099925D01*
X8885302Y1111145D01*
X8868274Y1118198D01*
X8850000Y1120604D01*
D02*
G37*
G36*
X8790000D02*
X8750000D01*
X8731726Y1118198D01*
X8714698Y1111145D01*
X8700075Y1099925D01*
X8688855Y1085302D01*
X8681802Y1068274D01*
X8679396Y1050000D01*
Y1010000D01*
X8790000D01*
Y1120604D01*
D02*
G37*
G36*
X8920604Y990000D02*
X8810000D01*
Y879396D01*
X8850000D01*
X8868274Y881802D01*
X8885302Y888855D01*
X8899925Y900075D01*
X8911145Y914698D01*
X8918198Y931726D01*
X8920604Y950000D01*
Y990000D01*
D02*
G37*
G36*
X8790000D02*
X8679396D01*
Y950000D01*
X8681802Y931726D01*
X8688855Y914698D01*
X8700075Y900075D01*
X8714698Y888855D01*
X8731726Y881802D01*
X8750000Y879396D01*
X8790000D01*
Y990000D01*
D02*
G37*
G36*
X4872300Y835000D02*
X4667300D01*
Y770604D01*
X4082700D01*
Y835000D01*
X3877700D01*
Y565000D01*
X4082700D01*
Y629396D01*
X4667300D01*
Y565000D01*
X4872300D01*
Y835000D01*
D02*
G37*
G36*
X12357700Y835000D02*
X12152700D01*
Y565001D01*
X12357700D01*
Y629396D01*
X12942300D01*
Y565001D01*
X13147301D01*
Y835000D01*
X12942300D01*
Y770604D01*
X12357700D01*
Y835000D01*
D02*
G37*
%LPD*%
D23*
X27950000Y5492425D02*
D03*
Y5657825D02*
D03*
X28200000Y5492300D02*
D03*
Y5657700D02*
D03*
X28375000Y5492300D02*
D03*
Y5657700D02*
D03*
X28550000Y5492300D02*
D03*
Y5657700D02*
D03*
X27450000Y5692300D02*
D03*
Y5857700D02*
D03*
X3225000Y5692300D02*
D03*
X3000000D02*
D03*
X2775000D02*
D03*
X1300000D02*
D03*
X2025000D02*
D03*
X2550000D02*
D03*
X1575000Y5692300D02*
D03*
X2775000Y5857700D02*
D03*
X3225000D02*
D03*
X2550000D02*
D03*
X1300000D02*
D03*
X1575000Y5857700D02*
D03*
X2025000Y5857700D02*
D03*
X3000000D02*
D03*
D35*
X26775000Y7236500D02*
D03*
Y7563500D02*
D03*
X26375000Y7236500D02*
D03*
Y7563500D02*
D03*
X25400000Y7236500D02*
D03*
Y7563500D02*
D03*
X28950000Y7511500D02*
D03*
Y7838500D02*
D03*
X29200000Y7511500D02*
D03*
Y7838500D02*
D03*
X2300000Y6538500D02*
D03*
Y6211500D02*
D03*
X2000000Y6538500D02*
D03*
Y6211500D02*
D03*
X1700000Y6538500D02*
D03*
Y6211500D02*
D03*
X1100000Y6538500D02*
D03*
Y6211500D02*
D03*
X4000000Y7486500D02*
D03*
Y7813500D02*
D03*
X3600000D02*
D03*
Y7486500D02*
D03*
D36*
X26957700Y6300000D02*
D03*
X26792300D02*
D03*
X26292300D02*
D03*
X26457700D02*
D03*
D37*
X26500000Y3475000D02*
X26675000Y3650000D01*
Y4075000D01*
X20900000Y5800000D02*
Y6325000D01*
X20000000Y4900000D02*
X20900000Y5800000D01*
X19925000Y4900000D02*
X20000000D01*
X20225000Y5450000D02*
Y6225000D01*
X3125000Y3032194D02*
Y3700000D01*
X2985467Y2892661D02*
X3125000Y3032194D01*
X3248639Y2986923D02*
Y3701007D01*
X3061716Y2800000D02*
X3248639Y2986923D01*
X10675000Y4325000D02*
X11375000Y5025000D01*
X10450000Y4600000D02*
X11150000Y5300000D01*
X11200000D01*
X10450000Y4550000D02*
Y4600000D01*
X10275000Y4775000D02*
X11050000Y5550000D01*
X10225000Y4775000D02*
X10275000D01*
X11050000Y5550000D02*
Y5600000D01*
X27000000Y3052908D02*
Y4400000D01*
X26909064Y2961974D02*
X27000000Y3052908D01*
X27095001Y2979886D02*
Y4519999D01*
X27004999Y2889886D02*
X27095001Y2979886D01*
X27100000Y2816571D02*
X27175000Y2891572D01*
X27084567Y4530433D02*
X27095001Y4519999D01*
X27175000Y2891572D02*
Y4775000D01*
X26875000Y3102911D02*
Y4275000D01*
X26822031Y3049944D02*
X26875000Y3102911D01*
X26775000Y3175000D02*
Y4150000D01*
X26725000Y3125000D02*
X26775000Y3175000D01*
X26822031Y3044589D02*
Y3049944D01*
X3325000Y2875000D02*
Y3644492D01*
X3369999Y3689491D01*
X3150000Y2700000D02*
X3325000Y2875000D01*
X3425000Y2800000D02*
Y3621000D01*
X3500000Y3696000D01*
X3225000Y2600000D02*
X3425000Y2800000D01*
X3369999Y3689491D02*
Y3700350D01*
X3525000Y3525000D02*
X3625000Y3625000D01*
X3525000Y2715000D02*
Y3525000D01*
X3625000Y3625000D02*
Y3700000D01*
X3500000Y3696000D02*
Y3700000D01*
X18775356Y4275355D02*
Y4603274D01*
X18525000Y4025000D02*
Y4650000D01*
X18650000Y4150000D02*
Y4775000D01*
X18775000Y4603629D02*
Y4900000D01*
Y4603629D02*
X18775356Y4603274D01*
X18275000Y3800000D02*
X18275000Y3800000D01*
X18275000Y3800000D02*
Y4400000D01*
X18400000Y3900000D02*
Y4525000D01*
X19875000Y5525000D02*
Y6325000D01*
X19600000Y4700000D02*
X20625000Y5725000D01*
Y6225000D01*
X19875000Y5525000D02*
X20025000Y5375000D01*
X27075000Y4575000D02*
X27084567Y4565433D01*
Y4530433D02*
Y4565433D01*
X18775000Y4275000D02*
X18775356Y4275355D01*
X26557367Y3725681D02*
Y4000000D01*
X26439999Y3805000D02*
Y3975000D01*
X26401685Y3570000D02*
X26557367Y3725681D01*
X26300000Y3665000D02*
X26439999Y3805000D01*
X7675000Y5150000D02*
Y6150000D01*
X7825000Y5150000D02*
Y6150000D01*
X7525000Y5150000D02*
Y6150000D01*
X7375000Y5150000D02*
Y6150000D01*
X11525000Y3813530D02*
Y4175000D01*
X11850000Y3700000D02*
Y4225000D01*
X11975000Y3800000D02*
Y4250000D01*
X11725000Y4500000D02*
X11975000Y4250000D01*
X11575000Y4500000D02*
X11850000Y4225000D01*
X11600000Y4375000D02*
X11750000Y4225000D01*
Y3600000D02*
Y4225000D01*
X11575000Y4275000D02*
X11625000Y4225000D01*
Y3599328D02*
Y4225000D01*
Y3599328D02*
X11629152Y3595176D01*
X11300000Y4375000D02*
X11600000D01*
X11500000Y3600000D02*
Y3788530D01*
X11525000Y3813530D01*
X11425000Y4275000D02*
X11575000D01*
X3400000Y2590000D02*
X3525000Y2715000D01*
D38*
X19650000Y3525000D02*
X20000000Y3175000D01*
X19650000Y3525000D02*
Y3825000D01*
X19350000D02*
X19650000D01*
X19263499Y3911500D02*
X19350000Y3825000D01*
X25400000Y7563500D02*
X26375000D01*
X19263499Y3911500D02*
Y5950000D01*
X1910005Y6327000D02*
X3613500D01*
X3620500Y6334000D01*
X3636000D02*
X3661500Y6359500D01*
Y6375000D01*
X3620500Y6334000D02*
X3636000D01*
X1908005Y6325000D02*
X1910005Y6327000D01*
X1728000Y6325000D02*
X1908005D01*
X1700000Y6297000D02*
X1728000Y6325000D01*
X22600000Y3225000D02*
X22950000Y3575000D01*
X22425000Y3225000D02*
X22600000D01*
X22700000Y3100000D02*
X22745792Y3145793D01*
X24245793D01*
X22175000Y3100000D02*
X22700000D01*
X22950000Y3575000D02*
Y3750000D01*
X23395000Y4195000D01*
X21925000Y2902500D02*
Y3022721D01*
X23292281Y4390001D01*
X23075000Y1600000D02*
X24319800D01*
X22358536Y2316464D02*
Y2375061D01*
X22121066Y2612530D02*
X22358536Y2375061D01*
X21825000Y2850000D02*
X21848750Y2826250D01*
X22062469Y2612530D01*
X22121066D01*
X22358536Y2316464D02*
X23075000Y1600000D01*
X21825000Y2850000D02*
Y2900000D01*
X22023750Y2851251D02*
Y2966900D01*
X22020711Y2969939D02*
X22023750Y2966900D01*
X22255771Y3205771D02*
X23350000Y4300000D01*
X22255771Y3205000D02*
Y3205771D01*
X22200000Y3875000D02*
X22205000D01*
X22350000D01*
X22086540Y3993460D02*
Y4061540D01*
X23650000Y5625000D01*
X22086540Y3886540D02*
Y3993460D01*
X21975000Y3775000D02*
X22086540Y3886540D01*
X21988860Y3942006D02*
Y4091140D01*
Y3942006D02*
X21990433Y3940433D01*
X19025000Y3850000D02*
Y5025000D01*
X18425000Y5625000D02*
X19025000Y5025000D01*
Y3850000D02*
X19900000Y2975000D01*
X27450000Y5692300D02*
X27517300D01*
X27950000Y6125000D01*
X29247720D01*
X28725000Y5200000D02*
Y5625000D01*
X28804999Y5705000D01*
Y5870000D01*
X28750000Y5925000D02*
X28804999Y5870000D01*
X28224850Y5925000D02*
X28750000D01*
X28425000Y4900000D02*
X28725000Y5200000D01*
X27500000Y4900000D02*
X28425000D01*
X27279999Y4680000D02*
X27500000Y4900000D01*
X27279999Y2805000D02*
Y4680000D01*
X28200000Y5325000D02*
Y5492300D01*
X28375000Y5275000D02*
Y5492300D01*
X28550000Y5250000D02*
Y5492300D01*
X25271317Y7800000D02*
X26925000D01*
X27200000Y7525000D01*
Y7375000D02*
Y7525000D01*
X27800000Y6500000D02*
X28825000D01*
X29247720Y6125000D02*
X29400000Y6277279D01*
Y7550000D01*
X29275000Y6025000D02*
X29489999Y6240000D01*
Y7587279D01*
X28175000Y6025000D02*
X29275000D01*
X26819800Y5519800D02*
X27800000Y6500000D01*
X28075000Y5925000D02*
X28175000Y6025000D01*
X28075000Y5525000D02*
Y5925000D01*
X27950000Y5492425D02*
X28042426D01*
X27950000Y5400000D02*
Y5492425D01*
X28042426D02*
X28075000Y5525000D01*
X28200000Y5900151D02*
X28224850Y5925000D01*
X25731534Y3400000D02*
X26225000D01*
X25730200D02*
X25731534D01*
Y3797004D01*
Y3397005D02*
Y3400000D01*
X28200000Y5800000D02*
Y5900151D01*
X27950000Y5657825D02*
Y5800000D01*
X28600000D02*
X28700000D01*
X27175000Y5325000D02*
X27875000D01*
X27950000Y5400000D01*
X26800000Y4950000D02*
X27175000Y5325000D01*
X28104999Y5230000D02*
X28200000Y5325000D01*
X27226950Y5230000D02*
X28104999D01*
X26889999Y4893051D02*
X27226950Y5230000D01*
X27264227Y5140000D02*
X28239999D01*
X28375000Y5275000D01*
X26979999Y4855772D02*
X27264227Y5140000D01*
X27301508Y5050000D02*
X28350000D01*
X28550000Y5250000D01*
X27070001Y4818493D02*
X27301508Y5050000D01*
X20796249Y2546250D02*
X20860001Y2610000D01*
Y2650000D01*
X20575000Y2325000D02*
X20796249Y2546250D01*
X18475000Y2325000D02*
X20575000D01*
X20539999Y2095000D02*
X20893750Y2448750D01*
X17505000Y2095000D02*
X20539999D01*
X17487700Y2077700D02*
X17505000Y2095000D01*
X17487700Y2032500D02*
Y2077700D01*
X17455200Y2000000D02*
X17487700Y2032500D01*
X19075000Y2575000D02*
X20450000D01*
X20575000Y2700000D01*
X18250000Y3400000D02*
X19075000Y2575000D01*
X18300000Y2500000D02*
X18475000Y2325000D01*
X18055200Y2500000D02*
X18300000D01*
X18055200D02*
Y2900000D01*
X21988860Y4388860D02*
X23700000Y6100000D01*
X21988860Y4091140D02*
Y4388860D01*
X23700000Y6100000D02*
X23925000D01*
X21673750Y2651250D02*
X23624998Y700001D01*
X21650000Y2675000D02*
X21673750Y2651250D01*
X23624998Y700001D02*
X24919800D01*
X24245793Y3145793D02*
X24319800Y3219800D01*
X22563857Y2438856D02*
X22625002Y2500001D01*
X22436143Y2438856D02*
X22563857D01*
X22625002Y2500001D02*
X24919800D01*
X22023750Y2851251D02*
X22436143Y2438856D01*
X5950000Y3975000D02*
X7000000Y2925000D01*
X7900000D02*
X7947500Y2972500D01*
X7000000Y2925000D02*
X7900000D01*
X8066495Y2775000D02*
X8204926Y2913432D01*
X6956224Y2775000D02*
X8066495D01*
X6515612Y3215612D02*
X6956224Y2775000D01*
X6150000Y2625000D02*
X8050000D01*
X8250000Y2825000D01*
X3644800Y7075000D02*
X3669800Y7050000D01*
X1150000Y7075000D02*
X3644800D01*
X800000Y7425000D02*
X1150000Y7075000D01*
X1525000Y7225000D02*
X3775000D01*
X3825000Y7175000D01*
X1300000Y7450000D02*
X1525000Y7225000D01*
X9500000Y3400000D02*
Y3650000D01*
X9425000Y3000000D02*
Y3325000D01*
X9500000Y3400000D01*
X9375000Y2950000D02*
X9425000Y3000000D01*
X8990136Y4159864D02*
X9500000Y3650000D01*
X9525000Y3275000D02*
X9600000Y3350000D01*
X9947500Y3497500D02*
X10000000Y3550000D01*
X9525000Y3151716D02*
Y3275000D01*
X9625000Y3175000D02*
X9947500Y3497500D01*
X11325000Y4725000D02*
X11944800D01*
X9600000Y3350000D02*
Y3675000D01*
X9025000Y4250000D02*
X9600000Y3675000D01*
X4425000Y7250000D02*
X13200000D01*
X4000000Y7486500D02*
X4188500D01*
X4425000Y7250000D01*
X4514999Y7350000D02*
X13275000D01*
X4262999Y7602000D02*
X4514999Y7350000D01*
X3452000Y7602000D02*
X4262999D01*
X4575000Y7450000D02*
X13325000D01*
X3042000Y7692000D02*
X4333000D01*
X4575000Y7450000D01*
X2407700Y5704016D02*
X2419416Y5692300D01*
X2407700Y5704016D02*
Y6103800D01*
X2419416Y5692300D02*
X2550000D01*
X2300000Y6211500D02*
X2407700Y6103800D01*
X2117300Y5692300D02*
X2150000Y5725000D01*
Y6175000D01*
X2113500Y6211500D02*
X2150000Y6175000D01*
X2025000Y5692300D02*
X2117300D01*
X2000000Y6211500D02*
X2113500D01*
X2550000Y5857700D02*
Y5975000D01*
X12855200Y2000001D02*
X13644800D01*
X11800000Y5625000D02*
X12544800D01*
X10559853Y4384853D02*
X11800000Y5625000D01*
X10559853Y4140147D02*
Y4384853D01*
X10269706Y3850000D02*
X10559853Y4140147D01*
X9675000Y3850000D02*
X10269706D01*
X10345000Y4670000D02*
X11944800Y6269800D01*
X10345000Y4470000D02*
Y4670000D01*
X9825000Y3950000D02*
X10345000Y4470000D01*
X9625000Y3950000D02*
X9825000D01*
X11944800Y6269800D02*
Y6525000D01*
X7345000Y3780000D02*
X7551250Y3573750D01*
X7650000Y3475000D01*
Y3325000D02*
Y3475000D01*
X6530000Y3780000D02*
X7345000D01*
X8225000Y2500000D02*
X8322500Y2597500D01*
X5080200Y2500000D02*
X8225000D01*
X5680200Y3094800D02*
X6150000Y2625000D01*
X3250000Y4550000D02*
X3325001Y4474999D01*
X3250000Y4550000D02*
Y4925000D01*
X2900000Y5275000D02*
X3250000Y4925000D01*
X3325001Y4474999D02*
X6525001D01*
X3000000Y5302279D02*
X3350000Y4952279D01*
Y4650000D02*
X3435001Y4564999D01*
X3350000Y4650000D02*
Y4952279D01*
X3435001Y4564999D02*
X6582722D01*
X3125000Y5325000D02*
X3475000Y4975000D01*
Y4721207D02*
X3541208Y4654999D01*
X3475000Y4721207D02*
Y4975000D01*
X3541208Y4654999D02*
X6620001D01*
X3125000Y5325000D02*
Y5592300D01*
X3225000Y5692300D01*
X2800000Y5225000D02*
Y5442300D01*
X2550000Y5692300D02*
X2800000Y5442300D01*
Y5225000D02*
X3130001Y4895000D01*
X2900000Y5275000D02*
Y5567300D01*
X2775000Y5692300D02*
X2900000Y5567300D01*
X6075000Y4100000D02*
X6464040Y3710960D01*
X3098431Y4100000D02*
X6075000D01*
X6462574Y3712574D02*
X6530000Y3780000D01*
X16825000Y7425000D02*
X26148285D01*
X26198285Y7375000D01*
X16644800Y7244800D02*
X16825000Y7425000D01*
X26019800Y6507500D02*
Y6525000D01*
X25230200Y6507500D02*
X25262700Y6475000D01*
X25987299D01*
X26019800Y6507500D01*
X25230200D02*
Y6525000D01*
X23925000Y6475000D02*
X24887300D01*
X24919800Y6507500D01*
Y6925000D01*
X19125000Y3898587D02*
Y5100000D01*
Y3898587D02*
X19958588Y3065000D01*
X18055200Y6169800D02*
X19125000Y5100000D01*
X19900000Y2975000D02*
X20367500D01*
X19263499Y5950000D02*
Y6925000D01*
X20000000Y3175000D02*
X20100000D01*
X19958588Y3065000D02*
X20138492D01*
X23997720Y4825000D02*
X24225000D01*
X23847720Y4675000D02*
X23997720Y4825000D01*
X23150000Y4675000D02*
X23847720D01*
X22350000Y3875000D02*
X23150000Y4675000D01*
X24887300Y4675000D02*
X24919800Y4707500D01*
Y5125000D01*
X24000000Y4675000D02*
X24887300D01*
X26580200Y2105200D02*
X27279999Y2805000D01*
X25731534Y3797005D02*
X25731534Y3797004D01*
X25730200Y2000000D02*
X25730200Y2000000D01*
X26330200Y1100001D02*
X26330200Y1100000D01*
X25730200Y1600000D02*
Y2000000D01*
X3130001Y4469999D02*
Y4895000D01*
X3000000Y5302279D02*
Y5692300D01*
X2520000Y5330000D02*
X3040001Y4809999D01*
Y4432720D02*
Y4809999D01*
X2125000Y5330000D02*
X2520000D01*
X1664558Y5240000D02*
X2460000D01*
X2950000Y4750000D01*
Y4395442D02*
Y4750000D01*
X2800000Y4398431D02*
Y4725000D01*
X1637279Y5140000D02*
X2385000D01*
X2800000Y4725000D01*
X25775000Y7050000D02*
X25850000D01*
X25910001Y7110000D01*
Y7212300D01*
X25230200Y6925000D02*
X26019800D01*
X20298492Y3225000D02*
X20400000D01*
X20450000Y3175000D01*
X20367500Y2975000D02*
X20393935D01*
X20443935Y3025000D01*
X17455200Y5625000D02*
X18425000D01*
X20443935Y3025000D02*
X20450000D01*
X20670000Y2845000D02*
Y2980000D01*
X20625000Y2800000D02*
X20670000Y2845000D01*
X20950455Y2725000D02*
X21350000D01*
X21289999Y4615000D02*
X21464999D01*
X20529097Y3147295D02*
Y3854097D01*
X21289999Y4615000D01*
X21325000Y4500000D02*
X21500000D01*
X21539999Y4540000D01*
X23225000Y6225000D01*
X20625000Y3800000D02*
X21325000Y4500000D01*
X20625000Y3025000D02*
Y3800000D01*
X23200000Y6350000D02*
X25950000D01*
X21464999Y4615000D02*
X23200000Y6350000D01*
X21625000Y4925000D02*
Y5525000D01*
X20800000Y4925000D02*
X21625000D01*
X23225000Y6225000D02*
X25900000D01*
X20650000Y5075000D02*
X20800000Y4925000D01*
X18775000Y5675000D02*
X18936501Y5836500D01*
Y5950000D01*
X18225000Y5125000D02*
X18425000Y5325000D01*
X18055200Y5125000D02*
X18225000D01*
X23650000Y5625000D02*
X24319800D01*
X24225000Y4195000D02*
X24230000Y4200000D01*
X19750000Y4175000D02*
X20050000Y4475000D01*
X20350000Y4775000D01*
X20650000Y5075000D01*
X20650000D01*
X20625000Y3025000D02*
X20670000Y2980000D01*
X20525000Y2850000D02*
X20580000Y2905000D01*
X18975000Y2850000D02*
X20525000D01*
X20481802Y3100000D02*
X20529097Y3147295D01*
X20300000Y3100000D02*
X20481802D01*
X20138492Y3065000D02*
X20298492Y3225000D01*
X21350000Y2725000D02*
X22352499Y3727500D01*
X23195000Y4570000D01*
X20893750Y2448750D02*
X21100000Y2655000D01*
X23195000Y4570000D02*
X26411694D01*
X23395000Y4195000D02*
X24000000D01*
X24321133Y3397005D02*
Y3797005D01*
X23350000Y4300000D02*
X26525000D01*
X21600000Y2825000D02*
X23255000Y4480000D01*
X26448975D01*
X21600000Y2775000D02*
Y2825000D01*
X23292281Y4390001D02*
X26486252D01*
X24319800Y3219800D02*
Y3400000D01*
X19950000Y1100000D02*
X21262500Y2412500D01*
X21525000Y2675000D01*
X18055200Y1100000D02*
X19950000D01*
X18055200Y6169800D02*
Y6525000D01*
Y3769800D02*
X18975000Y2850000D01*
X18055200Y3769800D02*
Y4725000D01*
X17455200Y3400000D02*
X18250000D01*
X26482700Y6325000D02*
X26575000Y6417300D01*
X26457700Y6310000D02*
X26472699Y6325000D01*
X26457700Y6300000D02*
Y6310000D01*
X26472699Y6325000D02*
X26482700D01*
X26575000Y6417300D02*
Y6650000D01*
X26521695Y6185000D02*
X26636694Y6300000D01*
X26792300D01*
X25939999Y6185000D02*
X26521695D01*
X27075000Y6417300D02*
Y6650000D01*
X26957700Y6300000D02*
X27075000Y6417300D01*
X27435001Y5677299D02*
X27450000Y5692300D01*
X27400021Y5677299D02*
X27435001D01*
X26700000Y4977279D02*
X27400021Y5677299D01*
X26411694Y4570000D02*
X26700000Y4858305D01*
Y4977279D01*
X26448975Y4480000D02*
X26800000Y4831026D01*
Y4950000D01*
X26569504Y7236500D02*
X26685004Y7121000D01*
X26375000Y7236500D02*
X26569504D01*
X26685004Y7121000D02*
X27870999D01*
X28376999Y7627000D01*
X29323001D01*
X29400000Y7550000D01*
X26775000Y7236500D02*
X27859222D01*
X28339719Y7717000D01*
X29360281D01*
X29489999Y7587279D01*
X28750000Y6925000D02*
X29200000Y7375000D01*
Y7511500D01*
X28550000Y5750000D02*
X28600000Y5800000D01*
X25730200Y6025000D02*
X25730200Y6025000D01*
X28375000Y5657700D02*
Y5800000D01*
X16044800Y6994800D02*
X16750000Y7700000D01*
X26875000D01*
X16044800Y6025000D02*
Y6994800D01*
X15922301Y7052630D02*
X16669670Y7800000D01*
X15922301Y5127700D02*
Y7052630D01*
X16669670Y7800000D02*
X25271317D01*
X16595000Y7895000D02*
X27179999D01*
X16644800Y700000D02*
Y1100000D01*
X15825000Y5075000D02*
Y7125000D01*
X16595000Y7895000D01*
X15922301Y2927700D02*
Y4977700D01*
X15825000Y5075000D02*
X15922301Y4977700D01*
X16044800Y2000000D02*
Y2805200D01*
X15922301Y2927700D02*
X16044800Y2805200D01*
X16150000Y2900000D02*
X16644800D01*
X16044800Y3005200D02*
Y3400000D01*
Y3005200D02*
X16150000Y2900000D01*
X16644800Y2500000D02*
Y2900000D01*
X15922301Y5127700D02*
X16044800Y5005200D01*
Y3800000D02*
Y5005200D01*
X16644800Y4725000D02*
Y5125000D01*
X16044800Y5230200D02*
X16150000Y5125000D01*
X16044800Y5230200D02*
Y5624999D01*
X16150000Y5125000D02*
X16644800D01*
X16044800Y5625000D02*
Y6025000D01*
X18055200Y6925000D02*
X18411501D01*
X18936501D02*
X18936501Y6925000D01*
X18738499Y6925000D02*
X18936501D01*
X19263499Y7205382D02*
X19275000Y7216882D01*
Y7225000D01*
X19263499Y6925000D02*
Y7205382D01*
X16644800Y6925000D02*
Y7244800D01*
X26198285Y7375000D02*
X26200000D01*
X16644800Y6525000D02*
Y6925000D01*
X16044800Y1600000D02*
Y2000000D01*
Y1205200D02*
X16150000Y1100000D01*
X16044800Y1205200D02*
Y1600000D01*
X16150000Y1100000D02*
X16644800D01*
X27179999Y7895000D02*
X27700000Y7375000D01*
X16044800Y3400000D02*
Y3800000D01*
X26875000Y7700000D02*
X26941714Y7633284D01*
Y7516716D02*
Y7633284D01*
X26800000Y7375000D02*
X26941714Y7516716D01*
X26700000Y7375000D02*
X26800000D01*
X26375000Y7563500D02*
X26775000D01*
X19625000Y7563500D02*
X25400000Y7563500D01*
X25942499Y7244800D02*
X25975000D01*
X25910001Y7212300D02*
X25942499Y7244800D01*
X26330200Y2105200D02*
X26580200D01*
X26330200Y2900001D02*
Y3294800D01*
X28200000Y5657700D02*
Y5800000D01*
X26330200Y5519800D02*
X26819800D01*
X25900000Y6225000D02*
X25939999Y6185000D01*
X27070001Y4719190D02*
Y4818493D01*
X26979999Y4756469D02*
Y4855772D01*
X26889999Y4793748D02*
Y4893051D01*
X26486252Y4390001D02*
X26889999Y4793748D01*
X26860001Y4636469D02*
X26979999Y4756469D01*
X26860001Y4635000D02*
Y4636469D01*
X24230000Y4200000D02*
X26552280D01*
X26950000Y4597721D01*
Y4599190D01*
X27070001Y4719190D01*
X26525000Y4300000D02*
X26860001Y4635000D01*
X28550000Y5657700D02*
Y5750000D01*
X26000000Y6300000D02*
X26292300D01*
X25950000Y6350000D02*
X26000000Y6300000D01*
X26330200Y6925000D02*
X28750000D01*
X18055200Y4725000D02*
Y5125000D01*
X26330200Y2500001D02*
Y2900001D01*
X27450000Y5857700D02*
Y6000000D01*
X28950000Y7511500D02*
X29200000D01*
X25750000Y7250000D02*
X25969800D01*
X25975000Y7244800D01*
X1050000Y5200000D02*
X1415000Y4835000D01*
X762721Y6060000D02*
X1050000Y5772721D01*
Y5200000D02*
Y5772721D01*
X800000Y6150000D02*
X1150000Y5800000D01*
Y5275000D02*
X1500000Y4925000D01*
X1150000Y5275000D02*
Y5800000D01*
X262721Y6060000D02*
X762721D01*
X105000Y6217721D02*
Y7425000D01*
Y6217721D02*
X262721Y6060000D01*
X300000Y6150000D02*
X800000D01*
X225000Y6225000D02*
X300000Y6150000D01*
X850000Y6250000D02*
X1012500Y6087500D01*
X1335993D01*
X845000Y6250000D02*
X850000D01*
X845000D02*
Y6514800D01*
X855200Y6525000D01*
X7776250Y3798750D02*
X8825000Y2750000D01*
X7505136Y4069864D02*
X7776250Y3798750D01*
X8825000Y2750000D02*
X9100000D01*
X6780136Y4069864D02*
X7505136D01*
X9100000Y2750000D02*
X9200000Y2650000D01*
X8137363Y4159864D02*
X8990136D01*
X6840137D02*
X8137363D01*
X8227500Y4250000D02*
X9025000D01*
X26330200Y2105200D02*
Y2500000D01*
X26225000Y2000000D02*
X26330200Y2105200D01*
X25730200Y2000000D02*
X26225000D01*
X26330200Y1100001D02*
Y1494800D01*
X26225000Y1600000D02*
X26330200Y1494800D01*
X25730200Y1600000D02*
X26225000D01*
Y3400000D02*
X26330200Y3294800D01*
X25730200Y5625000D02*
X25730200Y5625000D01*
X26225000D01*
X26330200Y5519800D01*
Y5125000D02*
Y5519800D01*
X16955200Y6925000D02*
X17744800D01*
X16955200Y6525000D02*
X17744800D01*
X18055200D02*
Y6925000D01*
X16355200Y6025000D02*
X17144800D01*
X16355200Y5625000D02*
X17144800D01*
X17455200D02*
Y6025000D01*
X17455200Y6025000D02*
X17455200Y6025000D01*
X16955200Y5125000D02*
X17744800D01*
X16955200Y4725000D02*
X17744800D01*
X16355200Y3800000D02*
X17144800D01*
X16355200Y3400000D02*
X17144800D01*
X17455200D02*
Y3800000D01*
X17455200Y3800000D02*
X17455200Y3800000D01*
X16955200Y2900000D02*
X17744800D01*
X16955200Y2500000D02*
X17744800D01*
X16355200Y2000000D02*
X17144800D01*
X16355200Y1600000D02*
X17144800D01*
X17455200D02*
Y2000000D01*
X16955200Y1100000D02*
X17744800D01*
X16955200Y700000D02*
X17744800D01*
X18055200D02*
Y1100000D01*
X25230200Y1100001D02*
X26019800D01*
X25230200Y700001D02*
X26019800D01*
X24919800D02*
Y1100001D01*
X26330200Y700001D02*
Y1100000D01*
X24630200Y2000000D02*
X25419800D01*
X24630200Y1600000D02*
X25419800D01*
X24319800D02*
Y2000000D01*
X25230200Y2900001D02*
X26019800D01*
X25230200Y2500001D02*
X26019800D01*
X24919800D02*
Y2900001D01*
X24631534Y3797005D02*
X25421133D01*
X24631534Y3397005D02*
X25421133D01*
X25230200Y5125000D02*
X26019800D01*
X25230200Y4725000D02*
X26019800D01*
X26330200D02*
Y5125000D01*
X24630200Y6025000D02*
X25419800D01*
X24630200Y5625000D02*
X25419800D01*
X24319800D02*
Y6025000D01*
X25730200Y5625000D02*
Y6025000D01*
X26330200Y6925000D02*
X26330200Y6925000D01*
Y6525000D02*
Y6925000D01*
X3980200Y2500000D02*
X4769800D01*
X3980200Y2900000D02*
X4769800D01*
X8204926Y2913432D02*
Y2920074D01*
X6897721Y4250000D02*
X8227500D01*
X6582722Y4564999D02*
X6897721Y4250000D01*
X6200000Y5750000D02*
X6300000Y5650000D01*
Y5125000D02*
Y5650000D01*
X5680200Y5750000D02*
X6200000D01*
X6300000Y5125000D02*
X6775000Y4650000D01*
X6400000Y5173493D02*
Y5975000D01*
Y5173493D02*
X6880000Y4693493D01*
X5725000Y6650000D02*
X6400000Y5975000D01*
X7455740Y4630740D02*
X7480740D01*
X7750000Y4900000D01*
X7450000Y3975000D02*
X8575000Y2850000D01*
Y2675000D02*
Y2850000D01*
X8862500Y2337500D02*
X9125000Y2600000D01*
X7625000Y1100000D02*
X8862500Y2337500D01*
X5080200Y1100000D02*
X7625000D01*
X7947500Y2972500D02*
X8025000Y3050000D01*
Y3121390D01*
X8725000Y2350000D02*
Y2675000D01*
X6922208Y4352792D02*
X9047207D01*
X9550000Y3850000D01*
X10000000Y3550000D02*
X10150000D01*
X9608118Y2890000D02*
X9618118Y2900000D01*
X9647500D01*
X11944800D01*
X9600000Y2890000D02*
X9608118D01*
X9300000Y2575000D02*
X9525000D01*
X6700000Y3975000D02*
X7450000D01*
X7626250Y3648750D02*
X8305638Y2969362D01*
X7400000Y3875000D02*
X7626250Y3648750D01*
X7626250D01*
X8305638Y2898120D02*
Y2969362D01*
X6650000Y3875000D02*
X7400000D01*
X3140443Y4205000D02*
X6320000D01*
X6650000Y3875000D01*
X6465001Y4384999D02*
X6780136Y4069864D01*
X6380001Y4295000D02*
X6700000Y3975000D01*
X3177722Y4295000D02*
X6380001D01*
X3215001Y4384999D02*
X6465001D01*
X5956350Y3750000D02*
X6225000Y3481350D01*
X5950000Y3750000D02*
X5956350D01*
X6225000Y3481350D02*
X6231350D01*
X6225996Y3486556D02*
X6241556D01*
X1700000Y6525000D02*
X2000000D01*
X2286500D01*
X1100000D02*
X1700000D01*
X855200D02*
X1100000D01*
X2800000Y4398431D02*
X3098431Y4100000D01*
X1425000Y5352279D02*
X1637279Y5140000D01*
X1425000Y5352279D02*
Y5998492D01*
X1335993Y6087500D02*
X1425000Y5998492D01*
X1575000Y5329558D02*
Y5693522D01*
Y5329558D02*
X1664558Y5240000D01*
X2675000Y4300000D02*
X3000000Y3975000D01*
X2675000Y4300000D02*
Y4625000D01*
X3000000Y3975000D02*
X5950000D01*
X2250000Y5050000D02*
X2675000Y4625000D01*
X6241556Y3486556D02*
X6512500Y3215612D01*
X6525001Y4474999D02*
X6840137Y4159864D01*
X6620001Y4654999D02*
X6922208Y4352792D01*
X7291777Y4466777D02*
X7450000Y4625000D01*
X7291777Y4466777D02*
Y4466777D01*
X1600000Y5050000D02*
X2250000D01*
X1300000Y5350000D02*
X1600000Y5050000D01*
X1300000Y5350000D02*
Y5692300D01*
X8322500Y2597500D02*
X8450000Y2725000D01*
X6750000Y3675000D02*
X6850000D01*
X7465000Y3060000D02*
X7860000D01*
X6850000Y3675000D02*
X7465000Y3060000D01*
X7860000D02*
X7860000D01*
X7025000Y3673493D02*
X7508492Y3190000D01*
X7025000Y3673493D02*
Y3675000D01*
X7508492Y3190000D02*
X7730000D01*
X7950000D01*
X6905000Y4650000D02*
Y4658118D01*
X6880000Y4683118D02*
X6905000Y4658118D01*
X6880000Y4683118D02*
Y4693493D01*
X7975000Y1600000D02*
X8725000Y2350000D01*
X9425000Y4275000D02*
Y4575000D01*
X8713107Y5286893D02*
X9425000Y4575000D01*
X8163121Y5286893D02*
X8713107D01*
X6512500Y3215612D02*
X6515612D01*
X5680200Y3094800D02*
Y3400000D01*
Y3800000D01*
X2475000Y4245442D02*
X2635000Y4085442D01*
X2162721Y4835000D02*
X2475000Y4522721D01*
Y4245442D02*
Y4522721D01*
X2575000Y4272721D02*
X2725000Y4122721D01*
X2200000Y4925000D02*
X2575000Y4550000D01*
Y4272721D02*
Y4550000D01*
X3130001Y4469999D02*
X3215001Y4384999D01*
X2950000Y4395442D02*
X3140443Y4205000D01*
X3040001Y4432720D02*
X3177722Y4295000D01*
X2635000Y2790000D02*
Y4085442D01*
X2725000Y2875000D02*
Y4122721D01*
Y2875000D02*
X3125000Y2475000D01*
X2635000Y2790000D02*
X3425000Y2000000D01*
X1500000Y4925000D02*
X2200000D01*
X1415000Y4835000D02*
X2162721D01*
X5080200Y6650000D02*
X5725000D01*
X3825000Y6275000D02*
X3950000Y6150000D01*
X3825000Y6275000D02*
Y7175000D01*
X4274600Y5750000D02*
Y6150000D01*
X3879799Y5750000D02*
X4274600D01*
X3674600Y4850000D02*
X3674600Y5250000D01*
X3669800Y6650000D02*
Y7050000D01*
X13200000Y7250000D02*
X13355200Y7094800D01*
X3600000Y7486500D02*
X3800000D01*
X4000000D01*
X13275000Y7350000D02*
X13955200Y6669800D01*
X13325000Y7450000D02*
X14100000Y6675000D01*
X1700000Y6211500D02*
Y6297000D01*
X5075000Y6644800D02*
X5080200Y6650000D01*
X5075000Y6450000D02*
Y6644800D01*
X5000000Y6375000D02*
X5075000Y6450000D01*
X3988500Y6375000D02*
X5000000D01*
X5080200Y6650000D02*
X5080200Y6650000D01*
X5080200Y4850000D02*
X5425000D01*
X7755740Y4905740D02*
X7776971D01*
X8046231Y5175000D01*
X8050000D01*
X8051228D02*
X8163121Y5286893D01*
X10150000Y3550000D02*
X11325000Y4725000D01*
X9650000Y3075000D02*
X9975000Y3400000D01*
X12544800D01*
X10299999Y2000001D02*
X12544800D01*
X9425000Y2875000D02*
X10299999Y2000001D01*
X9525000Y2575000D02*
X11000000Y1100000D01*
X11944800D01*
X13355200Y6925000D02*
Y7094800D01*
X13960001Y3110000D02*
Y3400000D01*
Y1310000D02*
Y1600000D01*
X3125000Y2475000D02*
X3644800D01*
X3669800Y2500000D01*
Y2900000D02*
Y3190000D01*
X3879799Y3400000D01*
X3229268Y5861968D02*
Y5929268D01*
X3275000Y5975000D01*
X3550000D01*
X3225000Y5857700D02*
X3229268Y5861968D01*
X5680200Y1600000D02*
X7975000D01*
X5080200Y4850000D02*
Y5250000D01*
X5680200Y5750000D02*
Y6150000D01*
X5080200Y6650000D02*
Y7050000D01*
X5080200Y2500000D02*
Y2900000D01*
X5680200Y1600000D02*
Y2000000D01*
X5080200Y700000D02*
Y1100000D01*
X11944800Y700000D02*
Y1100000D01*
X12544800Y1600001D02*
Y2000001D01*
X11944800Y2500000D02*
Y2900000D01*
X12544800Y3400000D02*
Y3800000D01*
X11944800Y4725000D02*
Y5125000D01*
X12544800Y5625000D02*
Y6025000D01*
X11944800Y6525000D02*
X11944800Y6525000D01*
Y6925000D01*
X3879799Y1600000D02*
X4269800D01*
X13355200Y6525000D02*
Y6925000D01*
X13960001Y5335000D02*
Y5625000D01*
X2025000Y5430000D02*
X2125000Y5330000D01*
X2025000Y5430000D02*
Y5692300D01*
X4274600Y3400000D02*
Y3800000D01*
X3879799Y3400000D02*
X4274600D01*
X3674600Y2500000D02*
X3674600Y2900000D01*
X3425000Y2000000D02*
X4269800D01*
X3674600Y700000D02*
X3674600Y1100000D01*
X13355200Y2900000D02*
X13750000D01*
X13355200D02*
X13355200D01*
X2085000Y7665000D02*
X2300000Y7450000D01*
X345000Y7665000D02*
X2085000D01*
X105000Y7425000D02*
X345000Y7665000D01*
X450000Y7575000D02*
X1675000D01*
X1800000Y7450000D01*
X225000Y7350000D02*
X450000Y7575000D01*
X225000Y6225000D02*
Y7350000D01*
X3950000Y6150000D02*
X4269800D01*
X3669800Y5540000D02*
X3879799Y5750000D01*
X3669800Y5250000D02*
Y5540000D01*
X3669800Y1390000D02*
X3879799Y1600000D01*
X3669800Y1100000D02*
Y1390000D01*
X4269800Y1600000D02*
Y2000000D01*
X3980200Y1100000D02*
X4769800D01*
X3980200Y700000D02*
X4769800D01*
X4575400Y2000000D02*
X5365000D01*
X4575400Y1600000D02*
X5365000D01*
X4575400Y3800000D02*
X5365000D01*
X4575400Y3400000D02*
X5365000D01*
X3980200Y5250000D02*
X4769799D01*
X3980200Y4850000D02*
X4769800D01*
X4580200Y6150000D02*
X5369799D01*
X4580200Y5750000D02*
X5369800D01*
X3980200Y7050000D02*
X4769799D01*
X3980200Y6650000D02*
X4769800D01*
X12255200Y1100000D02*
X13044800D01*
X12255200Y700000D02*
X13044800D01*
X12855200Y1600000D02*
X13644800D01*
X12255200Y2900000D02*
X13044800D01*
X12255200Y2500000D02*
X13044800D01*
X12855200Y3800000D02*
X13644800D01*
X12855200Y3400000D02*
X13644800D01*
X12255200Y5125000D02*
X13044800D01*
X12255200Y4725000D02*
X13044800D01*
X12855200Y6025000D02*
X13644798D01*
X12855200Y5625000D02*
X13644800D01*
X12255200Y6525000D02*
X13044800D01*
X13044800Y6925000D02*
X13044800Y6925000D01*
X12255200Y6925000D02*
X13044800D01*
X13950000Y2005200D02*
Y2300000D01*
X13750000Y2500000D02*
X13950000Y2300000D01*
X13355200Y2500000D02*
X13750000D01*
X13950000Y2005200D02*
X13955200Y2000000D01*
Y6025000D02*
Y6669800D01*
X2800000Y7450000D02*
X3042000Y7692000D01*
X14100000Y5183048D02*
Y6675000D01*
X13955200Y5625000D02*
Y6025000D01*
Y5038247D02*
X14100000Y5183048D01*
X13955200Y3800000D02*
Y5038247D01*
X13355200Y1100000D02*
X13355200Y1100000D01*
Y700000D02*
Y1100000D01*
Y2500000D02*
Y2900000D01*
X13355200Y4725000D02*
Y5125000D01*
Y1100000D02*
X13750000D01*
X13960001Y1310000D01*
X13955200Y1600000D02*
Y2000000D01*
X13750000Y2900000D02*
X13960001Y3110000D01*
X13955200Y3400000D02*
Y3800000D01*
X3300000Y7450000D02*
X3452000Y7602000D01*
X13750000Y5125000D02*
X13960001Y5335000D01*
X13355200Y5125000D02*
X13750000D01*
X1575000Y5857700D02*
Y5975000D01*
X3000000Y5857700D02*
Y5975000D01*
X2775000Y5857700D02*
Y5975000D01*
X2025000Y5857700D02*
Y5975000D01*
X1300000Y5857700D02*
Y5975000D01*
X544800Y6525000D02*
X550000Y6519800D01*
Y6300000D02*
Y6519800D01*
X2286500Y6525000D02*
X2300000Y6538500D01*
X544800Y6525000D02*
X550000Y6530200D01*
Y6700000D01*
D40*
X15000000Y7500000D02*
D03*
Y500000D02*
D03*
X500000D02*
D03*
Y5500000D02*
D03*
X29500000D02*
D03*
Y500000D02*
D03*
D41*
X21625000Y5525000D02*
D03*
X19650000Y3825000D02*
D03*
X21125000Y1150000D02*
D03*
X400000Y4700000D02*
D03*
X8800000Y1000000D02*
D03*
X8925000Y5075000D02*
D03*
D42*
X1154000Y3194000D02*
D03*
X28850000Y3899000D02*
D03*
D43*
X900000Y3296001D02*
D03*
X1154000Y3398001D02*
D03*
X900000Y3500000D02*
D03*
X1154000Y3602000D02*
D03*
X900000Y3704000D02*
D03*
X1154000Y3806000D02*
D03*
X900000Y3908000D02*
D03*
X29104001Y3797000D02*
D03*
X28850000Y3695000D02*
D03*
X29104001Y3593000D02*
D03*
X28850000Y3491000D02*
D03*
X29104001Y3389000D02*
D03*
X28850000Y3287000D02*
D03*
X29104001Y3185000D02*
D03*
D44*
X554000Y4159000D02*
D03*
Y2943000D02*
D03*
X29450000Y2934000D02*
D03*
Y4150000D02*
D03*
D45*
X1050000Y6400000D02*
D03*
X1300000D02*
D03*
X1550000D02*
D03*
X1800000Y6395000D02*
D03*
X3550000Y6400000D02*
D03*
X3300000D02*
D03*
X3050000D02*
D03*
X2800000D02*
D03*
X2550000D02*
D03*
X26175000Y1100001D02*
D03*
Y700001D02*
D03*
X25075000D02*
D03*
X25075000Y1100001D02*
D03*
X25350000Y900000D02*
D03*
X25900000D02*
D03*
X23100000Y3700000D02*
D03*
X22700000Y3500000D02*
D03*
X23675000Y1475000D02*
D03*
X23100000D02*
D03*
X22850000Y2000000D02*
D03*
X22825000Y2350000D02*
D03*
X23375000D02*
D03*
X23925000D02*
D03*
X23375000Y2000000D02*
D03*
X23925000D02*
D03*
X18325000Y5475000D02*
D03*
X18625000Y6125000D02*
D03*
Y6325000D02*
D03*
X28175000Y7850000D02*
D03*
X27325000Y6500000D02*
D03*
X26925000Y5875000D02*
D03*
X26400000Y5675000D02*
D03*
X27325000Y5450000D02*
D03*
X27300000Y5775000D02*
D03*
X27000000Y5500000D02*
D03*
X26475000Y5375000D02*
D03*
X26500000Y4900000D02*
D03*
X22775000Y4950000D02*
D03*
X23175000Y4850000D02*
D03*
X21775000Y5100000D02*
D03*
X22400000Y5175000D02*
D03*
X23450000D02*
D03*
X24350000D02*
D03*
X24475000Y4800000D02*
D03*
X23625000D02*
D03*
X24375000Y3000000D02*
D03*
X23600000D02*
D03*
X23175000Y2650000D02*
D03*
X24000000D02*
D03*
X24750000D02*
D03*
X26150000Y3800000D02*
D03*
X25900000Y4050000D02*
D03*
X25250000D02*
D03*
X24375000D02*
D03*
X23675000Y3650000D02*
D03*
X24125000Y3300000D02*
D03*
X23475000Y4050000D02*
D03*
X24475000Y5625000D02*
D03*
Y6025000D02*
D03*
X25575000D02*
D03*
Y5625000D02*
D03*
X24775000Y5824999D02*
D03*
X25250000D02*
D03*
X25079800Y5125000D02*
D03*
X26179800D02*
D03*
X26175000Y4810000D02*
D03*
X25379800Y4925000D02*
D03*
X24475000Y3400000D02*
D03*
Y3800000D02*
D03*
X25575000D02*
D03*
Y3400000D02*
D03*
X24775000Y3599999D02*
D03*
X25250000D02*
D03*
X25075000Y3125000D02*
D03*
X25079800Y2500001D02*
D03*
X26179800D02*
D03*
X25600000Y2625000D02*
D03*
X25200000Y1475000D02*
D03*
X24479800Y1600000D02*
D03*
Y2000000D02*
D03*
X25579800D02*
D03*
X24779800Y1799999D02*
D03*
X25254800D02*
D03*
X21375000Y1850000D02*
D03*
X20925000D02*
D03*
X12650000Y7100000D02*
D03*
X11900000Y6000000D02*
D03*
X12675000Y6375000D02*
D03*
X13225000Y5475000D02*
D03*
X11925000D02*
D03*
X12975000Y4175000D02*
D03*
X21925000Y2902500D02*
D03*
X22020711Y2969939D02*
D03*
X22255771Y3205000D02*
D03*
X27425000Y3875000D02*
D03*
X22200000D02*
D03*
X21990433Y3940433D02*
D03*
X22125000Y3725000D02*
D03*
X22150000Y2900000D02*
D03*
X21600000Y2500000D02*
D03*
X21850000Y2675000D02*
D03*
X21125000Y2475000D02*
D03*
X17700000Y1325000D02*
D03*
X17650000Y1950000D02*
D03*
X16775000Y1450000D02*
D03*
X16225000Y2750000D02*
D03*
X18125000Y3250000D02*
D03*
X17900000Y4175000D02*
D03*
X17325000D02*
D03*
Y5275000D02*
D03*
X17650000Y5775000D02*
D03*
X18225000D02*
D03*
Y6400000D02*
D03*
X18850000Y7275000D02*
D03*
X17225000D02*
D03*
X16804800Y6525000D02*
D03*
Y6925000D02*
D03*
X17904800D02*
D03*
Y6525000D02*
D03*
X17104800Y6725000D02*
D03*
X17579800D02*
D03*
X16204800Y5625000D02*
D03*
Y6025000D02*
D03*
X17304800D02*
D03*
Y5625000D02*
D03*
X16504800Y5824999D02*
D03*
X16979800D02*
D03*
X16804800Y4725000D02*
D03*
Y5125000D02*
D03*
X17904800D02*
D03*
Y4725000D02*
D03*
X17104800Y4925000D02*
D03*
X17579800D02*
D03*
X16200000Y3400000D02*
D03*
Y3800000D02*
D03*
X17300000D02*
D03*
Y3400000D02*
D03*
X16500000Y3599999D02*
D03*
X16975000D02*
D03*
X16800000Y2500000D02*
D03*
Y2900000D02*
D03*
X17900000D02*
D03*
Y2500000D02*
D03*
X17100000Y2699999D02*
D03*
X17575000D02*
D03*
X16975000Y1799999D02*
D03*
X16500000D02*
D03*
X17300000Y1600000D02*
D03*
Y2000000D02*
D03*
X16200000D02*
D03*
Y1600000D02*
D03*
X17575000Y900000D02*
D03*
X17100000D02*
D03*
X17900000Y700000D02*
D03*
Y1100000D02*
D03*
X16800000D02*
D03*
Y700000D02*
D03*
X16200000Y4325000D02*
D03*
Y4975000D02*
D03*
Y5275000D02*
D03*
Y6925000D02*
D03*
X16825000Y7575000D02*
D03*
X18125000D02*
D03*
X18925000D02*
D03*
X19425000D02*
D03*
X19100000Y5950000D02*
D03*
X18050000Y3550000D02*
D03*
X18300000Y2250000D02*
D03*
X19700000Y1950000D02*
D03*
X19175000Y1925000D02*
D03*
X18625000D02*
D03*
X18625000Y2550000D02*
D03*
X24675002Y900000D02*
D03*
X23575002D02*
D03*
X24125002D02*
D03*
X23025002D02*
D03*
X22475002D02*
D03*
Y1450000D02*
D03*
X21925002Y900000D02*
D03*
Y1450000D02*
D03*
X21375000Y900000D02*
D03*
Y1450000D02*
D03*
X20825002Y900000D02*
D03*
Y1450000D02*
D03*
X20275000Y900000D02*
D03*
X19725000D02*
D03*
Y1450000D02*
D03*
X19175000Y900000D02*
D03*
Y1450000D02*
D03*
X18625000Y900000D02*
D03*
Y1450000D02*
D03*
X29075000Y2550000D02*
D03*
X29625000D02*
D03*
X29075000Y2000000D02*
D03*
X29625000D02*
D03*
X29075000Y1450000D02*
D03*
X29625000D02*
D03*
X26175000Y3250000D02*
D03*
X26450000Y3350000D02*
D03*
X26475000Y3050000D02*
D03*
X26650000Y3350000D02*
D03*
X27475000Y3025000D02*
D03*
X26200000Y1750000D02*
D03*
X26875000Y2000000D02*
D03*
X27975000Y2550000D02*
D03*
X27425000D02*
D03*
X27975000Y2000000D02*
D03*
X27425000D02*
D03*
X28525000D02*
D03*
Y2550000D02*
D03*
X26875000Y1450000D02*
D03*
Y900000D02*
D03*
X27975000Y1450000D02*
D03*
X27425000D02*
D03*
X27975000Y900000D02*
D03*
X27425000D02*
D03*
X28525000D02*
D03*
Y1450000D02*
D03*
Y350000D02*
D03*
X27425000D02*
D03*
X27975000D02*
D03*
X26325000D02*
D03*
X26875000D02*
D03*
X25225002D02*
D03*
X25775000D02*
D03*
X24125002D02*
D03*
X24675002D02*
D03*
X23025002D02*
D03*
X23575002D02*
D03*
X21925002D02*
D03*
X22475002D02*
D03*
X20825002D02*
D03*
X21375000D02*
D03*
X19725000D02*
D03*
X20275000D02*
D03*
X18625000D02*
D03*
X19175000D02*
D03*
X17525000D02*
D03*
X18075000D02*
D03*
X16425000D02*
D03*
X16975000D02*
D03*
X15875000Y900000D02*
D03*
Y350000D02*
D03*
Y1525000D02*
D03*
Y2150000D02*
D03*
Y2775000D02*
D03*
X15800000Y3200000D02*
D03*
X15500000Y3500000D02*
D03*
X15725000Y3825000D02*
D03*
Y4200000D02*
D03*
Y4700000D02*
D03*
X16375000Y7875000D02*
D03*
X15875000Y7375000D02*
D03*
Y7875000D02*
D03*
X19065005Y6715010D02*
D03*
X18515005D02*
D03*
X20675000Y6325000D02*
D03*
X20125000D02*
D03*
X22150000D02*
D03*
X21600000D02*
D03*
X22194997Y6984999D02*
D03*
X21644997D02*
D03*
X20669997Y6987461D02*
D03*
X20119997D02*
D03*
X23150000Y7225000D02*
D03*
X22975000Y6650000D02*
D03*
X22400000Y6250000D02*
D03*
X23600000Y6475000D02*
D03*
X25600000Y7125000D02*
D03*
X11675000Y6700000D02*
D03*
X10175000D02*
D03*
X8675000D02*
D03*
X7150000D02*
D03*
X22525000D02*
D03*
X19525000D02*
D03*
X21000000D02*
D03*
X21050000Y6325000D02*
D03*
X19650000D02*
D03*
X19400000Y6125000D02*
D03*
X24150000Y5775000D02*
D03*
X23750000Y5950000D02*
D03*
X23225000Y5450000D02*
D03*
X23050000Y5775000D02*
D03*
X23525000Y6100000D02*
D03*
X22625000Y5425000D02*
D03*
X22350000Y5725000D02*
D03*
X21850000Y5650000D02*
D03*
X21425000Y5525000D02*
D03*
X18175000Y4525000D02*
D03*
X18225000Y4950000D02*
D03*
X18850000Y5575000D02*
D03*
X18575000Y5300000D02*
D03*
X18900000Y4875000D02*
D03*
X18875000Y4450000D02*
D03*
X18900000Y3750000D02*
D03*
Y3175000D02*
D03*
X19075000Y2975000D02*
D03*
X19575000Y3100000D02*
D03*
X19950000Y3400000D02*
D03*
X20375000Y3525000D02*
D03*
X20999998Y3700000D02*
D03*
X20899998Y3600000D02*
D03*
X20799998Y3500000D02*
D03*
X21099998Y3800000D02*
D03*
X21199998Y3900000D02*
D03*
X21299998Y3800000D02*
D03*
X21199998Y3700000D02*
D03*
X20899998Y3400000D02*
D03*
X20999998Y3500000D02*
D03*
X21099998Y3600000D02*
D03*
X21399998Y3700000D02*
D03*
X21299998Y3600000D02*
D03*
X20999998Y3300000D02*
D03*
X21099998Y3400000D02*
D03*
X21199998Y3500000D02*
D03*
X21499998Y3600000D02*
D03*
X21399998Y3500000D02*
D03*
X21099998Y3200000D02*
D03*
X21199998Y3300000D02*
D03*
X21299998Y3400000D02*
D03*
X21599998Y3500000D02*
D03*
X21499998Y3400000D02*
D03*
X21199998Y3100000D02*
D03*
X21299998Y3200000D02*
D03*
X21399998Y3300000D02*
D03*
X21099998Y4000000D02*
D03*
X21374998Y3925000D02*
D03*
X21774998Y3500000D02*
D03*
X20724998Y3625000D02*
D03*
X20849998Y3750000D02*
D03*
X20974998Y3875000D02*
D03*
X20774998Y3350000D02*
D03*
X20924998Y3200000D02*
D03*
X21099998Y3025000D02*
D03*
X21324998Y3050000D02*
D03*
X21474998Y3200000D02*
D03*
X21624998Y3350000D02*
D03*
X21649998Y3625000D02*
D03*
X21499998Y3775000D02*
D03*
X19850000Y4075000D02*
D03*
X20400000Y3800000D02*
D03*
X20300000Y4275000D02*
D03*
X20650000Y4225000D02*
D03*
X20125000Y3525000D02*
D03*
X19825000Y3550000D02*
D03*
X19400000Y3950000D02*
D03*
Y4450000D02*
D03*
Y4975000D02*
D03*
X20075000Y5475000D02*
D03*
X19850000Y5425000D02*
D03*
X20425000Y5200000D02*
D03*
X20125000Y5125000D02*
D03*
X19800000Y4650000D02*
D03*
X21025000Y5350000D02*
D03*
X20825000Y4800000D02*
D03*
X20575000Y4550000D02*
D03*
X21025000Y4775000D02*
D03*
X20925000Y4475000D02*
D03*
X21350000Y4775000D02*
D03*
X21700000Y4525000D02*
D03*
X21950000Y4650000D02*
D03*
X21725000Y4025000D02*
D03*
X27950000Y5950000D02*
D03*
X27650000Y5500000D02*
D03*
X28775000Y4950000D02*
D03*
X29325000D02*
D03*
X29875000D02*
D03*
X28225000Y4475000D02*
D03*
X28775000D02*
D03*
X29325000D02*
D03*
X29875000D02*
D03*
X28875000Y5550000D02*
D03*
X28075000Y4750000D02*
D03*
X27775000Y4475000D02*
D03*
X27850000Y7450000D02*
D03*
X27175000Y7725000D02*
D03*
X27425000Y7425000D02*
D03*
Y7875000D02*
D03*
X23625000Y7300000D02*
D03*
X24225000Y7075000D02*
D03*
X24750000D02*
D03*
X25075000D02*
D03*
X24750000Y6725000D02*
D03*
X25075000D02*
D03*
X25575000Y6700000D02*
D03*
X28325000Y7400000D02*
D03*
X28725000Y7475000D02*
D03*
X28775000Y7850000D02*
D03*
X29400000D02*
D03*
X29900000Y7875000D02*
D03*
X29875000Y6300000D02*
D03*
X29525000Y6075000D02*
D03*
X29625000Y6825000D02*
D03*
Y7250000D02*
D03*
X28825000Y6500000D02*
D03*
X26675000Y6150000D02*
D03*
X26050000Y6025000D02*
D03*
X26825000Y6500000D02*
D03*
X27200000Y6355000D02*
D03*
X27450000Y6355001D02*
D03*
X27700000Y6200000D02*
D03*
X27950000Y6350000D02*
D03*
X28200000Y6350000D02*
D03*
X29200000Y6355000D02*
D03*
X28950000D02*
D03*
X28450000Y6350000D02*
D03*
X28700000D02*
D03*
X27950000Y5800000D02*
D03*
X28700000D02*
D03*
X23200000Y3275000D02*
D03*
X18175000Y4200000D02*
D03*
X19375000Y5350000D02*
D03*
X20725000Y5750000D02*
D03*
X21000000D02*
D03*
X20050000D02*
D03*
X19775000D02*
D03*
X20375000D02*
D03*
X20225000Y5450000D02*
D03*
X22638254Y4311746D02*
D03*
X20225000Y1950000D02*
D03*
X20025000Y2200000D02*
D03*
X19825000Y2450000D02*
D03*
X19650000Y2725000D02*
D03*
X22400000Y4550000D02*
D03*
X21650000Y2675000D02*
D03*
X22925000Y3003033D02*
D03*
X22703535Y2781568D02*
D03*
X22475000Y2553033D02*
D03*
X22253535Y2331569D02*
D03*
X22025000Y2103033D02*
D03*
X21803535Y1881569D02*
D03*
X2985467Y2892661D02*
D03*
X3061716Y2800000D02*
D03*
X9350000Y4850000D02*
D03*
X9550000Y4625000D02*
D03*
X9275000Y4375000D02*
D03*
X3425000Y6725000D02*
D03*
X2500000Y3875000D02*
D03*
X11550000Y6125000D02*
D03*
X10550000Y6150000D02*
D03*
X9575000D02*
D03*
X8800000D02*
D03*
X8000000D02*
D03*
X7675000Y4050000D02*
D03*
X100000Y7825000D02*
D03*
X9775000Y3550000D02*
D03*
X10125000Y3725000D02*
D03*
X10325000Y3525000D02*
D03*
X9100000Y3775000D02*
D03*
X9250000Y3625000D02*
D03*
X9225000Y3350000D02*
D03*
X9075000Y3200000D02*
D03*
X8925000Y3050000D02*
D03*
X8700000Y3025000D02*
D03*
X8525000Y3200000D02*
D03*
X8375000Y3350000D02*
D03*
X8575000Y3875000D02*
D03*
X8450000Y3750000D02*
D03*
X8325000Y3625000D02*
D03*
X9625000Y3175000D02*
D03*
X9525000Y3150000D02*
D03*
X9375000Y3500000D02*
D03*
X8975000Y3925000D02*
D03*
X8700000Y4000000D02*
D03*
X8225000Y3500000D02*
D03*
X9000000Y3300000D02*
D03*
X8900000Y3200000D02*
D03*
X8800000Y3100000D02*
D03*
X9100000Y3400000D02*
D03*
X9200000Y3500000D02*
D03*
X8900000Y3400000D02*
D03*
X8800000Y3300000D02*
D03*
X8700000Y3200000D02*
D03*
X9000000Y3500000D02*
D03*
X9100000Y3600000D02*
D03*
X8800000Y3500000D02*
D03*
X8700000Y3400000D02*
D03*
X8600000Y3300000D02*
D03*
X8900000Y3600000D02*
D03*
X9000000Y3700000D02*
D03*
X8700000Y3600000D02*
D03*
X8600000Y3500000D02*
D03*
X8500000Y3400000D02*
D03*
X8800000Y3700000D02*
D03*
X8900000Y3800000D02*
D03*
X8800000Y3900000D02*
D03*
X8700000Y3800000D02*
D03*
X8400000Y3500000D02*
D03*
X8500000Y3600000D02*
D03*
X8600000Y3700000D02*
D03*
X1175000Y4875000D02*
D03*
X725000Y4850000D02*
D03*
X100000Y4525000D02*
D03*
X650000D02*
D03*
X1200000D02*
D03*
X1750000D02*
D03*
X1425000Y7850000D02*
D03*
X2550000D02*
D03*
Y7450000D02*
D03*
X2025000Y7425000D02*
D03*
X1550000D02*
D03*
X1050000D02*
D03*
X5850000Y2650000D02*
D03*
X5525000Y3375000D02*
D03*
X4425000D02*
D03*
X5525000Y3800000D02*
D03*
X4425000D02*
D03*
X4975000Y3625000D02*
D03*
X3975000Y3700000D02*
D03*
X14125000Y1350000D02*
D03*
Y2200000D02*
D03*
X14275000Y3775000D02*
D03*
Y4225000D02*
D03*
X14300000Y4625000D02*
D03*
X14425000Y3525000D02*
D03*
X11100000Y7075000D02*
D03*
X6375000D02*
D03*
X6925000D02*
D03*
X6375000Y6475000D02*
D03*
X6925000D02*
D03*
X7900000Y7075000D02*
D03*
X8450000D02*
D03*
X7900000Y6475000D02*
D03*
X8450000D02*
D03*
X9450000Y7075000D02*
D03*
Y6475000D02*
D03*
X10000000Y7075000D02*
D03*
X10600000D02*
D03*
X10000000Y6475000D02*
D03*
X10550000D02*
D03*
X11100000D02*
D03*
X11175000Y5725000D02*
D03*
X12375000Y5800000D02*
D03*
X11750000Y4875000D02*
D03*
X11525000Y5125000D02*
D03*
X11375000Y5425000D02*
D03*
X13800000Y6425000D02*
D03*
X13550000Y6875000D02*
D03*
X13850000Y7200000D02*
D03*
Y7750000D02*
D03*
X13300000D02*
D03*
X12750000D02*
D03*
X12050000D02*
D03*
X11650000D02*
D03*
X11100000D02*
D03*
X10550000D02*
D03*
X10100000D02*
D03*
X9550000D02*
D03*
X9050000D02*
D03*
X8625000D02*
D03*
X8075000D02*
D03*
X7525000D02*
D03*
X7125000D02*
D03*
X6425000D02*
D03*
X5875000D02*
D03*
X5325000D02*
D03*
X4775000D02*
D03*
X5325000Y7050000D02*
D03*
X4225000Y7275000D02*
D03*
X3100000Y7500000D02*
D03*
X4925000Y7050000D02*
D03*
X4375000Y6525000D02*
D03*
Y6850000D02*
D03*
X3825000Y6075000D02*
D03*
X5100000Y6275000D02*
D03*
X4425000Y6150000D02*
D03*
X4425000Y5375000D02*
D03*
X5525000Y5350000D02*
D03*
Y6375000D02*
D03*
X4175000Y7875000D02*
D03*
X3800000D02*
D03*
X3400000D02*
D03*
X425000D02*
D03*
X550000Y7425000D02*
D03*
X375000Y6300000D02*
D03*
X700000Y6525000D02*
D03*
X1850000Y5850000D02*
D03*
X2275000Y5925000D02*
D03*
X2550000Y5975000D02*
D03*
X2250000Y5500000D02*
D03*
X3450000Y5250000D02*
D03*
X3825000Y4850000D02*
D03*
Y5250000D02*
D03*
X4925000D02*
D03*
Y4850000D02*
D03*
X4125000Y5050000D02*
D03*
X4600000D02*
D03*
X6325000Y4800000D02*
D03*
X6825000Y5350000D02*
D03*
X7200000Y5125000D02*
D03*
X9050000Y5375000D02*
D03*
X8375000D02*
D03*
X9750000D02*
D03*
X10375000Y5100000D02*
D03*
X10750000Y4750000D02*
D03*
X11325000Y4150000D02*
D03*
X13800000Y5000000D02*
D03*
Y4175000D02*
D03*
X12125000D02*
D03*
X13475000Y3600000D02*
D03*
X13000000D02*
D03*
X12100000Y6525000D02*
D03*
Y6925000D02*
D03*
X13200000D02*
D03*
Y6525000D02*
D03*
X12400000Y6725000D02*
D03*
X12875000D02*
D03*
X12700000Y5625000D02*
D03*
Y6025000D02*
D03*
X13800000D02*
D03*
Y5625000D02*
D03*
X13000000Y5825000D02*
D03*
X13475000D02*
D03*
X12875000Y4925000D02*
D03*
X12400000D02*
D03*
X13200000Y4725000D02*
D03*
Y5125000D02*
D03*
X12100000D02*
D03*
Y4725000D02*
D03*
X13800000Y3400000D02*
D03*
X12700000D02*
D03*
X12900000Y2700000D02*
D03*
X12425000D02*
D03*
X13200000Y2900000D02*
D03*
X13200000Y2500000D02*
D03*
X12100000D02*
D03*
Y2900000D02*
D03*
X12700000Y3800000D02*
D03*
X13800000Y2700000D02*
D03*
X13800000Y3800000D02*
D03*
X1125000Y1425000D02*
D03*
X575000D02*
D03*
X1125000Y2550000D02*
D03*
X575000D02*
D03*
X1125000Y2000000D02*
D03*
X575000D02*
D03*
X1675000D02*
D03*
Y2550000D02*
D03*
X5100000Y2250000D02*
D03*
X5200000Y1800000D02*
D03*
X4425000D02*
D03*
X3875000D02*
D03*
X4400000Y2250000D02*
D03*
X3850000D02*
D03*
X3325000Y1900000D02*
D03*
X3300000Y2325000D02*
D03*
X2774999Y2000000D02*
D03*
X2775000Y2475000D02*
D03*
X1674998Y900000D02*
D03*
Y350000D02*
D03*
X2774999Y900000D02*
D03*
Y350000D02*
D03*
X2224999D02*
D03*
X11900000Y1850000D02*
D03*
X11250000D02*
D03*
X10875000Y1475000D02*
D03*
X12150000Y1450000D02*
D03*
X11600000D02*
D03*
X13225000Y1800000D02*
D03*
X12700000Y1450000D02*
D03*
Y2000000D02*
D03*
X13800000Y1450000D02*
D03*
X13800000Y2000000D02*
D03*
X13775000Y350000D02*
D03*
Y900000D02*
D03*
X12675000Y350000D02*
D03*
X13224998D02*
D03*
X12675000Y900000D02*
D03*
X13224998D02*
D03*
X11574999D02*
D03*
X12124999D02*
D03*
X11574999Y350000D02*
D03*
X12124999D02*
D03*
X10474999Y900000D02*
D03*
X11024999D02*
D03*
X9374999D02*
D03*
X9924999D02*
D03*
X9925000Y1375000D02*
D03*
X10474999Y350000D02*
D03*
X11024999D02*
D03*
X9374999D02*
D03*
X9924999D02*
D03*
X8274999D02*
D03*
X8824999D02*
D03*
X8274999Y900000D02*
D03*
X8275000Y1450000D02*
D03*
X8825000D02*
D03*
X7174999Y350000D02*
D03*
X7724999D02*
D03*
X7174999Y900000D02*
D03*
X7724999D02*
D03*
X6074999Y350000D02*
D03*
X6624999D02*
D03*
X6074999Y900000D02*
D03*
X6624999D02*
D03*
X4974999D02*
D03*
X5524999D02*
D03*
X4974999Y350000D02*
D03*
X5524999D02*
D03*
X3874999D02*
D03*
X4424999D02*
D03*
X3874999Y900000D02*
D03*
X4424999D02*
D03*
X3324999D02*
D03*
Y350000D02*
D03*
X2774999Y1450000D02*
D03*
X2224998D02*
D03*
X3900000D02*
D03*
X3324999D02*
D03*
X4974999D02*
D03*
X4424999D02*
D03*
X6075000D02*
D03*
X5524999D02*
D03*
X6625000D02*
D03*
X7175000D02*
D03*
X7725000D02*
D03*
X8475000Y1750000D02*
D03*
X8925000Y1825000D02*
D03*
X9425000Y1775000D02*
D03*
X9625000Y2025000D02*
D03*
X10200000Y1650000D02*
D03*
X10750000Y2150000D02*
D03*
X11075000Y2725000D02*
D03*
X11050000Y2425000D02*
D03*
X10275000Y2225000D02*
D03*
X10525000Y2500000D02*
D03*
X9950000Y3150000D02*
D03*
X10975000Y3025000D02*
D03*
X11150000Y3250000D02*
D03*
X11900000Y3525000D02*
D03*
X11325000Y3850000D02*
D03*
X12125000D02*
D03*
X11150000Y3525000D02*
D03*
X10550000D02*
D03*
Y3725000D02*
D03*
X10900000Y4100000D02*
D03*
X10400000Y4275000D02*
D03*
X10200000Y4525000D02*
D03*
X11200000Y5300000D02*
D03*
X10450000Y4550000D02*
D03*
X9900000Y4775000D02*
D03*
X8975000Y4500000D02*
D03*
X9275000Y2450000D02*
D03*
X9675000Y2775000D02*
D03*
X9075000Y2275000D02*
D03*
X8850000Y2075000D02*
D03*
X8525000Y2500000D02*
D03*
X6825000Y2750000D02*
D03*
X7475000Y3425000D02*
D03*
X1975000Y1150000D02*
D03*
X2225000D02*
D03*
X2300000Y4525000D02*
D03*
X2875000Y3850000D02*
D03*
X2500000Y2850000D02*
D03*
X3000000Y3250000D02*
D03*
X4825000D02*
D03*
X3925000D02*
D03*
X5825000Y3325000D02*
D03*
X6350000Y4025000D02*
D03*
X8650000Y4475000D02*
D03*
X8300000Y4975000D02*
D03*
X7750000Y5025000D02*
D03*
X7125000Y4525000D02*
D03*
X7450000Y4850000D02*
D03*
X8275000Y4475000D02*
D03*
X7325000Y3650000D02*
D03*
X6100000Y3175000D02*
D03*
X6475000Y2350000D02*
D03*
X7000000Y3175000D02*
D03*
X7950000Y3950000D02*
D03*
X9600000Y4250000D02*
D03*
X10675000Y2775000D02*
D03*
X6975000Y2375000D02*
D03*
X7450000D02*
D03*
X7750000Y2250000D02*
D03*
X7975000Y2025000D02*
D03*
X10275000Y2700000D02*
D03*
X10050000Y2475000D02*
D03*
X23925000Y6475000D02*
D03*
X24000000Y4675000D02*
D03*
X24225000Y4825000D02*
D03*
X3248639Y3701007D02*
D03*
X3500000Y3700000D02*
D03*
X20225000Y6225000D02*
D03*
X18525000Y4650000D02*
D03*
X18775000Y4900000D02*
D03*
X18400000Y4525000D02*
D03*
X18275000Y4400000D02*
D03*
X18650000Y4775000D02*
D03*
X25775000Y7050000D02*
D03*
X20450000Y3175000D02*
D03*
Y3025000D02*
D03*
X20625000Y2800000D02*
D03*
X20575000Y2700000D02*
D03*
X20950455Y2725000D02*
D03*
X21625000Y4925000D02*
D03*
X18775000Y5675000D02*
D03*
X18425000Y5325000D02*
D03*
X19875000Y6325000D02*
D03*
X19600000Y4700000D02*
D03*
X20025000Y5375000D02*
D03*
X19925000Y4900000D02*
D03*
X20900000Y6325000D02*
D03*
X20625000Y6225000D02*
D03*
X23925000Y6100000D02*
D03*
X21975000Y3775000D02*
D03*
X24225000Y4195000D02*
D03*
X19750000Y4175000D02*
D03*
X20050000Y4475000D02*
D03*
X20350000Y4775000D02*
D03*
X20650000Y5075000D02*
D03*
X20580000Y2905000D02*
D03*
X21100000Y2655000D02*
D03*
X24000000Y4195000D02*
D03*
X22175000Y3100000D02*
D03*
X22425000Y3225000D02*
D03*
X21600000Y2775000D02*
D03*
X21825000Y2900000D02*
D03*
X21525000Y2675000D02*
D03*
X20100000Y3175000D02*
D03*
X20300000Y3100000D02*
D03*
X18275000Y3800000D02*
D03*
X18400000Y3900000D02*
D03*
X20860001Y2650000D02*
D03*
X26575000Y6650000D02*
D03*
X27075000D02*
D03*
X29200000Y7375000D02*
D03*
X28375000Y5800000D02*
D03*
X19275000Y7225000D02*
D03*
X19625000Y7563500D02*
D03*
X27700000Y7375000D02*
D03*
X27075000Y4575000D02*
D03*
X27004999Y2889886D02*
D03*
X27200000Y7375000D02*
D03*
X26700000D02*
D03*
X18525000Y4025000D02*
D03*
X26200000Y7375000D02*
D03*
X18775000Y4275000D02*
D03*
X28200000Y5800000D02*
D03*
X27175000Y4775000D02*
D03*
X27000000Y4400000D02*
D03*
X26875000Y4275000D02*
D03*
X26775000Y4150000D02*
D03*
X26675000Y4075000D02*
D03*
X26439999Y3975000D02*
D03*
X26557367Y4000000D02*
D03*
X18650000Y4150000D02*
D03*
X26300000Y3665000D02*
D03*
X26500000Y3475000D02*
D03*
X26401685Y3570000D02*
D03*
X26725000Y3125000D02*
D03*
X26822031Y3044589D02*
D03*
X26909064Y2961974D02*
D03*
X27100000Y2816571D02*
D03*
X27450000Y6000000D02*
D03*
X845000Y6250000D02*
D03*
X8204926Y2920074D02*
D03*
X3553639Y5975000D02*
D03*
X8575000Y2675000D02*
D03*
X8725000D02*
D03*
X9675000Y3850000D02*
D03*
X9625000Y3950000D02*
D03*
X9550000Y3850000D02*
D03*
X9375000Y2950000D02*
D03*
X9600000Y2890000D02*
D03*
X9300000Y2575000D02*
D03*
X9200000Y2650000D02*
D03*
X9125000Y2600000D02*
D03*
X8025000Y3125000D02*
D03*
X5950000Y3750000D02*
D03*
X7650000Y3325000D02*
D03*
X7291777Y4466777D02*
D03*
X7025000Y3675000D02*
D03*
X6750000D02*
D03*
X6905000Y4650000D02*
D03*
X6775000D02*
D03*
X7860000Y3060000D02*
D03*
X8250000Y2825000D02*
D03*
X8450000Y2725000D02*
D03*
X8305638Y2898120D02*
D03*
X7950000Y3190000D02*
D03*
X3625000Y3700000D02*
D03*
X3369999Y3700350D02*
D03*
X3125000Y3700000D02*
D03*
X7675000Y6150000D02*
D03*
X7825000D02*
D03*
Y5150000D02*
D03*
X7675000D02*
D03*
X7525000Y6150000D02*
D03*
Y5150000D02*
D03*
X7375000Y6150000D02*
D03*
Y5150000D02*
D03*
X5425000Y4850000D02*
D03*
X9650000Y3075000D02*
D03*
X9425000Y2875000D02*
D03*
X11050000Y5600000D02*
D03*
X11375000Y5025000D02*
D03*
X10675000Y4325000D02*
D03*
X10225000Y4775000D02*
D03*
X11525000Y4175000D02*
D03*
X11850000Y3700000D02*
D03*
X11975000Y3800000D02*
D03*
X11725000Y4500000D02*
D03*
X11575000D02*
D03*
X11629152Y3595176D02*
D03*
X11300000Y4375000D02*
D03*
X11750000Y3600000D02*
D03*
X11500000D02*
D03*
X11425000Y4275000D02*
D03*
X3400000Y2590000D02*
D03*
X3225000Y2600000D02*
D03*
X3150000Y2700000D02*
D03*
X2300000Y7450000D02*
D03*
X1300000D02*
D03*
X800000Y7425000D02*
D03*
X1800000Y7450000D02*
D03*
X2800000D02*
D03*
X3300000D02*
D03*
X1575000Y5975000D02*
D03*
X3000000D02*
D03*
X2775000D02*
D03*
X2025000D02*
D03*
X1300000D02*
D03*
X3800000Y7475000D02*
D03*
X550000Y6700000D02*
D03*
X9425000Y4275000D02*
D03*
X8050000Y5175000D02*
D03*
X7750000Y4900000D02*
D03*
X7450000Y4625000D02*
D03*
D53*
X16355200Y6025000D02*
D03*
X16044800D02*
D03*
X17455200D02*
D03*
X17144800D02*
D03*
X16355200Y5625000D02*
D03*
X16044800D02*
D03*
X17455200D02*
D03*
X17144800D02*
D03*
X17455200Y1600000D02*
D03*
X17144800D02*
D03*
X17455200Y2000000D02*
D03*
X17144800D02*
D03*
X16355200Y1600000D02*
D03*
X16044800D02*
D03*
X16355200Y2000000D02*
D03*
X16044800D02*
D03*
X17455200Y3800000D02*
D03*
X17144800D02*
D03*
X17455200Y3400000D02*
D03*
X17144800D02*
D03*
X16355200Y3800000D02*
D03*
X16044800D02*
D03*
X16355200Y3400000D02*
D03*
X16044800D02*
D03*
X18055200Y2500000D02*
D03*
X17744800D02*
D03*
X18055200Y700000D02*
D03*
X17744800D02*
D03*
X18055200Y2900000D02*
D03*
X17744800D02*
D03*
X18055200Y1100000D02*
D03*
X17744800D02*
D03*
X16955200Y2500000D02*
D03*
X16644800D02*
D03*
X16955200Y700000D02*
D03*
X16644800D02*
D03*
X16955200Y1100000D02*
D03*
X16644800D02*
D03*
X16955200Y2900000D02*
D03*
X16644800D02*
D03*
X24630200Y1600000D02*
D03*
X24319800D02*
D03*
X25230200Y2900001D02*
D03*
X24919800D02*
D03*
X24630200Y6025000D02*
D03*
X24319800D02*
D03*
X25230200Y6925000D02*
D03*
X24919800D02*
D03*
X24630200Y3800000D02*
D03*
X24319800D02*
D03*
X25730200D02*
D03*
X25419800D02*
D03*
X26330200Y4725000D02*
D03*
X26019800D02*
D03*
X25230200D02*
D03*
X24919800D02*
D03*
X17744800Y6925000D02*
D03*
X18055200D02*
D03*
X17744800Y5125000D02*
D03*
X18055200D02*
D03*
X25230200Y700001D02*
D03*
X24919800D02*
D03*
X26330200D02*
D03*
X26019800D02*
D03*
X25230200Y5125000D02*
D03*
X24919800D02*
D03*
X24630200Y3400000D02*
D03*
X24319800D02*
D03*
X25230200Y1100001D02*
D03*
X24919800D02*
D03*
X25730200Y6025000D02*
D03*
X25419800D02*
D03*
X25230200Y6525000D02*
D03*
X24919800D02*
D03*
X24630200Y5625000D02*
D03*
X24319800D02*
D03*
X26330200Y6925000D02*
D03*
X26019800D02*
D03*
X25730200Y5625000D02*
D03*
X25419800Y5625000D02*
D03*
X26330200Y6525000D02*
D03*
X26019800D02*
D03*
X26330200Y1100001D02*
D03*
X26019800D02*
D03*
X25730200Y3400000D02*
D03*
X25419800D02*
D03*
X26330200Y5125000D02*
D03*
X26019800D02*
D03*
X16644800Y4725000D02*
D03*
X16955200D02*
D03*
X16644800Y5125000D02*
D03*
X16955200D02*
D03*
X16644800Y6925000D02*
D03*
X16955200D02*
D03*
X17744800Y6525000D02*
D03*
X18055200D02*
D03*
X24630200Y2000000D02*
D03*
X24319800D02*
D03*
X25230200Y2500001D02*
D03*
X24919800D02*
D03*
X17744800Y4725000D02*
D03*
X18055200D02*
D03*
X16644800Y6525000D02*
D03*
X16955200D02*
D03*
X26330200Y2500001D02*
D03*
X26019800D02*
D03*
X25730200Y2000000D02*
D03*
X25419800D02*
D03*
X26330200Y2900001D02*
D03*
X26019800D02*
D03*
X25730200Y1600000D02*
D03*
X25419800D02*
D03*
X5680200D02*
D03*
X5369800D02*
D03*
X5680200Y3400000D02*
D03*
X5369800D02*
D03*
X5080200Y7050000D02*
D03*
X4769800D02*
D03*
X3980200Y5250000D02*
D03*
X3669800D02*
D03*
X4580200Y3800000D02*
D03*
X4269800D02*
D03*
X4580200Y2000000D02*
D03*
X4269800D02*
D03*
X5680200Y5750000D02*
D03*
X5369800D02*
D03*
X5080200Y5250000D02*
D03*
X4769800D02*
D03*
X3980200Y7050000D02*
D03*
X3669800D02*
D03*
X4580200Y5750000D02*
D03*
X4269800D02*
D03*
X4580200Y3400000D02*
D03*
X4269800D02*
D03*
X4580200Y1600000D02*
D03*
X4269800D02*
D03*
X5080200Y1100000D02*
D03*
X4769800D02*
D03*
X5080200Y2900000D02*
D03*
X4769800D02*
D03*
X5680200Y6150000D02*
D03*
X5369800D02*
D03*
X5080200Y4850000D02*
D03*
X4769800D02*
D03*
X3980200Y1100000D02*
D03*
X3669800D02*
D03*
X3980200Y2900000D02*
D03*
X3669800D02*
D03*
X5080200Y2500000D02*
D03*
X4769800D02*
D03*
X5080200Y700000D02*
D03*
X4769800D02*
D03*
X5680200Y2000000D02*
D03*
X5369800D02*
D03*
X5680200Y3800000D02*
D03*
X5369800D02*
D03*
X5080200Y6650000D02*
D03*
X4769800D02*
D03*
X3980200D02*
D03*
X3669800D02*
D03*
X3980200Y4850000D02*
D03*
X3669800D02*
D03*
X3980200Y700000D02*
D03*
X3669800D02*
D03*
X4580200Y6150000D02*
D03*
X4269800D02*
D03*
X3980200Y2500000D02*
D03*
X3669800D02*
D03*
X12255200Y1100000D02*
D03*
X13044800D02*
D03*
X11944800D02*
D03*
Y700001D02*
D03*
X13955200Y2000000D02*
D03*
Y3400000D02*
D03*
Y3800000D02*
D03*
X13355200Y1100000D02*
D03*
X13355200Y2900000D02*
D03*
Y700000D02*
D03*
Y2500000D02*
D03*
X13955200Y1600000D02*
D03*
X13044800Y700000D02*
D03*
X12255200Y700001D02*
D03*
X13644800Y1600000D02*
D03*
X12855200Y3400000D02*
D03*
X12544800D02*
D03*
X12255200Y2500000D02*
D03*
X11944800D02*
D03*
X13044800Y2500000D02*
D03*
X13955200Y6025000D02*
D03*
X13644800D02*
D03*
X13355200Y6525000D02*
D03*
X13044800D02*
D03*
Y2900000D02*
D03*
X12855200Y3800000D02*
D03*
X12544800D02*
D03*
X12255200Y5125000D02*
D03*
X11944800D02*
D03*
X12855200Y1600000D02*
D03*
X12544800D02*
D03*
X13644800Y3800000D02*
D03*
X13355200Y6925000D02*
D03*
X13044800D02*
D03*
X12855200Y6025000D02*
D03*
X12544800D02*
D03*
X12255200Y4725000D02*
D03*
X11944800D02*
D03*
X12255200Y2900000D02*
D03*
X11944800Y2900000D02*
D03*
X13644800Y3400000D02*
D03*
X13355200Y4725000D02*
D03*
X13044800D02*
D03*
X12255200Y6525000D02*
D03*
X11944800D02*
D03*
X12855200Y2000000D02*
D03*
X12544800Y2000001D02*
D03*
X12255200Y6925000D02*
D03*
X11944800D02*
D03*
X12855200Y5625000D02*
D03*
X12544800D02*
D03*
X13644800Y2000000D02*
D03*
X13355200Y5125000D02*
D03*
X13044800D02*
D03*
X13955200Y5625000D02*
D03*
X13644800D02*
D03*
X544800Y6525000D02*
D03*
X855200D02*
D03*
D54*
X25600000Y7250000D02*
D03*
X25750000D02*
D03*
X700000Y6325000D02*
D03*
X550000D02*
D03*
D55*
X18936501Y5950000D02*
D03*
X19263499D02*
D03*
X18936501Y6925000D02*
D03*
X19263499D02*
D03*
X18738499Y6925000D02*
D03*
X18411501D02*
D03*
X3661500Y6375000D02*
D03*
X3988500D02*
D03*
D56*
X25975000Y7244800D02*
D03*
Y7555200D02*
D03*
D57*
X6231350Y3481350D02*
D03*
X6462574Y3712574D02*
D03*
%TF.MD5,22d9f07f20ab7a8fd12b864055816028*%
M02*
