%TF.GenerationSoftware,Altium Limited,Altium Designer,26.5.1 (12)*%
G04 Layer_Color=128*
G04 Board_Origin=38070866|8218504*
%FSLAX45Y45*%
%MOMM*%
%TF.SameCoordinates,840CF62D-7C74-4BC5-9218-24160F8078A9*%
%TF.FilePolarity,Positive*%
%TF.FileFunction,Paste,Bot*%
%TF.Part,Single*%
G01*
G75*
%TA.AperFunction,SMDPad,CuDef*%
%ADD23R,0.90000X0.70000*%
%ADD35R,1.22000X0.91000*%
%ADD36R,0.70000X0.90000*%
%ADD53R,1.05000X1.70000*%
%ADD54R,0.80000X0.80000*%
%ADD55R,0.91000X1.22000*%
%ADD56R,1.70000X1.05000*%
G04:AMPARAMS|DCode=57|XSize=0.91mm|YSize=1.22mm|CornerRadius=0mm|HoleSize=0mm|Usage=FLASHONLY|Rotation=45.000|XOffset=0mm|YOffset=0mm|HoleType=Round|Shape=Rectangle|*
%AMROTATEDRECTD57*
4,1,4,0.10960,-0.75307,-0.75307,0.10960,-0.10960,0.75307,0.75307,-0.10960,0.10960,-0.75307,0.0*
%
%ADD57ROTATEDRECTD57*%

D23*
X27950000Y5492425D02*
D03*
Y5657825D02*
D03*
X28200000Y5492300D02*
D03*
Y5657700D02*
D03*
X28375000Y5492300D02*
D03*
Y5657700D02*
D03*
X28550000Y5492300D02*
D03*
Y5657700D02*
D03*
X27450000Y5692300D02*
D03*
Y5857700D02*
D03*
X3225000Y5692300D02*
D03*
X3000000D02*
D03*
X2775000D02*
D03*
X1300000D02*
D03*
X2025000D02*
D03*
X2550000D02*
D03*
X1575000Y5692300D02*
D03*
X2775000Y5857700D02*
D03*
X3225000D02*
D03*
X2550000D02*
D03*
X1300000D02*
D03*
X1575000Y5857700D02*
D03*
X2025000Y5857700D02*
D03*
X3000000D02*
D03*
D35*
X26775000Y7236500D02*
D03*
Y7563500D02*
D03*
X26375000Y7236500D02*
D03*
Y7563500D02*
D03*
X25400000Y7236500D02*
D03*
Y7563500D02*
D03*
X28950000Y7511500D02*
D03*
Y7838500D02*
D03*
X29200000Y7511500D02*
D03*
Y7838500D02*
D03*
X2300000Y6538500D02*
D03*
Y6211500D02*
D03*
X2000000Y6538500D02*
D03*
Y6211500D02*
D03*
X1700000Y6538500D02*
D03*
Y6211500D02*
D03*
X1100000Y6538500D02*
D03*
Y6211500D02*
D03*
X4000000Y7486500D02*
D03*
Y7813500D02*
D03*
X3600000D02*
D03*
Y7486500D02*
D03*
D36*
X26957700Y6300000D02*
D03*
X26792300D02*
D03*
X26292300D02*
D03*
X26457700D02*
D03*
D53*
X16355200Y6025000D02*
D03*
X16044800D02*
D03*
X17455200D02*
D03*
X17144800D02*
D03*
X16355200Y5625000D02*
D03*
X16044800D02*
D03*
X17455200D02*
D03*
X17144800D02*
D03*
X17455200Y1600000D02*
D03*
X17144800D02*
D03*
X17455200Y2000000D02*
D03*
X17144800D02*
D03*
X16355200Y1600000D02*
D03*
X16044800D02*
D03*
X16355200Y2000000D02*
D03*
X16044800D02*
D03*
X17455200Y3800000D02*
D03*
X17144800D02*
D03*
X17455200Y3400000D02*
D03*
X17144800D02*
D03*
X16355200Y3800000D02*
D03*
X16044800D02*
D03*
X16355200Y3400000D02*
D03*
X16044800D02*
D03*
X18055200Y2500000D02*
D03*
X17744800D02*
D03*
X18055200Y700000D02*
D03*
X17744800D02*
D03*
X18055200Y2900000D02*
D03*
X17744800D02*
D03*
X18055200Y1100000D02*
D03*
X17744800D02*
D03*
X16955200Y2500000D02*
D03*
X16644800D02*
D03*
X16955200Y700000D02*
D03*
X16644800D02*
D03*
X16955200Y1100000D02*
D03*
X16644800D02*
D03*
X16955200Y2900000D02*
D03*
X16644800D02*
D03*
X24630200Y1600000D02*
D03*
X24319800D02*
D03*
X25230200Y2900001D02*
D03*
X24919800D02*
D03*
X24630200Y6025000D02*
D03*
X24319800D02*
D03*
X25230200Y6925000D02*
D03*
X24919800D02*
D03*
X24630200Y3800000D02*
D03*
X24319800D02*
D03*
X25730200D02*
D03*
X25419800D02*
D03*
X26330200Y4725000D02*
D03*
X26019800D02*
D03*
X25230200D02*
D03*
X24919800D02*
D03*
X17744800Y6925000D02*
D03*
X18055200D02*
D03*
X17744800Y5125000D02*
D03*
X18055200D02*
D03*
X25230200Y700001D02*
D03*
X24919800D02*
D03*
X26330200D02*
D03*
X26019800D02*
D03*
X25230200Y5125000D02*
D03*
X24919800D02*
D03*
X24630200Y3400000D02*
D03*
X24319800D02*
D03*
X25230200Y1100001D02*
D03*
X24919800D02*
D03*
X25730200Y6025000D02*
D03*
X25419800D02*
D03*
X25230200Y6525000D02*
D03*
X24919800D02*
D03*
X24630200Y5625000D02*
D03*
X24319800D02*
D03*
X26330200Y6925000D02*
D03*
X26019800D02*
D03*
X25730200Y5625000D02*
D03*
X25419800Y5625000D02*
D03*
X26330200Y6525000D02*
D03*
X26019800D02*
D03*
X26330200Y1100001D02*
D03*
X26019800D02*
D03*
X25730200Y3400000D02*
D03*
X25419800D02*
D03*
X26330200Y5125000D02*
D03*
X26019800D02*
D03*
X16644800Y4725000D02*
D03*
X16955200D02*
D03*
X16644800Y5125000D02*
D03*
X16955200D02*
D03*
X16644800Y6925000D02*
D03*
X16955200D02*
D03*
X17744800Y6525000D02*
D03*
X18055200D02*
D03*
X24630200Y2000000D02*
D03*
X24319800D02*
D03*
X25230200Y2500001D02*
D03*
X24919800D02*
D03*
X17744800Y4725000D02*
D03*
X18055200D02*
D03*
X16644800Y6525000D02*
D03*
X16955200D02*
D03*
X26330200Y2500001D02*
D03*
X26019800D02*
D03*
X25730200Y2000000D02*
D03*
X25419800D02*
D03*
X26330200Y2900001D02*
D03*
X26019800D02*
D03*
X25730200Y1600000D02*
D03*
X25419800D02*
D03*
X5680200D02*
D03*
X5369800D02*
D03*
X5680200Y3400000D02*
D03*
X5369800D02*
D03*
X5080200Y7050000D02*
D03*
X4769800D02*
D03*
X3980200Y5250000D02*
D03*
X3669800D02*
D03*
X4580200Y3800000D02*
D03*
X4269800D02*
D03*
X4580200Y2000000D02*
D03*
X4269800D02*
D03*
X5680200Y5750000D02*
D03*
X5369800D02*
D03*
X5080200Y5250000D02*
D03*
X4769800D02*
D03*
X3980200Y7050000D02*
D03*
X3669800D02*
D03*
X4580200Y5750000D02*
D03*
X4269800D02*
D03*
X4580200Y3400000D02*
D03*
X4269800D02*
D03*
X4580200Y1600000D02*
D03*
X4269800D02*
D03*
X5080200Y1100000D02*
D03*
X4769800D02*
D03*
X5080200Y2900000D02*
D03*
X4769800D02*
D03*
X5680200Y6150000D02*
D03*
X5369800D02*
D03*
X5080200Y4850000D02*
D03*
X4769800D02*
D03*
X3980200Y1100000D02*
D03*
X3669800D02*
D03*
X3980200Y2900000D02*
D03*
X3669800D02*
D03*
X5080200Y2500000D02*
D03*
X4769800D02*
D03*
X5080200Y700000D02*
D03*
X4769800D02*
D03*
X5680200Y2000000D02*
D03*
X5369800D02*
D03*
X5680200Y3800000D02*
D03*
X5369800D02*
D03*
X5080200Y6650000D02*
D03*
X4769800D02*
D03*
X3980200D02*
D03*
X3669800D02*
D03*
X3980200Y4850000D02*
D03*
X3669800D02*
D03*
X3980200Y700000D02*
D03*
X3669800D02*
D03*
X4580200Y6150000D02*
D03*
X4269800D02*
D03*
X3980200Y2500000D02*
D03*
X3669800D02*
D03*
X12255200Y1100000D02*
D03*
X13044800D02*
D03*
X11944800D02*
D03*
Y700001D02*
D03*
X13955200Y2000000D02*
D03*
Y3400000D02*
D03*
Y3800000D02*
D03*
X13355200Y1100000D02*
D03*
X13355200Y2900000D02*
D03*
Y700000D02*
D03*
Y2500000D02*
D03*
X13955200Y1600000D02*
D03*
X13044800Y700000D02*
D03*
X12255200Y700001D02*
D03*
X13644800Y1600000D02*
D03*
X12855200Y3400000D02*
D03*
X12544800D02*
D03*
X12255200Y2500000D02*
D03*
X11944800D02*
D03*
X13044800Y2500000D02*
D03*
X13955200Y6025000D02*
D03*
X13644800D02*
D03*
X13355200Y6525000D02*
D03*
X13044800D02*
D03*
Y2900000D02*
D03*
X12855200Y3800000D02*
D03*
X12544800D02*
D03*
X12255200Y5125000D02*
D03*
X11944800D02*
D03*
X12855200Y1600000D02*
D03*
X12544800D02*
D03*
X13644800Y3800000D02*
D03*
X13355200Y6925000D02*
D03*
X13044800D02*
D03*
X12855200Y6025000D02*
D03*
X12544800D02*
D03*
X12255200Y4725000D02*
D03*
X11944800D02*
D03*
X12255200Y2900000D02*
D03*
X11944800Y2900000D02*
D03*
X13644800Y3400000D02*
D03*
X13355200Y4725000D02*
D03*
X13044800D02*
D03*
X12255200Y6525000D02*
D03*
X11944800D02*
D03*
X12855200Y2000000D02*
D03*
X12544800Y2000001D02*
D03*
X12255200Y6925000D02*
D03*
X11944800D02*
D03*
X12855200Y5625000D02*
D03*
X12544800D02*
D03*
X13644800Y2000000D02*
D03*
X13355200Y5125000D02*
D03*
X13044800D02*
D03*
X13955200Y5625000D02*
D03*
X13644800D02*
D03*
X544800Y6525000D02*
D03*
X855200D02*
D03*
D54*
X25600000Y7250000D02*
D03*
X25750000D02*
D03*
X700000Y6325000D02*
D03*
X550000D02*
D03*
D55*
X18936501Y5950000D02*
D03*
X19263499D02*
D03*
X18936501Y6925000D02*
D03*
X19263499D02*
D03*
X18738499Y6925000D02*
D03*
X18411501D02*
D03*
X3661500Y6375000D02*
D03*
X3988500D02*
D03*
D56*
X25975000Y7244800D02*
D03*
Y7555200D02*
D03*
D57*
X6231350Y3481350D02*
D03*
X6462574Y3712574D02*
D03*
%TF.MD5,c014b51edc1507d2721faed0c432c877*%
M02*
