%TF.GenerationSoftware,Altium Limited,Altium Designer,26.5.1 (12)*%
G04 Layer_Color=8421504*
G04 Board_Origin=38070866|8218504*
%FSLAX45Y45*%
%MOMM*%
%TF.SameCoordinates,840CF62D-7C74-4BC5-9218-24160F8078A9*%
%TF.FilePolarity,Positive*%
%TF.FileFunction,Paste,Top*%
%TF.Part,Single*%
G01*
G75*
%TA.AperFunction,SMDPad,CuDef*%
%ADD10R,1.30000X4.99999*%
%ADD11R,1.50000X3.79999*%
%ADD12R,4.99999X1.30000*%
%ADD13R,3.79999X1.50000*%
%ADD14R,0.50000X0.50000*%
G04:AMPARAMS|DCode=15|XSize=1.475mm|YSize=0.3mm|CornerRadius=0mm|HoleSize=0mm|Usage=FLASHONLY|Rotation=45.000|XOffset=0mm|YOffset=0mm|HoleType=Round|Shape=Rectangle|*
%AMROTATEDRECTD15*
4,1,4,-0.41543,-0.62756,-0.62756,-0.41543,0.41543,0.62756,0.62756,0.41543,-0.41543,-0.62756,0.0*
%
%ADD15ROTATEDRECTD15*%

%ADD16R,1.27000X0.76000*%
%ADD17P,0.70711X4X180.0*%
%ADD18R,0.80000X0.80000*%
G04:AMPARAMS|DCode=19|XSize=0.9mm|YSize=0.7mm|CornerRadius=0mm|HoleSize=0mm|Usage=FLASHONLY|Rotation=45.000|XOffset=0mm|YOffset=0mm|HoleType=Round|Shape=Rectangle|*
%AMROTATEDRECTD19*
4,1,4,-0.07071,-0.56569,-0.56569,-0.07071,0.07071,0.56569,0.56569,0.07071,-0.07071,-0.56569,0.0*
%
%ADD19ROTATEDRECTD19*%

G04:AMPARAMS|DCode=20|XSize=0.9mm|YSize=0.7mm|CornerRadius=0mm|HoleSize=0mm|Usage=FLASHONLY|Rotation=315.000|XOffset=0mm|YOffset=0mm|HoleType=Round|Shape=Rectangle|*
%AMROTATEDRECTD20*
4,1,4,-0.56569,0.07071,-0.07071,0.56569,0.56569,-0.07071,0.07071,-0.56569,-0.56569,0.07071,0.0*
%
%ADD20ROTATEDRECTD20*%

G04:AMPARAMS|DCode=21|XSize=1.475mm|YSize=0.3mm|CornerRadius=0mm|HoleSize=0mm|Usage=FLASHONLY|Rotation=135.000|XOffset=0mm|YOffset=0mm|HoleType=Round|Shape=Rectangle|*
%AMROTATEDRECTD21*
4,1,4,0.62756,-0.41543,0.41543,-0.62756,-0.62756,0.41543,-0.41543,0.62756,0.62756,-0.41543,0.0*
%
%ADD21ROTATEDRECTD21*%

%ADD22R,0.50000X0.50000*%
%ADD23R,0.90000X0.70000*%
G04:AMPARAMS|DCode=24|XSize=0.5mm|YSize=0.6mm|CornerRadius=0mm|HoleSize=0mm|Usage=FLASHONLY|Rotation=45.000|XOffset=0mm|YOffset=0mm|HoleType=Round|Shape=Rectangle|*
%AMROTATEDRECTD24*
4,1,4,0.03535,-0.38891,-0.38891,0.03535,-0.03535,0.38891,0.38891,-0.03535,0.03535,-0.38891,0.0*
%
%ADD24ROTATEDRECTD24*%

%TA.AperFunction,FiducialPad,Global*%
%ADD25C,1.50000*%
%TA.AperFunction,SMDPad,CuDef*%
%ADD26P,1.13137X4X180.0*%
G04:AMPARAMS|DCode=27|XSize=0.5mm|YSize=0.6mm|CornerRadius=0mm|HoleSize=0mm|Usage=FLASHONLY|Rotation=315.000|XOffset=0mm|YOffset=0mm|HoleType=Round|Shape=Rectangle|*
%AMROTATEDRECTD27*
4,1,4,-0.38891,-0.03535,0.03535,0.38891,0.38891,0.03535,-0.03535,-0.38891,-0.38891,-0.03535,0.0*
%
%ADD27ROTATEDRECTD27*%

%ADD28P,1.13137X4X270.0*%
%ADD29P,0.70711X4X90.0*%
%ADD30P,9.89950X4X180.0*%
%ADD31R,0.60000X0.50000*%
%ADD32R,0.90000X2.00000*%
%ADD33R,1.30000X0.90000*%
%ADD34R,0.50000X0.60000*%
%ADD35R,1.22000X0.91000*%
%ADD36R,0.70000X0.90000*%
D10*
X26200003Y7039999D02*
D03*
X25950003D02*
D03*
X26450003D02*
D03*
X26700003D02*
D03*
X26950000D02*
D03*
X27200000D02*
D03*
X27450000D02*
D03*
X27700000D02*
D03*
X27950000D02*
D03*
X28200000D02*
D03*
X28449997D02*
D03*
X28699997D02*
D03*
X28949997D02*
D03*
X29199997D02*
D03*
X29449997D02*
D03*
X800003D02*
D03*
X550003D02*
D03*
X1050002D02*
D03*
X1300002D02*
D03*
X1550001D02*
D03*
X1800001D02*
D03*
X2050000D02*
D03*
X2300000D02*
D03*
X2549999D02*
D03*
X2799999D02*
D03*
X3049998D02*
D03*
X3299998D02*
D03*
X3549997D02*
D03*
X3799997D02*
D03*
X4049996D02*
D03*
X22799997Y7039999D02*
D03*
X22550005D02*
D03*
X21299997D02*
D03*
X21050005D02*
D03*
X19799995D02*
D03*
X19550005D02*
D03*
X7449997Y7039999D02*
D03*
X7200004D02*
D03*
X8949997D02*
D03*
X8700004D02*
D03*
X10449996Y7039999D02*
D03*
X10200003D02*
D03*
X11949996D02*
D03*
X11700004D02*
D03*
X18299995D02*
D03*
X18050005D02*
D03*
D11*
X25660004Y7760000D02*
D03*
X29739996D02*
D03*
X260004D02*
D03*
X4339996D02*
D03*
X23089996Y7760000D02*
D03*
X22260004D02*
D03*
X21589996D02*
D03*
X20760004D02*
D03*
X20089996D02*
D03*
X19260004D02*
D03*
X7739996Y7760000D02*
D03*
X6910004D02*
D03*
X9239996D02*
D03*
X8410004D02*
D03*
X10739996Y7760000D02*
D03*
X9910004D02*
D03*
X12239996D02*
D03*
X11410004D02*
D03*
X18589996D02*
D03*
X17760004D02*
D03*
D12*
X985001Y1874997D02*
D03*
Y1625004D02*
D03*
D13*
X265000Y2164996D02*
D03*
Y1335004D02*
D03*
D14*
X21225000Y4325000D02*
D03*
X21325000D02*
D03*
X21050005Y4325010D02*
D03*
X21150005D02*
D03*
X19725005Y6725010D02*
D03*
X19625005D02*
D03*
X22725005D02*
D03*
X22625005D02*
D03*
X21225005D02*
D03*
X21125005D02*
D03*
X18225005D02*
D03*
X18125005D02*
D03*
X21544995Y4424990D02*
D03*
X21470004Y4425010D02*
D03*
X8951729Y4352783D02*
D03*
X8651738Y4352802D02*
D03*
X2699995Y3999990D02*
D03*
X7275005Y6725010D02*
D03*
X8775005D02*
D03*
X10275005D02*
D03*
X11775005D02*
D03*
X8751738Y4352802D02*
D03*
X8851729Y4352783D02*
D03*
X11875005Y6725010D02*
D03*
X10375005D02*
D03*
X8875005D02*
D03*
X7375005D02*
D03*
X27275006Y4000010D02*
D03*
X21370004Y4425010D02*
D03*
X21644995Y4424990D02*
D03*
X2599995Y3999990D02*
D03*
X27375006Y4000010D02*
D03*
D15*
X21411284Y4100192D02*
D03*
X21375928Y4135548D02*
D03*
X21059427Y2829097D02*
D03*
X20882651Y3005874D02*
D03*
X20988716Y2899808D02*
D03*
X20776585Y3111940D02*
D03*
X20741229Y3147295D02*
D03*
X20918005Y2970519D02*
D03*
X21340573Y4170903D02*
D03*
X21446638Y4064837D02*
D03*
X21517349Y3994126D02*
D03*
X21552705Y3958771D02*
D03*
X21623415Y3888060D02*
D03*
X21694125Y3817349D02*
D03*
X21729482Y3781994D02*
D03*
X21764838Y3746639D02*
D03*
X21800192Y3711284D02*
D03*
X21835548Y3675928D02*
D03*
X21870903Y3640573D02*
D03*
X21024072Y2864452D02*
D03*
X20953362Y2935163D02*
D03*
X20847295Y3041229D02*
D03*
X20811940Y3076585D02*
D03*
X20705875Y3182651D02*
D03*
X20670518Y3218006D02*
D03*
X20635162Y3253361D02*
D03*
X20599808Y3288717D02*
D03*
X21658771Y3852705D02*
D03*
X21588060Y3923416D02*
D03*
X21481995Y4029482D02*
D03*
X20529097Y3359427D02*
D03*
X20564452Y3324072D02*
D03*
X8164452D02*
D03*
X8129097Y3359427D02*
D03*
X8341229Y3147295D02*
D03*
X8553361Y2935163D02*
D03*
X8376584Y3111940D02*
D03*
X8199808Y3288717D02*
D03*
X8518006Y2970519D02*
D03*
X9081994Y4029482D02*
D03*
X9188060Y3923416D02*
D03*
X9258771Y3852705D02*
D03*
X8975928Y4135548D02*
D03*
X9046639Y4064837D02*
D03*
X8940573Y4170903D02*
D03*
X9011283Y4100192D02*
D03*
X8235163Y3253361D02*
D03*
X8270518Y3218006D02*
D03*
X8305874Y3182651D02*
D03*
X8411940Y3076585D02*
D03*
X8447295Y3041229D02*
D03*
X8482651Y3005874D02*
D03*
X8588716Y2899808D02*
D03*
X8624072Y2864452D02*
D03*
X8659427Y2829097D02*
D03*
X9470903Y3640573D02*
D03*
X9435548Y3675928D02*
D03*
X9400192Y3711284D02*
D03*
X9364837Y3746639D02*
D03*
X9329481Y3781994D02*
D03*
X9294126Y3817349D02*
D03*
X9223415Y3888060D02*
D03*
X9152705Y3958771D02*
D03*
X9117349Y3994126D02*
D03*
D16*
X15419000Y3746000D02*
D03*
Y4254000D02*
D03*
X15419000Y4000000D02*
D03*
X14581000D02*
D03*
X27481000Y3246000D02*
D03*
Y3754000D02*
D03*
X2519000Y3246000D02*
D03*
X14581000Y3746000D02*
D03*
Y4254000D02*
D03*
X2519000Y3754000D02*
D03*
X2519000Y3500000D02*
D03*
X1681000Y3246000D02*
D03*
X1681000Y3500000D02*
D03*
X1681000Y3754000D02*
D03*
X27481000Y3500000D02*
D03*
X28319000Y3754000D02*
D03*
X28319000Y3500000D02*
D03*
X28319000Y3246000D02*
D03*
D17*
X9360345Y4439641D02*
D03*
X9289634Y4510352D02*
D03*
X9148213Y4651773D02*
D03*
X9218924Y4581062D02*
D03*
X21589655Y4185359D02*
D03*
X21660365Y4114649D02*
D03*
X20860345Y2064641D02*
D03*
X20789635Y2135352D02*
D03*
X20635345Y2289641D02*
D03*
X20564635Y2360352D02*
D03*
X19889635Y3035352D02*
D03*
X19960345Y2964641D02*
D03*
X20339635Y2585352D02*
D03*
X20410345Y2514641D02*
D03*
X20114635Y2810351D02*
D03*
X20185345Y2739641D02*
D03*
X22185365Y4239649D02*
D03*
X22114655Y4310360D02*
D03*
X22410365Y4014649D02*
D03*
X22339655Y4085359D02*
D03*
X21960365Y4464648D02*
D03*
X21889655Y4535359D02*
D03*
X22635365Y3789649D02*
D03*
X22564655Y3860359D02*
D03*
X20214655Y3435359D02*
D03*
X20285365Y3364649D02*
D03*
X7960366Y3439648D02*
D03*
X7889655Y3510359D02*
D03*
X7539634Y2985352D02*
D03*
X7610345Y2914641D02*
D03*
X7764634Y2760352D02*
D03*
X7835345Y2689641D02*
D03*
X7989634Y2535352D02*
D03*
X8060345Y2464641D02*
D03*
X8214634Y2310352D02*
D03*
X8285345Y2239641D02*
D03*
X8439634Y2085352D02*
D03*
X8510345Y2014641D02*
D03*
X9614655Y4460359D02*
D03*
X9310345Y4039641D02*
D03*
X10360366Y3714648D02*
D03*
X10289655Y3785359D02*
D03*
X9913399Y4161615D02*
D03*
X9842688Y4232326D02*
D03*
X9685366Y4389648D02*
D03*
X10138399Y3936615D02*
D03*
X10067688Y4007326D02*
D03*
X9239634Y4110352D02*
D03*
D18*
X27700000Y6650000D02*
D03*
X27200000D02*
D03*
X26950000D02*
D03*
Y6500000D02*
D03*
X28200000Y6650000D02*
D03*
Y6500000D02*
D03*
X26700000Y6650000D02*
D03*
X26700000Y6500000D02*
D03*
X28450000Y6650000D02*
D03*
Y6500000D02*
D03*
X26200000Y6650000D02*
D03*
Y6500000D02*
D03*
X26450000Y6650000D02*
D03*
Y6500000D02*
D03*
X27200000D02*
D03*
X27950000Y6650000D02*
D03*
Y6500000D02*
D03*
X27700000D02*
D03*
X28950000Y6650000D02*
D03*
Y6500000D02*
D03*
X29200000Y6650000D02*
D03*
Y6500000D02*
D03*
X28700000Y6650000D02*
D03*
Y6500000D02*
D03*
X27450000Y6650000D02*
D03*
Y6500000D02*
D03*
X2800000Y6650000D02*
D03*
X7175000Y3350000D02*
D03*
Y3500000D02*
D03*
X1300000Y6650000D02*
D03*
X1050000Y6650000D02*
D03*
X800000D02*
D03*
X1800000Y6650000D02*
D03*
X1550000Y6650000D02*
D03*
X7175000Y3650000D02*
D03*
X1050000Y6500000D02*
D03*
X6275000Y3175000D02*
D03*
X7175000Y3200000D02*
D03*
X6275000Y3675000D02*
D03*
X3800000Y6500000D02*
D03*
X3550000D02*
D03*
X3300000D02*
D03*
X3050000D02*
D03*
X2800000D02*
D03*
X2550000D02*
D03*
X2300000D02*
D03*
X2050000D02*
D03*
X1799999D02*
D03*
X1550000D02*
D03*
X1300000D02*
D03*
X800000D02*
D03*
X2050000Y6650000D02*
D03*
X2300000D02*
D03*
X2550000D02*
D03*
X3050000D02*
D03*
X3300000D02*
D03*
X3550000D02*
D03*
X3800000D02*
D03*
X6275000Y3525000D02*
D03*
Y3325000D02*
D03*
D19*
X22033478Y1891523D02*
D03*
X22366522Y2458478D02*
D03*
X22483478Y2341523D02*
D03*
X22591522Y2683478D02*
D03*
X22708478Y2566523D02*
D03*
X21808478Y1666523D02*
D03*
X21691522Y1783478D02*
D03*
X22258478Y2116523D02*
D03*
X22141522Y2233478D02*
D03*
X21916522Y2008478D02*
D03*
X23158478Y3016523D02*
D03*
X23041522Y3133478D02*
D03*
X22933476Y2791522D02*
D03*
X22816522Y2908478D02*
D03*
X10508478Y2716522D02*
D03*
X10283477Y2491522D02*
D03*
X10058477Y2266522D02*
D03*
X9266522Y1708478D02*
D03*
X9383477Y1591522D02*
D03*
X9491522Y1933478D02*
D03*
X9608477Y1816522D02*
D03*
X9716522Y2158478D02*
D03*
X9833477Y2041522D02*
D03*
X9941522Y2383478D02*
D03*
X10166522Y2608478D02*
D03*
X10391522Y2833478D02*
D03*
X10616522Y3058478D02*
D03*
X10733478Y2941522D02*
D03*
D20*
X20341522Y1841523D02*
D03*
X19891524Y2291522D02*
D03*
X20008478Y2408478D02*
D03*
X19558478Y2858478D02*
D03*
X19441522Y2741523D02*
D03*
X20458478Y1958478D02*
D03*
X20116522Y2066523D02*
D03*
X20233478Y2183478D02*
D03*
X19666522Y2516523D02*
D03*
X19783478Y2633478D02*
D03*
X20566522Y5216522D02*
D03*
X20683478Y5333478D02*
D03*
X20266522Y4916523D02*
D03*
X20383478Y5033478D02*
D03*
X22633478Y4533478D02*
D03*
X22516522Y4416522D02*
D03*
X19966522Y4616523D02*
D03*
X20083478Y4733478D02*
D03*
X22408476Y4758478D02*
D03*
X22291522Y4641522D02*
D03*
X19666522Y4316523D02*
D03*
X19783478Y4433478D02*
D03*
X22858478Y4308478D02*
D03*
X22741522Y4191522D02*
D03*
X7091522Y2691523D02*
D03*
X7208477Y2808478D02*
D03*
X7316522Y2466522D02*
D03*
X7433478Y2583478D02*
D03*
X7541522Y2241522D02*
D03*
X7658478Y2358478D02*
D03*
X7991522Y1791522D02*
D03*
X8108478Y1908478D02*
D03*
X7766522Y2016523D02*
D03*
X7883478Y2133478D02*
D03*
X8009197Y4984210D02*
D03*
X8126152Y5101166D02*
D03*
X7709196Y4709210D02*
D03*
X7826152Y4826166D02*
D03*
X7409197Y4434210D02*
D03*
X7526152Y4551166D02*
D03*
X7109196Y4159210D02*
D03*
X7226152Y4276166D02*
D03*
X10469555Y4113489D02*
D03*
X10586511Y4230444D02*
D03*
X10244555Y4338489D02*
D03*
X10361511Y4455444D02*
D03*
X10016522Y4566522D02*
D03*
X10133478Y4683478D02*
D03*
D21*
X21411284Y2899808D02*
D03*
X20599808Y3711284D02*
D03*
X20635162Y3746639D02*
D03*
X20670518Y3781994D02*
D03*
X20953362Y4064837D02*
D03*
X20988716Y4100192D02*
D03*
X21024072Y4135548D02*
D03*
X21059427Y4170903D02*
D03*
X21870903Y3359427D02*
D03*
X21835548Y3324072D02*
D03*
X21800192Y3288717D02*
D03*
X21764838Y3253361D02*
D03*
X21729482Y3218006D02*
D03*
X21694125Y3182651D02*
D03*
X21658771Y3147295D02*
D03*
X21623415Y3111940D02*
D03*
X21588060Y3076585D02*
D03*
X21552705Y3041229D02*
D03*
X21517349Y3005874D02*
D03*
X21481995Y2970519D02*
D03*
X21446638Y2935163D02*
D03*
X21375928Y2864452D02*
D03*
X21340573Y2829097D02*
D03*
X20918005Y4029482D02*
D03*
X20882651Y3994126D02*
D03*
X20847295Y3958771D02*
D03*
X20811940Y3923416D02*
D03*
X20776585Y3888060D02*
D03*
X20741229Y3852705D02*
D03*
X20705875Y3817349D02*
D03*
X20564452Y3675928D02*
D03*
X20529097Y3640573D02*
D03*
X9081994Y2970519D02*
D03*
X8376584Y3888060D02*
D03*
X8411940Y3923416D02*
D03*
X8940573Y2829097D02*
D03*
X8129097Y3640573D02*
D03*
X8164452Y3675928D02*
D03*
X8305874Y3817349D02*
D03*
X8341229Y3852705D02*
D03*
X8447295Y3958771D02*
D03*
X8482651Y3994126D02*
D03*
X8518006Y4029482D02*
D03*
X8270518Y3781994D02*
D03*
X8975928Y2864452D02*
D03*
X9011283Y2899808D02*
D03*
X9046639Y2935163D02*
D03*
X9117349Y3005874D02*
D03*
X9152705Y3041229D02*
D03*
X9188060Y3076585D02*
D03*
X9223415Y3111940D02*
D03*
X9258771Y3147295D02*
D03*
X9294126Y3182651D02*
D03*
X9329481Y3218006D02*
D03*
X9364837Y3253361D02*
D03*
X9400192Y3288717D02*
D03*
X9435548Y3324072D02*
D03*
X9470903Y3359427D02*
D03*
X8659427Y4170903D02*
D03*
X8624072Y4135548D02*
D03*
X8588716Y4100192D02*
D03*
X8553361Y4064837D02*
D03*
X8235163Y3746639D02*
D03*
X8199808Y3711284D02*
D03*
D22*
X15749989Y4500005D02*
D03*
Y4400005D02*
D03*
X14250011Y4499995D02*
D03*
Y4399995D02*
D03*
D23*
X15600000Y4507700D02*
D03*
Y4342300D02*
D03*
X14400000Y4507700D02*
D03*
Y4342300D02*
D03*
D24*
X9764645Y4314645D02*
D03*
X9835355Y4385355D02*
D03*
X19964645Y2814645D02*
D03*
X20035355Y2885355D02*
D03*
X19810355Y3110355D02*
D03*
X19739645Y3039645D02*
D03*
X20710355Y2210355D02*
D03*
X20639645Y2139645D02*
D03*
X20414645Y2364645D02*
D03*
X20485355Y2435356D02*
D03*
X20189645Y2589645D02*
D03*
X20260355Y2660356D02*
D03*
X22110355Y4460356D02*
D03*
X22039645Y4389645D02*
D03*
X22335355Y4235356D02*
D03*
X22264645Y4164645D02*
D03*
X22560355Y4010355D02*
D03*
X22489645Y3939645D02*
D03*
X7389644Y2989645D02*
D03*
X7460355Y3060356D02*
D03*
X7839645Y2539645D02*
D03*
X7910355Y2610355D02*
D03*
X7614645Y2764645D02*
D03*
X7685355Y2835355D02*
D03*
X8064645Y2314645D02*
D03*
X8135355Y2385355D02*
D03*
X8289645Y2089645D02*
D03*
X8360355Y2160355D02*
D03*
X10288388Y3932322D02*
D03*
X10217678Y3861612D02*
D03*
X10063388Y4157322D02*
D03*
X9992678Y4086612D02*
D03*
D25*
X15000000Y1200000D02*
D03*
X29750000Y6600000D02*
D03*
X250000D02*
D03*
D26*
X20653033Y1946967D02*
D03*
X20546967Y2053033D02*
D03*
X20428033Y2171967D02*
D03*
X20321967Y2278033D02*
D03*
X20203033Y2396967D02*
D03*
X20096967Y2503033D02*
D03*
X19753033Y2846967D02*
D03*
X19646967Y2953033D02*
D03*
X19871967Y2728033D02*
D03*
X19978033Y2621967D02*
D03*
X20096967Y3378033D02*
D03*
X20203033Y3271967D02*
D03*
X22428033Y4321967D02*
D03*
X22321967Y4428033D02*
D03*
X22653033Y4096967D02*
D03*
X22546967Y4203033D02*
D03*
X22203033Y4546967D02*
D03*
X22096967Y4653033D02*
D03*
X21753033Y4196967D02*
D03*
X21646967Y4303033D02*
D03*
X7878033Y3371967D02*
D03*
X7771967Y3478033D02*
D03*
X7628033Y2571967D02*
D03*
X7521967Y2678033D02*
D03*
X7403033Y2796967D02*
D03*
X7296967Y2903033D02*
D03*
X7853033Y2346967D02*
D03*
X7746967Y2453033D02*
D03*
X8078033Y2121967D02*
D03*
X7971967Y2228033D02*
D03*
X8303033Y1896967D02*
D03*
X8196967Y2003033D02*
D03*
X9821967Y4578033D02*
D03*
X10050000Y4350000D02*
D03*
X10275000Y4125000D02*
D03*
X9456317Y4100251D02*
D03*
X9350251Y4206317D02*
D03*
X10381066Y4018934D02*
D03*
X10156066Y4243934D02*
D03*
X9928033Y4471967D02*
D03*
D27*
X22410355Y2864645D02*
D03*
X22339645Y2935356D02*
D03*
X21960355Y2414645D02*
D03*
X21889645Y2485355D02*
D03*
X22185355Y2639645D02*
D03*
X22114645Y2710356D02*
D03*
X22860355Y3314645D02*
D03*
X22789645Y3385355D02*
D03*
X21735355Y2189645D02*
D03*
X21664645Y2260355D02*
D03*
X20789645Y5385355D02*
D03*
X20860356Y5314645D02*
D03*
X19889645Y4485356D02*
D03*
X19960356Y4414645D02*
D03*
X22635355Y3089645D02*
D03*
X22564645Y3160355D02*
D03*
X20339645Y4635355D02*
D03*
X20410355Y4564645D02*
D03*
X20639645Y4935355D02*
D03*
X20710355Y4864645D02*
D03*
X21510355Y1964645D02*
D03*
X21439645Y2035356D02*
D03*
X20939645Y5235356D02*
D03*
X21010355Y5164645D02*
D03*
X20489645Y5085356D02*
D03*
X20560355Y5014645D02*
D03*
X20189645Y4785355D02*
D03*
X20260355Y4714645D02*
D03*
X20039645Y4335356D02*
D03*
X20110355Y4264645D02*
D03*
X9014644Y1960355D02*
D03*
X10210355Y3014644D02*
D03*
X10139644Y3085355D02*
D03*
X10435355Y3239645D02*
D03*
X10364645Y3310355D02*
D03*
X7657319Y4603043D02*
D03*
X7728030Y4532333D02*
D03*
X8107319Y4728043D02*
D03*
X8178030Y4657333D02*
D03*
X7957319Y4878044D02*
D03*
X8028030Y4807333D02*
D03*
X7807319Y4453043D02*
D03*
X7878029Y4382333D02*
D03*
X7357319Y4328043D02*
D03*
X7428030Y4257333D02*
D03*
X9760355Y2564645D02*
D03*
X9689645Y2635355D02*
D03*
X9985355Y2789645D02*
D03*
X9914644Y2860355D02*
D03*
X7207319Y3903044D02*
D03*
X7278030Y3832333D02*
D03*
X7057319Y4053043D02*
D03*
X7128030Y3982333D02*
D03*
X7507319Y4178043D02*
D03*
X7578030Y4107333D02*
D03*
X9310355Y2114644D02*
D03*
X9239644Y2185355D02*
D03*
X9085355Y1889645D02*
D03*
X9535355Y2339645D02*
D03*
X9464645Y2410355D02*
D03*
D28*
X22271967Y2546967D02*
D03*
X22378033Y2653033D02*
D03*
X22046967Y2321967D02*
D03*
X22153033Y2428033D02*
D03*
X21821967Y2096967D02*
D03*
X21928033Y2203033D02*
D03*
X20521967Y3921967D02*
D03*
X20628033Y4028033D02*
D03*
X21596967Y1871967D02*
D03*
X21703033Y1978033D02*
D03*
X22496967Y2771967D02*
D03*
X22603033Y2878033D02*
D03*
X22946967Y3221967D02*
D03*
X23053033Y3328033D02*
D03*
X22721967Y2996968D02*
D03*
X22828033Y3103033D02*
D03*
X10628033Y3253033D02*
D03*
X10403033Y3028033D02*
D03*
X10178033Y2803033D02*
D03*
X9953033Y2578033D02*
D03*
X9728033Y2353033D02*
D03*
X9503033Y2128033D02*
D03*
X9278033Y1903033D02*
D03*
X8128033Y3928033D02*
D03*
X8021967Y3821967D02*
D03*
X9171967Y1796967D02*
D03*
X9396967Y2021967D02*
D03*
X9621967Y2246967D02*
D03*
X9846967Y2471967D02*
D03*
X10071967Y2696967D02*
D03*
X10296967Y2921967D02*
D03*
X10521967Y3146967D02*
D03*
D29*
X20335352Y4485366D02*
D03*
X20264641Y4414655D02*
D03*
X20935352Y5085366D02*
D03*
X20864641Y5014655D02*
D03*
X21514648Y2114635D02*
D03*
X21585359Y2185345D02*
D03*
X20560352Y4860366D02*
D03*
X20489641Y4789655D02*
D03*
X19960352Y4260366D02*
D03*
X19889641Y4189655D02*
D03*
X21964648Y2564634D02*
D03*
X22035359Y2635345D02*
D03*
X22639648Y3239635D02*
D03*
X22710359Y3310345D02*
D03*
X20260352Y4560366D02*
D03*
X20189641Y4489655D02*
D03*
X20414648Y4864634D02*
D03*
X20485359Y4935345D02*
D03*
X20860352Y5160366D02*
D03*
X20789641Y5089655D02*
D03*
X20714648Y5164635D02*
D03*
X20785359Y5235345D02*
D03*
X19814648Y4264635D02*
D03*
X19885359Y4335345D02*
D03*
X20635352Y4785366D02*
D03*
X20564641Y4714655D02*
D03*
X21739648Y2339635D02*
D03*
X21810359Y2410345D02*
D03*
X20035352Y4185366D02*
D03*
X19964641Y4114655D02*
D03*
X20114648Y4564635D02*
D03*
X20185359Y4635345D02*
D03*
X9089648Y2039634D02*
D03*
X7353033Y4053033D02*
D03*
X7428033Y3978033D02*
D03*
X7653033Y4328033D02*
D03*
X7728034Y4253033D02*
D03*
X7953033Y4603033D02*
D03*
X8028033Y4528033D02*
D03*
X8253034Y4878033D02*
D03*
X8328033Y4803033D02*
D03*
X7578026Y4403054D02*
D03*
X7507315Y4332343D02*
D03*
X7957322Y4457322D02*
D03*
X10214648Y3164634D02*
D03*
X10285359Y3235345D02*
D03*
X8178026Y4953054D02*
D03*
X8107315Y4882343D02*
D03*
X7882323Y4532322D02*
D03*
X7357323Y3907322D02*
D03*
X8257323Y4732323D02*
D03*
X9539648Y2489634D02*
D03*
X9610359Y2560345D02*
D03*
X7278026Y4128054D02*
D03*
X7207315Y4057343D02*
D03*
X7657323Y4182323D02*
D03*
X7878026Y4678054D02*
D03*
X7807315Y4607343D02*
D03*
X7582323Y4257322D02*
D03*
X9314648Y2264634D02*
D03*
X9385359Y2335345D02*
D03*
X9160359Y2110345D02*
D03*
X8182323Y4807323D02*
D03*
X7282322Y3982322D02*
D03*
D30*
X21200000Y3500000D02*
D03*
X8800000D02*
D03*
D31*
X27275821Y3450000D02*
D03*
Y3550000D02*
D03*
X2750000Y3695000D02*
D03*
Y3305000D02*
D03*
Y3555000D02*
D03*
Y3445000D02*
D03*
X27275821Y3310000D02*
D03*
Y3690000D02*
D03*
D32*
X2227000Y1725000D02*
D03*
X1973000D02*
D03*
X2227000Y875000D02*
D03*
X1973000D02*
D03*
D33*
X6950000Y3330000D02*
D03*
Y3520000D02*
D03*
D34*
X6775000Y3325000D02*
D03*
Y3525000D02*
D03*
X6675000D02*
D03*
Y3325000D02*
D03*
D35*
X6475000Y2511500D02*
D03*
Y4338500D02*
D03*
Y3863500D02*
D03*
Y3536500D02*
D03*
Y4011500D02*
D03*
Y2986500D02*
D03*
Y3313500D02*
D03*
Y2838500D02*
D03*
D36*
X2482700Y4000000D02*
D03*
X2317300D02*
D03*
X27517300D02*
D03*
X27682700D02*
D03*
%TF.MD5,265e50da272441b951faeeadfa40e281*%
M02*
