%TF.GenerationSoftware,Altium Limited,Altium Designer,26.5.1 (12)*%
G04 Layer_Color=8388736*
G04 Board_Origin=38070866|8218504*
%FSLAX45Y45*%
%MOMM*%
%TF.SameCoordinates,840CF62D-7C74-4BC5-9218-24160F8078A9*%
%TF.FilePolarity,Negative*%
%TF.FileFunction,Soldermask,Top*%
%TF.Part,Single*%
G01*
G75*
%TA.AperFunction,SMDPad,CuDef*%
%ADD10R,1.30000X4.99999*%
%ADD11R,1.50000X3.79999*%
%ADD12R,4.99999X1.30000*%
%ADD13R,3.79999X1.50000*%
%ADD14R,0.50000X0.50000*%
G04:AMPARAMS|DCode=15|XSize=1.475mm|YSize=0.3mm|CornerRadius=0mm|HoleSize=0mm|Usage=FLASHONLY|Rotation=45.000|XOffset=0mm|YOffset=0mm|HoleType=Round|Shape=Rectangle|*
%AMROTATEDRECTD15*
4,1,4,-0.41543,-0.62756,-0.62756,-0.41543,0.41543,0.62756,0.62756,0.41543,-0.41543,-0.62756,0.0*
%
%ADD15ROTATEDRECTD15*%

%ADD16R,1.27000X0.76000*%
%ADD17P,0.70711X4X180.0*%
%ADD18R,0.80000X0.80000*%
G04:AMPARAMS|DCode=19|XSize=0.9mm|YSize=0.7mm|CornerRadius=0mm|HoleSize=0mm|Usage=FLASHONLY|Rotation=45.000|XOffset=0mm|YOffset=0mm|HoleType=Round|Shape=Rectangle|*
%AMROTATEDRECTD19*
4,1,4,-0.07071,-0.56569,-0.56569,-0.07071,0.07071,0.56569,0.56569,0.07071,-0.07071,-0.56569,0.0*
%
%ADD19ROTATEDRECTD19*%

G04:AMPARAMS|DCode=20|XSize=0.9mm|YSize=0.7mm|CornerRadius=0mm|HoleSize=0mm|Usage=FLASHONLY|Rotation=315.000|XOffset=0mm|YOffset=0mm|HoleType=Round|Shape=Rectangle|*
%AMROTATEDRECTD20*
4,1,4,-0.56569,0.07071,-0.07071,0.56569,0.56569,-0.07071,0.07071,-0.56569,-0.56569,0.07071,0.0*
%
%ADD20ROTATEDRECTD20*%

G04:AMPARAMS|DCode=21|XSize=1.475mm|YSize=0.3mm|CornerRadius=0mm|HoleSize=0mm|Usage=FLASHONLY|Rotation=135.000|XOffset=0mm|YOffset=0mm|HoleType=Round|Shape=Rectangle|*
%AMROTATEDRECTD21*
4,1,4,0.62756,-0.41543,0.41543,-0.62756,-0.62756,0.41543,-0.41543,0.62756,0.62756,-0.41543,0.0*
%
%ADD21ROTATEDRECTD21*%

%ADD22R,0.50000X0.50000*%
%ADD23R,0.90000X0.70000*%
G04:AMPARAMS|DCode=24|XSize=0.5mm|YSize=0.6mm|CornerRadius=0mm|HoleSize=0mm|Usage=FLASHONLY|Rotation=45.000|XOffset=0mm|YOffset=0mm|HoleType=Round|Shape=Rectangle|*
%AMROTATEDRECTD24*
4,1,4,0.03535,-0.38891,-0.38891,0.03535,-0.03535,0.38891,0.38891,-0.03535,0.03535,-0.38891,0.0*
%
%ADD24ROTATEDRECTD24*%

%ADD26P,1.13137X4X180.0*%
G04:AMPARAMS|DCode=27|XSize=0.5mm|YSize=0.6mm|CornerRadius=0mm|HoleSize=0mm|Usage=FLASHONLY|Rotation=315.000|XOffset=0mm|YOffset=0mm|HoleType=Round|Shape=Rectangle|*
%AMROTATEDRECTD27*
4,1,4,-0.38891,-0.03535,0.03535,0.38891,0.38891,0.03535,-0.03535,-0.38891,-0.38891,-0.03535,0.0*
%
%ADD27ROTATEDRECTD27*%

%ADD28P,1.13137X4X270.0*%
%ADD29P,0.70711X4X90.0*%
%ADD30P,9.89950X4X180.0*%
%ADD31R,0.60000X0.50000*%
%ADD32R,0.90000X2.00000*%
%ADD33R,1.30000X0.90000*%
%ADD34R,0.50000X0.60000*%
%ADD35R,1.22000X0.91000*%
%ADD36R,0.70000X0.90000*%
%TA.AperFunction,ViaPad*%
%ADD40C,8.00000*%
%TA.AperFunction,TestPad*%
G04:AMPARAMS|DCode=41|XSize=2mm|YSize=2mm|CornerRadius=0.5mm|HoleSize=0mm|Usage=FLASHONLY|Rotation=90.000|XOffset=0mm|YOffset=0mm|HoleType=Round|Shape=RoundedRectangle|*
%AMROUNDEDRECTD41*
21,1,2.00000,1.00000,0,0,90.0*
21,1,1.00000,2.00000,0,0,90.0*
1,1,1.00000,0.50000,0.50000*
1,1,1.00000,0.50000,-0.50000*
1,1,1.00000,-0.50000,-0.50000*
1,1,1.00000,-0.50000,0.50000*
%
%ADD41ROUNDEDRECTD41*%
%TA.AperFunction,ComponentPad*%
%ADD42R,1.50000X1.50000*%
%ADD43C,1.50000*%
%ADD44C,1.65000*%
%TA.AperFunction,ViaPad*%
%ADD45C,0.70000*%
%TA.AperFunction,FiducialPad,Global*%
%ADD66C,3.00000*%
D10*
X26200003Y7039999D02*
D03*
X25950003D02*
D03*
X26450003D02*
D03*
X26700003D02*
D03*
X26950000D02*
D03*
X27200000D02*
D03*
X27450000D02*
D03*
X27700000D02*
D03*
X27950000D02*
D03*
X28200000D02*
D03*
X28449997D02*
D03*
X28699997D02*
D03*
X28949997D02*
D03*
X29199997D02*
D03*
X29449997D02*
D03*
X800003D02*
D03*
X550003D02*
D03*
X1050002D02*
D03*
X1300002D02*
D03*
X1550001D02*
D03*
X1800001D02*
D03*
X2050000D02*
D03*
X2300000D02*
D03*
X2549999D02*
D03*
X2799999D02*
D03*
X3049998D02*
D03*
X3299998D02*
D03*
X3549997D02*
D03*
X3799997D02*
D03*
X4049996D02*
D03*
X22799997Y7039999D02*
D03*
X22550005D02*
D03*
X21299997D02*
D03*
X21050005D02*
D03*
X19799995D02*
D03*
X19550005D02*
D03*
X7449997Y7039999D02*
D03*
X7200004D02*
D03*
X8949997D02*
D03*
X8700004D02*
D03*
X10449996Y7039999D02*
D03*
X10200003D02*
D03*
X11949996D02*
D03*
X11700004D02*
D03*
X18299995D02*
D03*
X18050005D02*
D03*
D11*
X25660004Y7760000D02*
D03*
X29739996D02*
D03*
X260004D02*
D03*
X4339996D02*
D03*
X23089996Y7760000D02*
D03*
X22260004D02*
D03*
X21589996D02*
D03*
X20760004D02*
D03*
X20089996D02*
D03*
X19260004D02*
D03*
X7739996Y7760000D02*
D03*
X6910004D02*
D03*
X9239996D02*
D03*
X8410004D02*
D03*
X10739996Y7760000D02*
D03*
X9910004D02*
D03*
X12239996D02*
D03*
X11410004D02*
D03*
X18589996D02*
D03*
X17760004D02*
D03*
D12*
X985001Y1874997D02*
D03*
Y1625004D02*
D03*
D13*
X265000Y2164996D02*
D03*
Y1335004D02*
D03*
D14*
X21225000Y4325000D02*
D03*
X21325000D02*
D03*
X21050005Y4325010D02*
D03*
X21150005D02*
D03*
X19725005Y6725010D02*
D03*
X19625005D02*
D03*
X22725005D02*
D03*
X22625005D02*
D03*
X21225005D02*
D03*
X21125005D02*
D03*
X18225005D02*
D03*
X18125005D02*
D03*
X21544995Y4424990D02*
D03*
X21470004Y4425010D02*
D03*
X8951729Y4352783D02*
D03*
X8651738Y4352802D02*
D03*
X2699995Y3999990D02*
D03*
X7275005Y6725010D02*
D03*
X8775005D02*
D03*
X10275005D02*
D03*
X11775005D02*
D03*
X8751738Y4352802D02*
D03*
X8851729Y4352783D02*
D03*
X11875005Y6725010D02*
D03*
X10375005D02*
D03*
X8875005D02*
D03*
X7375005D02*
D03*
X27275006Y4000010D02*
D03*
X21370004Y4425010D02*
D03*
X21644995Y4424990D02*
D03*
X2599995Y3999990D02*
D03*
X27375006Y4000010D02*
D03*
D15*
X21411284Y4100192D02*
D03*
X21375928Y4135548D02*
D03*
X21059427Y2829097D02*
D03*
X20882651Y3005874D02*
D03*
X20988716Y2899808D02*
D03*
X20776585Y3111940D02*
D03*
X20741229Y3147295D02*
D03*
X20918005Y2970519D02*
D03*
X21340573Y4170903D02*
D03*
X21446638Y4064837D02*
D03*
X21517349Y3994126D02*
D03*
X21552705Y3958771D02*
D03*
X21623415Y3888060D02*
D03*
X21694125Y3817349D02*
D03*
X21729482Y3781994D02*
D03*
X21764838Y3746639D02*
D03*
X21800192Y3711284D02*
D03*
X21835548Y3675928D02*
D03*
X21870903Y3640573D02*
D03*
X21024072Y2864452D02*
D03*
X20953362Y2935163D02*
D03*
X20847295Y3041229D02*
D03*
X20811940Y3076585D02*
D03*
X20705875Y3182651D02*
D03*
X20670518Y3218006D02*
D03*
X20635162Y3253361D02*
D03*
X20599808Y3288717D02*
D03*
X21658771Y3852705D02*
D03*
X21588060Y3923416D02*
D03*
X21481995Y4029482D02*
D03*
X20529097Y3359427D02*
D03*
X20564452Y3324072D02*
D03*
X8164452D02*
D03*
X8129097Y3359427D02*
D03*
X8341229Y3147295D02*
D03*
X8553361Y2935163D02*
D03*
X8376584Y3111940D02*
D03*
X8199808Y3288717D02*
D03*
X8518006Y2970519D02*
D03*
X9081994Y4029482D02*
D03*
X9188060Y3923416D02*
D03*
X9258771Y3852705D02*
D03*
X8975928Y4135548D02*
D03*
X9046639Y4064837D02*
D03*
X8940573Y4170903D02*
D03*
X9011283Y4100192D02*
D03*
X8235163Y3253361D02*
D03*
X8270518Y3218006D02*
D03*
X8305874Y3182651D02*
D03*
X8411940Y3076585D02*
D03*
X8447295Y3041229D02*
D03*
X8482651Y3005874D02*
D03*
X8588716Y2899808D02*
D03*
X8624072Y2864452D02*
D03*
X8659427Y2829097D02*
D03*
X9470903Y3640573D02*
D03*
X9435548Y3675928D02*
D03*
X9400192Y3711284D02*
D03*
X9364837Y3746639D02*
D03*
X9329481Y3781994D02*
D03*
X9294126Y3817349D02*
D03*
X9223415Y3888060D02*
D03*
X9152705Y3958771D02*
D03*
X9117349Y3994126D02*
D03*
D16*
X15419000Y3746000D02*
D03*
Y4254000D02*
D03*
X15419000Y4000000D02*
D03*
X14581000D02*
D03*
X27481000Y3246000D02*
D03*
Y3754000D02*
D03*
X2519000Y3246000D02*
D03*
X14581000Y3746000D02*
D03*
Y4254000D02*
D03*
X2519000Y3754000D02*
D03*
X2519000Y3500000D02*
D03*
X1681000Y3246000D02*
D03*
X1681000Y3500000D02*
D03*
X1681000Y3754000D02*
D03*
X27481000Y3500000D02*
D03*
X28319000Y3754000D02*
D03*
X28319000Y3500000D02*
D03*
X28319000Y3246000D02*
D03*
D17*
X9360345Y4439641D02*
D03*
X9289634Y4510352D02*
D03*
X9148213Y4651773D02*
D03*
X9218924Y4581062D02*
D03*
X21589655Y4185359D02*
D03*
X21660365Y4114649D02*
D03*
X20860345Y2064641D02*
D03*
X20789635Y2135352D02*
D03*
X20635345Y2289641D02*
D03*
X20564635Y2360352D02*
D03*
X19889635Y3035352D02*
D03*
X19960345Y2964641D02*
D03*
X20339635Y2585352D02*
D03*
X20410345Y2514641D02*
D03*
X20114635Y2810351D02*
D03*
X20185345Y2739641D02*
D03*
X22185365Y4239649D02*
D03*
X22114655Y4310360D02*
D03*
X22410365Y4014649D02*
D03*
X22339655Y4085359D02*
D03*
X21960365Y4464648D02*
D03*
X21889655Y4535359D02*
D03*
X22635365Y3789649D02*
D03*
X22564655Y3860359D02*
D03*
X20214655Y3435359D02*
D03*
X20285365Y3364649D02*
D03*
X7960366Y3439648D02*
D03*
X7889655Y3510359D02*
D03*
X7539634Y2985352D02*
D03*
X7610345Y2914641D02*
D03*
X7764634Y2760352D02*
D03*
X7835345Y2689641D02*
D03*
X7989634Y2535352D02*
D03*
X8060345Y2464641D02*
D03*
X8214634Y2310352D02*
D03*
X8285345Y2239641D02*
D03*
X8439634Y2085352D02*
D03*
X8510345Y2014641D02*
D03*
X9614655Y4460359D02*
D03*
X9310345Y4039641D02*
D03*
X10360366Y3714648D02*
D03*
X10289655Y3785359D02*
D03*
X9913399Y4161615D02*
D03*
X9842688Y4232326D02*
D03*
X9685366Y4389648D02*
D03*
X10138399Y3936615D02*
D03*
X10067688Y4007326D02*
D03*
X9239634Y4110352D02*
D03*
D18*
X27700000Y6650000D02*
D03*
X27200000D02*
D03*
X26950000D02*
D03*
Y6500000D02*
D03*
X28200000Y6650000D02*
D03*
Y6500000D02*
D03*
X26700000Y6650000D02*
D03*
X26700000Y6500000D02*
D03*
X28450000Y6650000D02*
D03*
Y6500000D02*
D03*
X26200000Y6650000D02*
D03*
Y6500000D02*
D03*
X26450000Y6650000D02*
D03*
Y6500000D02*
D03*
X27200000D02*
D03*
X27950000Y6650000D02*
D03*
Y6500000D02*
D03*
X27700000D02*
D03*
X28950000Y6650000D02*
D03*
Y6500000D02*
D03*
X29200000Y6650000D02*
D03*
Y6500000D02*
D03*
X28700000Y6650000D02*
D03*
Y6500000D02*
D03*
X27450000Y6650000D02*
D03*
Y6500000D02*
D03*
X2800000Y6650000D02*
D03*
X7175000Y3350000D02*
D03*
Y3500000D02*
D03*
X1300000Y6650000D02*
D03*
X1050000Y6650000D02*
D03*
X800000D02*
D03*
X1800000Y6650000D02*
D03*
X1550000Y6650000D02*
D03*
X7175000Y3650000D02*
D03*
X1050000Y6500000D02*
D03*
X6275000Y3175000D02*
D03*
X7175000Y3200000D02*
D03*
X6275000Y3675000D02*
D03*
X3800000Y6500000D02*
D03*
X3550000D02*
D03*
X3300000D02*
D03*
X3050000D02*
D03*
X2800000D02*
D03*
X2550000D02*
D03*
X2300000D02*
D03*
X2050000D02*
D03*
X1799999D02*
D03*
X1550000D02*
D03*
X1300000D02*
D03*
X800000D02*
D03*
X2050000Y6650000D02*
D03*
X2300000D02*
D03*
X2550000D02*
D03*
X3050000D02*
D03*
X3300000D02*
D03*
X3550000D02*
D03*
X3800000D02*
D03*
X6275000Y3525000D02*
D03*
Y3325000D02*
D03*
D19*
X22033478Y1891523D02*
D03*
X22366522Y2458478D02*
D03*
X22483478Y2341523D02*
D03*
X22591522Y2683478D02*
D03*
X22708478Y2566523D02*
D03*
X21808478Y1666523D02*
D03*
X21691522Y1783478D02*
D03*
X22258478Y2116523D02*
D03*
X22141522Y2233478D02*
D03*
X21916522Y2008478D02*
D03*
X23158478Y3016523D02*
D03*
X23041522Y3133478D02*
D03*
X22933476Y2791522D02*
D03*
X22816522Y2908478D02*
D03*
X10508478Y2716522D02*
D03*
X10283477Y2491522D02*
D03*
X10058477Y2266522D02*
D03*
X9266522Y1708478D02*
D03*
X9383477Y1591522D02*
D03*
X9491522Y1933478D02*
D03*
X9608477Y1816522D02*
D03*
X9716522Y2158478D02*
D03*
X9833477Y2041522D02*
D03*
X9941522Y2383478D02*
D03*
X10166522Y2608478D02*
D03*
X10391522Y2833478D02*
D03*
X10616522Y3058478D02*
D03*
X10733478Y2941522D02*
D03*
D20*
X20341522Y1841523D02*
D03*
X19891524Y2291522D02*
D03*
X20008478Y2408478D02*
D03*
X19558478Y2858478D02*
D03*
X19441522Y2741523D02*
D03*
X20458478Y1958478D02*
D03*
X20116522Y2066523D02*
D03*
X20233478Y2183478D02*
D03*
X19666522Y2516523D02*
D03*
X19783478Y2633478D02*
D03*
X20566522Y5216522D02*
D03*
X20683478Y5333478D02*
D03*
X20266522Y4916523D02*
D03*
X20383478Y5033478D02*
D03*
X22633478Y4533478D02*
D03*
X22516522Y4416522D02*
D03*
X19966522Y4616523D02*
D03*
X20083478Y4733478D02*
D03*
X22408476Y4758478D02*
D03*
X22291522Y4641522D02*
D03*
X19666522Y4316523D02*
D03*
X19783478Y4433478D02*
D03*
X22858478Y4308478D02*
D03*
X22741522Y4191522D02*
D03*
X7091522Y2691523D02*
D03*
X7208477Y2808478D02*
D03*
X7316522Y2466522D02*
D03*
X7433478Y2583478D02*
D03*
X7541522Y2241522D02*
D03*
X7658478Y2358478D02*
D03*
X7991522Y1791522D02*
D03*
X8108478Y1908478D02*
D03*
X7766522Y2016523D02*
D03*
X7883478Y2133478D02*
D03*
X8009197Y4984210D02*
D03*
X8126152Y5101166D02*
D03*
X7709196Y4709210D02*
D03*
X7826152Y4826166D02*
D03*
X7409197Y4434210D02*
D03*
X7526152Y4551166D02*
D03*
X7109196Y4159210D02*
D03*
X7226152Y4276166D02*
D03*
X10469555Y4113489D02*
D03*
X10586511Y4230444D02*
D03*
X10244555Y4338489D02*
D03*
X10361511Y4455444D02*
D03*
X10016522Y4566522D02*
D03*
X10133478Y4683478D02*
D03*
D21*
X21411284Y2899808D02*
D03*
X20599808Y3711284D02*
D03*
X20635162Y3746639D02*
D03*
X20670518Y3781994D02*
D03*
X20953362Y4064837D02*
D03*
X20988716Y4100192D02*
D03*
X21024072Y4135548D02*
D03*
X21059427Y4170903D02*
D03*
X21870903Y3359427D02*
D03*
X21835548Y3324072D02*
D03*
X21800192Y3288717D02*
D03*
X21764838Y3253361D02*
D03*
X21729482Y3218006D02*
D03*
X21694125Y3182651D02*
D03*
X21658771Y3147295D02*
D03*
X21623415Y3111940D02*
D03*
X21588060Y3076585D02*
D03*
X21552705Y3041229D02*
D03*
X21517349Y3005874D02*
D03*
X21481995Y2970519D02*
D03*
X21446638Y2935163D02*
D03*
X21375928Y2864452D02*
D03*
X21340573Y2829097D02*
D03*
X20918005Y4029482D02*
D03*
X20882651Y3994126D02*
D03*
X20847295Y3958771D02*
D03*
X20811940Y3923416D02*
D03*
X20776585Y3888060D02*
D03*
X20741229Y3852705D02*
D03*
X20705875Y3817349D02*
D03*
X20564452Y3675928D02*
D03*
X20529097Y3640573D02*
D03*
X9081994Y2970519D02*
D03*
X8376584Y3888060D02*
D03*
X8411940Y3923416D02*
D03*
X8940573Y2829097D02*
D03*
X8129097Y3640573D02*
D03*
X8164452Y3675928D02*
D03*
X8305874Y3817349D02*
D03*
X8341229Y3852705D02*
D03*
X8447295Y3958771D02*
D03*
X8482651Y3994126D02*
D03*
X8518006Y4029482D02*
D03*
X8270518Y3781994D02*
D03*
X8975928Y2864452D02*
D03*
X9011283Y2899808D02*
D03*
X9046639Y2935163D02*
D03*
X9117349Y3005874D02*
D03*
X9152705Y3041229D02*
D03*
X9188060Y3076585D02*
D03*
X9223415Y3111940D02*
D03*
X9258771Y3147295D02*
D03*
X9294126Y3182651D02*
D03*
X9329481Y3218006D02*
D03*
X9364837Y3253361D02*
D03*
X9400192Y3288717D02*
D03*
X9435548Y3324072D02*
D03*
X9470903Y3359427D02*
D03*
X8659427Y4170903D02*
D03*
X8624072Y4135548D02*
D03*
X8588716Y4100192D02*
D03*
X8553361Y4064837D02*
D03*
X8235163Y3746639D02*
D03*
X8199808Y3711284D02*
D03*
D22*
X15749989Y4500005D02*
D03*
Y4400005D02*
D03*
X14250011Y4499995D02*
D03*
Y4399995D02*
D03*
D23*
X15600000Y4507700D02*
D03*
Y4342300D02*
D03*
X14400000Y4507700D02*
D03*
Y4342300D02*
D03*
D24*
X9764645Y4314645D02*
D03*
X9835355Y4385355D02*
D03*
X19964645Y2814645D02*
D03*
X20035355Y2885355D02*
D03*
X19810355Y3110355D02*
D03*
X19739645Y3039645D02*
D03*
X20710355Y2210355D02*
D03*
X20639645Y2139645D02*
D03*
X20414645Y2364645D02*
D03*
X20485355Y2435356D02*
D03*
X20189645Y2589645D02*
D03*
X20260355Y2660356D02*
D03*
X22110355Y4460356D02*
D03*
X22039645Y4389645D02*
D03*
X22335355Y4235356D02*
D03*
X22264645Y4164645D02*
D03*
X22560355Y4010355D02*
D03*
X22489645Y3939645D02*
D03*
X7389644Y2989645D02*
D03*
X7460355Y3060356D02*
D03*
X7839645Y2539645D02*
D03*
X7910355Y2610355D02*
D03*
X7614645Y2764645D02*
D03*
X7685355Y2835355D02*
D03*
X8064645Y2314645D02*
D03*
X8135355Y2385355D02*
D03*
X8289645Y2089645D02*
D03*
X8360355Y2160355D02*
D03*
X10288388Y3932322D02*
D03*
X10217678Y3861612D02*
D03*
X10063388Y4157322D02*
D03*
X9992678Y4086612D02*
D03*
D26*
X20653033Y1946967D02*
D03*
X20546967Y2053033D02*
D03*
X20428033Y2171967D02*
D03*
X20321967Y2278033D02*
D03*
X20203033Y2396967D02*
D03*
X20096967Y2503033D02*
D03*
X19753033Y2846967D02*
D03*
X19646967Y2953033D02*
D03*
X19871967Y2728033D02*
D03*
X19978033Y2621967D02*
D03*
X20096967Y3378033D02*
D03*
X20203033Y3271967D02*
D03*
X22428033Y4321967D02*
D03*
X22321967Y4428033D02*
D03*
X22653033Y4096967D02*
D03*
X22546967Y4203033D02*
D03*
X22203033Y4546967D02*
D03*
X22096967Y4653033D02*
D03*
X21753033Y4196967D02*
D03*
X21646967Y4303033D02*
D03*
X7878033Y3371967D02*
D03*
X7771967Y3478033D02*
D03*
X7628033Y2571967D02*
D03*
X7521967Y2678033D02*
D03*
X7403033Y2796967D02*
D03*
X7296967Y2903033D02*
D03*
X7853033Y2346967D02*
D03*
X7746967Y2453033D02*
D03*
X8078033Y2121967D02*
D03*
X7971967Y2228033D02*
D03*
X8303033Y1896967D02*
D03*
X8196967Y2003033D02*
D03*
X9821967Y4578033D02*
D03*
X10050000Y4350000D02*
D03*
X10275000Y4125000D02*
D03*
X9456317Y4100251D02*
D03*
X9350251Y4206317D02*
D03*
X10381066Y4018934D02*
D03*
X10156066Y4243934D02*
D03*
X9928033Y4471967D02*
D03*
D27*
X22410355Y2864645D02*
D03*
X22339645Y2935356D02*
D03*
X21960355Y2414645D02*
D03*
X21889645Y2485355D02*
D03*
X22185355Y2639645D02*
D03*
X22114645Y2710356D02*
D03*
X22860355Y3314645D02*
D03*
X22789645Y3385355D02*
D03*
X21735355Y2189645D02*
D03*
X21664645Y2260355D02*
D03*
X20789645Y5385355D02*
D03*
X20860356Y5314645D02*
D03*
X19889645Y4485356D02*
D03*
X19960356Y4414645D02*
D03*
X22635355Y3089645D02*
D03*
X22564645Y3160355D02*
D03*
X20339645Y4635355D02*
D03*
X20410355Y4564645D02*
D03*
X20639645Y4935355D02*
D03*
X20710355Y4864645D02*
D03*
X21510355Y1964645D02*
D03*
X21439645Y2035356D02*
D03*
X20939645Y5235356D02*
D03*
X21010355Y5164645D02*
D03*
X20489645Y5085356D02*
D03*
X20560355Y5014645D02*
D03*
X20189645Y4785355D02*
D03*
X20260355Y4714645D02*
D03*
X20039645Y4335356D02*
D03*
X20110355Y4264645D02*
D03*
X9014644Y1960355D02*
D03*
X10210355Y3014644D02*
D03*
X10139644Y3085355D02*
D03*
X10435355Y3239645D02*
D03*
X10364645Y3310355D02*
D03*
X7657319Y4603043D02*
D03*
X7728030Y4532333D02*
D03*
X8107319Y4728043D02*
D03*
X8178030Y4657333D02*
D03*
X7957319Y4878044D02*
D03*
X8028030Y4807333D02*
D03*
X7807319Y4453043D02*
D03*
X7878029Y4382333D02*
D03*
X7357319Y4328043D02*
D03*
X7428030Y4257333D02*
D03*
X9760355Y2564645D02*
D03*
X9689645Y2635355D02*
D03*
X9985355Y2789645D02*
D03*
X9914644Y2860355D02*
D03*
X7207319Y3903044D02*
D03*
X7278030Y3832333D02*
D03*
X7057319Y4053043D02*
D03*
X7128030Y3982333D02*
D03*
X7507319Y4178043D02*
D03*
X7578030Y4107333D02*
D03*
X9310355Y2114644D02*
D03*
X9239644Y2185355D02*
D03*
X9085355Y1889645D02*
D03*
X9535355Y2339645D02*
D03*
X9464645Y2410355D02*
D03*
D28*
X22271967Y2546967D02*
D03*
X22378033Y2653033D02*
D03*
X22046967Y2321967D02*
D03*
X22153033Y2428033D02*
D03*
X21821967Y2096967D02*
D03*
X21928033Y2203033D02*
D03*
X20521967Y3921967D02*
D03*
X20628033Y4028033D02*
D03*
X21596967Y1871967D02*
D03*
X21703033Y1978033D02*
D03*
X22496967Y2771967D02*
D03*
X22603033Y2878033D02*
D03*
X22946967Y3221967D02*
D03*
X23053033Y3328033D02*
D03*
X22721967Y2996968D02*
D03*
X22828033Y3103033D02*
D03*
X10628033Y3253033D02*
D03*
X10403033Y3028033D02*
D03*
X10178033Y2803033D02*
D03*
X9953033Y2578033D02*
D03*
X9728033Y2353033D02*
D03*
X9503033Y2128033D02*
D03*
X9278033Y1903033D02*
D03*
X8128033Y3928033D02*
D03*
X8021967Y3821967D02*
D03*
X9171967Y1796967D02*
D03*
X9396967Y2021967D02*
D03*
X9621967Y2246967D02*
D03*
X9846967Y2471967D02*
D03*
X10071967Y2696967D02*
D03*
X10296967Y2921967D02*
D03*
X10521967Y3146967D02*
D03*
D29*
X20335352Y4485366D02*
D03*
X20264641Y4414655D02*
D03*
X20935352Y5085366D02*
D03*
X20864641Y5014655D02*
D03*
X21514648Y2114635D02*
D03*
X21585359Y2185345D02*
D03*
X20560352Y4860366D02*
D03*
X20489641Y4789655D02*
D03*
X19960352Y4260366D02*
D03*
X19889641Y4189655D02*
D03*
X21964648Y2564634D02*
D03*
X22035359Y2635345D02*
D03*
X22639648Y3239635D02*
D03*
X22710359Y3310345D02*
D03*
X20260352Y4560366D02*
D03*
X20189641Y4489655D02*
D03*
X20414648Y4864634D02*
D03*
X20485359Y4935345D02*
D03*
X20860352Y5160366D02*
D03*
X20789641Y5089655D02*
D03*
X20714648Y5164635D02*
D03*
X20785359Y5235345D02*
D03*
X19814648Y4264635D02*
D03*
X19885359Y4335345D02*
D03*
X20635352Y4785366D02*
D03*
X20564641Y4714655D02*
D03*
X21739648Y2339635D02*
D03*
X21810359Y2410345D02*
D03*
X20035352Y4185366D02*
D03*
X19964641Y4114655D02*
D03*
X20114648Y4564635D02*
D03*
X20185359Y4635345D02*
D03*
X9089648Y2039634D02*
D03*
X7353033Y4053033D02*
D03*
X7428033Y3978033D02*
D03*
X7653033Y4328033D02*
D03*
X7728034Y4253033D02*
D03*
X7953033Y4603033D02*
D03*
X8028033Y4528033D02*
D03*
X8253034Y4878033D02*
D03*
X8328033Y4803033D02*
D03*
X7578026Y4403054D02*
D03*
X7507315Y4332343D02*
D03*
X7957322Y4457322D02*
D03*
X10214648Y3164634D02*
D03*
X10285359Y3235345D02*
D03*
X8178026Y4953054D02*
D03*
X8107315Y4882343D02*
D03*
X7882323Y4532322D02*
D03*
X7357323Y3907322D02*
D03*
X8257323Y4732323D02*
D03*
X9539648Y2489634D02*
D03*
X9610359Y2560345D02*
D03*
X7278026Y4128054D02*
D03*
X7207315Y4057343D02*
D03*
X7657323Y4182323D02*
D03*
X7878026Y4678054D02*
D03*
X7807315Y4607343D02*
D03*
X7582323Y4257322D02*
D03*
X9314648Y2264634D02*
D03*
X9385359Y2335345D02*
D03*
X9160359Y2110345D02*
D03*
X8182323Y4807323D02*
D03*
X7282322Y3982322D02*
D03*
D30*
X21200000Y3500000D02*
D03*
X8800000D02*
D03*
D31*
X27275821Y3450000D02*
D03*
Y3550000D02*
D03*
X2750000Y3695000D02*
D03*
Y3305000D02*
D03*
Y3555000D02*
D03*
Y3445000D02*
D03*
X27275821Y3310000D02*
D03*
Y3690000D02*
D03*
D32*
X2227000Y1725000D02*
D03*
X1973000D02*
D03*
X2227000Y875000D02*
D03*
X1973000D02*
D03*
D33*
X6950000Y3330000D02*
D03*
Y3520000D02*
D03*
D34*
X6775000Y3325000D02*
D03*
Y3525000D02*
D03*
X6675000D02*
D03*
Y3325000D02*
D03*
D35*
X6475000Y2511500D02*
D03*
Y4338500D02*
D03*
Y3863500D02*
D03*
Y3536500D02*
D03*
Y4011500D02*
D03*
Y2986500D02*
D03*
Y3313500D02*
D03*
Y2838500D02*
D03*
D36*
X2482700Y4000000D02*
D03*
X2317300D02*
D03*
X27517300D02*
D03*
X27682700D02*
D03*
D40*
X15000000Y7500000D02*
D03*
Y500000D02*
D03*
X500000D02*
D03*
Y5500000D02*
D03*
X29500000D02*
D03*
Y500000D02*
D03*
D41*
X21625000Y5525000D02*
D03*
X19650000Y3825000D02*
D03*
X21125000Y1150000D02*
D03*
X400000Y4700000D02*
D03*
X8800000Y1000000D02*
D03*
X8925000Y5075000D02*
D03*
D42*
X1154000Y3194000D02*
D03*
X28850000Y3899000D02*
D03*
D43*
X900000Y3296001D02*
D03*
X1154000Y3398001D02*
D03*
X900000Y3500000D02*
D03*
X1154000Y3602000D02*
D03*
X900000Y3704000D02*
D03*
X1154000Y3806000D02*
D03*
X900000Y3908000D02*
D03*
X29104001Y3797000D02*
D03*
X28850000Y3695000D02*
D03*
X29104001Y3593000D02*
D03*
X28850000Y3491000D02*
D03*
X29104001Y3389000D02*
D03*
X28850000Y3287000D02*
D03*
X29104001Y3185000D02*
D03*
D44*
X554000Y4159000D02*
D03*
Y2943000D02*
D03*
X29450000Y2934000D02*
D03*
Y4150000D02*
D03*
D45*
X1050000Y6400000D02*
D03*
X1300000D02*
D03*
X1550000D02*
D03*
X1800000Y6395000D02*
D03*
X3550000Y6400000D02*
D03*
X3300000D02*
D03*
X3050000D02*
D03*
X2800000D02*
D03*
X2550000D02*
D03*
X26175000Y1100001D02*
D03*
Y700001D02*
D03*
X25075000D02*
D03*
X25075000Y1100001D02*
D03*
X25350000Y900000D02*
D03*
X25900000D02*
D03*
X23100000Y3700000D02*
D03*
X22700000Y3500000D02*
D03*
X23675000Y1475000D02*
D03*
X23100000D02*
D03*
X22850000Y2000000D02*
D03*
X22825000Y2350000D02*
D03*
X23375000D02*
D03*
X23925000D02*
D03*
X23375000Y2000000D02*
D03*
X23925000D02*
D03*
X18325000Y5475000D02*
D03*
X18625000Y6125000D02*
D03*
Y6325000D02*
D03*
X28175000Y7850000D02*
D03*
X27325000Y6500000D02*
D03*
X26925000Y5875000D02*
D03*
X26400000Y5675000D02*
D03*
X27325000Y5450000D02*
D03*
X27300000Y5775000D02*
D03*
X27000000Y5500000D02*
D03*
X26475000Y5375000D02*
D03*
X26500000Y4900000D02*
D03*
X22775000Y4950000D02*
D03*
X23175000Y4850000D02*
D03*
X21775000Y5100000D02*
D03*
X22400000Y5175000D02*
D03*
X23450000D02*
D03*
X24350000D02*
D03*
X24475000Y4800000D02*
D03*
X23625000D02*
D03*
X24375000Y3000000D02*
D03*
X23600000D02*
D03*
X23175000Y2650000D02*
D03*
X24000000D02*
D03*
X24750000D02*
D03*
X26150000Y3800000D02*
D03*
X25900000Y4050000D02*
D03*
X25250000D02*
D03*
X24375000D02*
D03*
X23675000Y3650000D02*
D03*
X24125000Y3300000D02*
D03*
X23475000Y4050000D02*
D03*
X24475000Y5625000D02*
D03*
Y6025000D02*
D03*
X25575000D02*
D03*
Y5625000D02*
D03*
X24775000Y5824999D02*
D03*
X25250000D02*
D03*
X25079800Y5125000D02*
D03*
X26179800D02*
D03*
X26175000Y4810000D02*
D03*
X25379800Y4925000D02*
D03*
X24475000Y3400000D02*
D03*
Y3800000D02*
D03*
X25575000D02*
D03*
Y3400000D02*
D03*
X24775000Y3599999D02*
D03*
X25250000D02*
D03*
X25075000Y3125000D02*
D03*
X25079800Y2500001D02*
D03*
X26179800D02*
D03*
X25600000Y2625000D02*
D03*
X25200000Y1475000D02*
D03*
X24479800Y1600000D02*
D03*
Y2000000D02*
D03*
X25579800D02*
D03*
X24779800Y1799999D02*
D03*
X25254800D02*
D03*
X21375000Y1850000D02*
D03*
X20925000D02*
D03*
X12650000Y7100000D02*
D03*
X11900000Y6000000D02*
D03*
X12675000Y6375000D02*
D03*
X13225000Y5475000D02*
D03*
X11925000D02*
D03*
X12975000Y4175000D02*
D03*
X21925000Y2902500D02*
D03*
X22020711Y2969939D02*
D03*
X22255771Y3205000D02*
D03*
X27425000Y3875000D02*
D03*
X22200000D02*
D03*
X21990433Y3940433D02*
D03*
X22125000Y3725000D02*
D03*
X22150000Y2900000D02*
D03*
X21600000Y2500000D02*
D03*
X21850000Y2675000D02*
D03*
X21125000Y2475000D02*
D03*
X17700000Y1325000D02*
D03*
X17650000Y1950000D02*
D03*
X16775000Y1450000D02*
D03*
X16225000Y2750000D02*
D03*
X18125000Y3250000D02*
D03*
X17900000Y4175000D02*
D03*
X17325000D02*
D03*
Y5275000D02*
D03*
X17650000Y5775000D02*
D03*
X18225000D02*
D03*
Y6400000D02*
D03*
X18850000Y7275000D02*
D03*
X17225000D02*
D03*
X16804800Y6525000D02*
D03*
Y6925000D02*
D03*
X17904800D02*
D03*
Y6525000D02*
D03*
X17104800Y6725000D02*
D03*
X17579800D02*
D03*
X16204800Y5625000D02*
D03*
Y6025000D02*
D03*
X17304800D02*
D03*
Y5625000D02*
D03*
X16504800Y5824999D02*
D03*
X16979800D02*
D03*
X16804800Y4725000D02*
D03*
Y5125000D02*
D03*
X17904800D02*
D03*
Y4725000D02*
D03*
X17104800Y4925000D02*
D03*
X17579800D02*
D03*
X16200000Y3400000D02*
D03*
Y3800000D02*
D03*
X17300000D02*
D03*
Y3400000D02*
D03*
X16500000Y3599999D02*
D03*
X16975000D02*
D03*
X16800000Y2500000D02*
D03*
Y2900000D02*
D03*
X17900000D02*
D03*
Y2500000D02*
D03*
X17100000Y2699999D02*
D03*
X17575000D02*
D03*
X16975000Y1799999D02*
D03*
X16500000D02*
D03*
X17300000Y1600000D02*
D03*
Y2000000D02*
D03*
X16200000D02*
D03*
Y1600000D02*
D03*
X17575000Y900000D02*
D03*
X17100000D02*
D03*
X17900000Y700000D02*
D03*
Y1100000D02*
D03*
X16800000D02*
D03*
Y700000D02*
D03*
X16200000Y4325000D02*
D03*
Y4975000D02*
D03*
Y5275000D02*
D03*
Y6925000D02*
D03*
X16825000Y7575000D02*
D03*
X18125000D02*
D03*
X18925000D02*
D03*
X19425000D02*
D03*
X19100000Y5950000D02*
D03*
X18050000Y3550000D02*
D03*
X18300000Y2250000D02*
D03*
X19700000Y1950000D02*
D03*
X19175000Y1925000D02*
D03*
X18625000D02*
D03*
X18625000Y2550000D02*
D03*
X24675002Y900000D02*
D03*
X23575002D02*
D03*
X24125002D02*
D03*
X23025002D02*
D03*
X22475002D02*
D03*
Y1450000D02*
D03*
X21925002Y900000D02*
D03*
Y1450000D02*
D03*
X21375000Y900000D02*
D03*
Y1450000D02*
D03*
X20825002Y900000D02*
D03*
Y1450000D02*
D03*
X20275000Y900000D02*
D03*
X19725000D02*
D03*
Y1450000D02*
D03*
X19175000Y900000D02*
D03*
Y1450000D02*
D03*
X18625000Y900000D02*
D03*
Y1450000D02*
D03*
X29075000Y2550000D02*
D03*
X29625000D02*
D03*
X29075000Y2000000D02*
D03*
X29625000D02*
D03*
X29075000Y1450000D02*
D03*
X29625000D02*
D03*
X26175000Y3250000D02*
D03*
X26450000Y3350000D02*
D03*
X26475000Y3050000D02*
D03*
X26650000Y3350000D02*
D03*
X27475000Y3025000D02*
D03*
X26200000Y1750000D02*
D03*
X26875000Y2000000D02*
D03*
X27975000Y2550000D02*
D03*
X27425000D02*
D03*
X27975000Y2000000D02*
D03*
X27425000D02*
D03*
X28525000D02*
D03*
Y2550000D02*
D03*
X26875000Y1450000D02*
D03*
Y900000D02*
D03*
X27975000Y1450000D02*
D03*
X27425000D02*
D03*
X27975000Y900000D02*
D03*
X27425000D02*
D03*
X28525000D02*
D03*
Y1450000D02*
D03*
Y350000D02*
D03*
X27425000D02*
D03*
X27975000D02*
D03*
X26325000D02*
D03*
X26875000D02*
D03*
X25225002D02*
D03*
X25775000D02*
D03*
X24125002D02*
D03*
X24675002D02*
D03*
X23025002D02*
D03*
X23575002D02*
D03*
X21925002D02*
D03*
X22475002D02*
D03*
X20825002D02*
D03*
X21375000D02*
D03*
X19725000D02*
D03*
X20275000D02*
D03*
X18625000D02*
D03*
X19175000D02*
D03*
X17525000D02*
D03*
X18075000D02*
D03*
X16425000D02*
D03*
X16975000D02*
D03*
X15875000Y900000D02*
D03*
Y350000D02*
D03*
Y1525000D02*
D03*
Y2150000D02*
D03*
Y2775000D02*
D03*
X15800000Y3200000D02*
D03*
X15500000Y3500000D02*
D03*
X15725000Y3825000D02*
D03*
Y4200000D02*
D03*
Y4700000D02*
D03*
X16375000Y7875000D02*
D03*
X15875000Y7375000D02*
D03*
Y7875000D02*
D03*
X19065005Y6715010D02*
D03*
X18515005D02*
D03*
X20675000Y6325000D02*
D03*
X20125000D02*
D03*
X22150000D02*
D03*
X21600000D02*
D03*
X22194997Y6984999D02*
D03*
X21644997D02*
D03*
X20669997Y6987461D02*
D03*
X20119997D02*
D03*
X23150000Y7225000D02*
D03*
X22975000Y6650000D02*
D03*
X22400000Y6250000D02*
D03*
X23600000Y6475000D02*
D03*
X25600000Y7125000D02*
D03*
X11675000Y6700000D02*
D03*
X10175000D02*
D03*
X8675000D02*
D03*
X7150000D02*
D03*
X22525000D02*
D03*
X19525000D02*
D03*
X21000000D02*
D03*
X21050000Y6325000D02*
D03*
X19650000D02*
D03*
X19400000Y6125000D02*
D03*
X24150000Y5775000D02*
D03*
X23750000Y5950000D02*
D03*
X23225000Y5450000D02*
D03*
X23050000Y5775000D02*
D03*
X23525000Y6100000D02*
D03*
X22625000Y5425000D02*
D03*
X22350000Y5725000D02*
D03*
X21850000Y5650000D02*
D03*
X21425000Y5525000D02*
D03*
X18175000Y4525000D02*
D03*
X18225000Y4950000D02*
D03*
X18850000Y5575000D02*
D03*
X18575000Y5300000D02*
D03*
X18900000Y4875000D02*
D03*
X18875000Y4450000D02*
D03*
X18900000Y3750000D02*
D03*
Y3175000D02*
D03*
X19075000Y2975000D02*
D03*
X19575000Y3100000D02*
D03*
X19950000Y3400000D02*
D03*
X20375000Y3525000D02*
D03*
X20999998Y3700000D02*
D03*
X20899998Y3600000D02*
D03*
X20799998Y3500000D02*
D03*
X21099998Y3800000D02*
D03*
X21199998Y3900000D02*
D03*
X21299998Y3800000D02*
D03*
X21199998Y3700000D02*
D03*
X20899998Y3400000D02*
D03*
X20999998Y3500000D02*
D03*
X21099998Y3600000D02*
D03*
X21399998Y3700000D02*
D03*
X21299998Y3600000D02*
D03*
X20999998Y3300000D02*
D03*
X21099998Y3400000D02*
D03*
X21199998Y3500000D02*
D03*
X21499998Y3600000D02*
D03*
X21399998Y3500000D02*
D03*
X21099998Y3200000D02*
D03*
X21199998Y3300000D02*
D03*
X21299998Y3400000D02*
D03*
X21599998Y3500000D02*
D03*
X21499998Y3400000D02*
D03*
X21199998Y3100000D02*
D03*
X21299998Y3200000D02*
D03*
X21399998Y3300000D02*
D03*
X21099998Y4000000D02*
D03*
X21374998Y3925000D02*
D03*
X21774998Y3500000D02*
D03*
X20724998Y3625000D02*
D03*
X20849998Y3750000D02*
D03*
X20974998Y3875000D02*
D03*
X20774998Y3350000D02*
D03*
X20924998Y3200000D02*
D03*
X21099998Y3025000D02*
D03*
X21324998Y3050000D02*
D03*
X21474998Y3200000D02*
D03*
X21624998Y3350000D02*
D03*
X21649998Y3625000D02*
D03*
X21499998Y3775000D02*
D03*
X19850000Y4075000D02*
D03*
X20400000Y3800000D02*
D03*
X20300000Y4275000D02*
D03*
X20650000Y4225000D02*
D03*
X20125000Y3525000D02*
D03*
X19825000Y3550000D02*
D03*
X19400000Y3950000D02*
D03*
Y4450000D02*
D03*
Y4975000D02*
D03*
X20075000Y5475000D02*
D03*
X19850000Y5425000D02*
D03*
X20425000Y5200000D02*
D03*
X20125000Y5125000D02*
D03*
X19800000Y4650000D02*
D03*
X21025000Y5350000D02*
D03*
X20825000Y4800000D02*
D03*
X20575000Y4550000D02*
D03*
X21025000Y4775000D02*
D03*
X20925000Y4475000D02*
D03*
X21350000Y4775000D02*
D03*
X21700000Y4525000D02*
D03*
X21950000Y4650000D02*
D03*
X21725000Y4025000D02*
D03*
X27950000Y5950000D02*
D03*
X27650000Y5500000D02*
D03*
X28775000Y4950000D02*
D03*
X29325000D02*
D03*
X29875000D02*
D03*
X28225000Y4475000D02*
D03*
X28775000D02*
D03*
X29325000D02*
D03*
X29875000D02*
D03*
X28875000Y5550000D02*
D03*
X28075000Y4750000D02*
D03*
X27775000Y4475000D02*
D03*
X27850000Y7450000D02*
D03*
X27175000Y7725000D02*
D03*
X27425000Y7425000D02*
D03*
Y7875000D02*
D03*
X23625000Y7300000D02*
D03*
X24225000Y7075000D02*
D03*
X24750000D02*
D03*
X25075000D02*
D03*
X24750000Y6725000D02*
D03*
X25075000D02*
D03*
X25575000Y6700000D02*
D03*
X28325000Y7400000D02*
D03*
X28725000Y7475000D02*
D03*
X28775000Y7850000D02*
D03*
X29400000D02*
D03*
X29900000Y7875000D02*
D03*
X29875000Y6300000D02*
D03*
X29525000Y6075000D02*
D03*
X29625000Y6825000D02*
D03*
Y7250000D02*
D03*
X28825000Y6500000D02*
D03*
X26675000Y6150000D02*
D03*
X26050000Y6025000D02*
D03*
X26825000Y6500000D02*
D03*
X27200000Y6355000D02*
D03*
X27450000Y6355001D02*
D03*
X27700000Y6200000D02*
D03*
X27950000Y6350000D02*
D03*
X28200000Y6350000D02*
D03*
X29200000Y6355000D02*
D03*
X28950000D02*
D03*
X28450000Y6350000D02*
D03*
X28700000D02*
D03*
X27950000Y5800000D02*
D03*
X28700000D02*
D03*
X23200000Y3275000D02*
D03*
X18175000Y4200000D02*
D03*
X19375000Y5350000D02*
D03*
X20725000Y5750000D02*
D03*
X21000000D02*
D03*
X20050000D02*
D03*
X19775000D02*
D03*
X20375000D02*
D03*
X20225000Y5450000D02*
D03*
X22638254Y4311746D02*
D03*
X20225000Y1950000D02*
D03*
X20025000Y2200000D02*
D03*
X19825000Y2450000D02*
D03*
X19650000Y2725000D02*
D03*
X22400000Y4550000D02*
D03*
X21650000Y2675000D02*
D03*
X22925000Y3003033D02*
D03*
X22703535Y2781568D02*
D03*
X22475000Y2553033D02*
D03*
X22253535Y2331569D02*
D03*
X22025000Y2103033D02*
D03*
X21803535Y1881569D02*
D03*
X2985467Y2892661D02*
D03*
X3061716Y2800000D02*
D03*
X9350000Y4850000D02*
D03*
X9550000Y4625000D02*
D03*
X9275000Y4375000D02*
D03*
X3425000Y6725000D02*
D03*
X2500000Y3875000D02*
D03*
X11550000Y6125000D02*
D03*
X10550000Y6150000D02*
D03*
X9575000D02*
D03*
X8800000D02*
D03*
X8000000D02*
D03*
X7675000Y4050000D02*
D03*
X100000Y7825000D02*
D03*
X9775000Y3550000D02*
D03*
X10125000Y3725000D02*
D03*
X10325000Y3525000D02*
D03*
X9100000Y3775000D02*
D03*
X9250000Y3625000D02*
D03*
X9225000Y3350000D02*
D03*
X9075000Y3200000D02*
D03*
X8925000Y3050000D02*
D03*
X8700000Y3025000D02*
D03*
X8525000Y3200000D02*
D03*
X8375000Y3350000D02*
D03*
X8575000Y3875000D02*
D03*
X8450000Y3750000D02*
D03*
X8325000Y3625000D02*
D03*
X9625000Y3175000D02*
D03*
X9525000Y3150000D02*
D03*
X9375000Y3500000D02*
D03*
X8975000Y3925000D02*
D03*
X8700000Y4000000D02*
D03*
X8225000Y3500000D02*
D03*
X9000000Y3300000D02*
D03*
X8900000Y3200000D02*
D03*
X8800000Y3100000D02*
D03*
X9100000Y3400000D02*
D03*
X9200000Y3500000D02*
D03*
X8900000Y3400000D02*
D03*
X8800000Y3300000D02*
D03*
X8700000Y3200000D02*
D03*
X9000000Y3500000D02*
D03*
X9100000Y3600000D02*
D03*
X8800000Y3500000D02*
D03*
X8700000Y3400000D02*
D03*
X8600000Y3300000D02*
D03*
X8900000Y3600000D02*
D03*
X9000000Y3700000D02*
D03*
X8700000Y3600000D02*
D03*
X8600000Y3500000D02*
D03*
X8500000Y3400000D02*
D03*
X8800000Y3700000D02*
D03*
X8900000Y3800000D02*
D03*
X8800000Y3900000D02*
D03*
X8700000Y3800000D02*
D03*
X8400000Y3500000D02*
D03*
X8500000Y3600000D02*
D03*
X8600000Y3700000D02*
D03*
X1175000Y4875000D02*
D03*
X725000Y4850000D02*
D03*
X100000Y4525000D02*
D03*
X650000D02*
D03*
X1200000D02*
D03*
X1750000D02*
D03*
X1425000Y7850000D02*
D03*
X2550000D02*
D03*
Y7450000D02*
D03*
X2025000Y7425000D02*
D03*
X1550000D02*
D03*
X1050000D02*
D03*
X5850000Y2650000D02*
D03*
X5525000Y3375000D02*
D03*
X4425000D02*
D03*
X5525000Y3800000D02*
D03*
X4425000D02*
D03*
X4975000Y3625000D02*
D03*
X3975000Y3700000D02*
D03*
X14125000Y1350000D02*
D03*
Y2200000D02*
D03*
X14275000Y3775000D02*
D03*
Y4225000D02*
D03*
X14300000Y4625000D02*
D03*
X14425000Y3525000D02*
D03*
X11100000Y7075000D02*
D03*
X6375000D02*
D03*
X6925000D02*
D03*
X6375000Y6475000D02*
D03*
X6925000D02*
D03*
X7900000Y7075000D02*
D03*
X8450000D02*
D03*
X7900000Y6475000D02*
D03*
X8450000D02*
D03*
X9450000Y7075000D02*
D03*
Y6475000D02*
D03*
X10000000Y7075000D02*
D03*
X10600000D02*
D03*
X10000000Y6475000D02*
D03*
X10550000D02*
D03*
X11100000D02*
D03*
X11175000Y5725000D02*
D03*
X12375000Y5800000D02*
D03*
X11750000Y4875000D02*
D03*
X11525000Y5125000D02*
D03*
X11375000Y5425000D02*
D03*
X13800000Y6425000D02*
D03*
X13550000Y6875000D02*
D03*
X13850000Y7200000D02*
D03*
Y7750000D02*
D03*
X13300000D02*
D03*
X12750000D02*
D03*
X12050000D02*
D03*
X11650000D02*
D03*
X11100000D02*
D03*
X10550000D02*
D03*
X10100000D02*
D03*
X9550000D02*
D03*
X9050000D02*
D03*
X8625000D02*
D03*
X8075000D02*
D03*
X7525000D02*
D03*
X7125000D02*
D03*
X6425000D02*
D03*
X5875000D02*
D03*
X5325000D02*
D03*
X4775000D02*
D03*
X5325000Y7050000D02*
D03*
X4225000Y7275000D02*
D03*
X3100000Y7500000D02*
D03*
X4925000Y7050000D02*
D03*
X4375000Y6525000D02*
D03*
Y6850000D02*
D03*
X3825000Y6075000D02*
D03*
X5100000Y6275000D02*
D03*
X4425000Y6150000D02*
D03*
X4425000Y5375000D02*
D03*
X5525000Y5350000D02*
D03*
Y6375000D02*
D03*
X4175000Y7875000D02*
D03*
X3800000D02*
D03*
X3400000D02*
D03*
X425000D02*
D03*
X550000Y7425000D02*
D03*
X375000Y6300000D02*
D03*
X700000Y6525000D02*
D03*
X1850000Y5850000D02*
D03*
X2275000Y5925000D02*
D03*
X2550000Y5975000D02*
D03*
X2250000Y5500000D02*
D03*
X3450000Y5250000D02*
D03*
X3825000Y4850000D02*
D03*
Y5250000D02*
D03*
X4925000D02*
D03*
Y4850000D02*
D03*
X4125000Y5050000D02*
D03*
X4600000D02*
D03*
X6325000Y4800000D02*
D03*
X6825000Y5350000D02*
D03*
X7200000Y5125000D02*
D03*
X9050000Y5375000D02*
D03*
X8375000D02*
D03*
X9750000D02*
D03*
X10375000Y5100000D02*
D03*
X10750000Y4750000D02*
D03*
X11325000Y4150000D02*
D03*
X13800000Y5000000D02*
D03*
Y4175000D02*
D03*
X12125000D02*
D03*
X13475000Y3600000D02*
D03*
X13000000D02*
D03*
X12100000Y6525000D02*
D03*
Y6925000D02*
D03*
X13200000D02*
D03*
Y6525000D02*
D03*
X12400000Y6725000D02*
D03*
X12875000D02*
D03*
X12700000Y5625000D02*
D03*
Y6025000D02*
D03*
X13800000D02*
D03*
Y5625000D02*
D03*
X13000000Y5825000D02*
D03*
X13475000D02*
D03*
X12875000Y4925000D02*
D03*
X12400000D02*
D03*
X13200000Y4725000D02*
D03*
Y5125000D02*
D03*
X12100000D02*
D03*
Y4725000D02*
D03*
X13800000Y3400000D02*
D03*
X12700000D02*
D03*
X12900000Y2700000D02*
D03*
X12425000D02*
D03*
X13200000Y2900000D02*
D03*
X13200000Y2500000D02*
D03*
X12100000D02*
D03*
Y2900000D02*
D03*
X12700000Y3800000D02*
D03*
X13800000Y2700000D02*
D03*
X13800000Y3800000D02*
D03*
X1125000Y1425000D02*
D03*
X575000D02*
D03*
X1125000Y2550000D02*
D03*
X575000D02*
D03*
X1125000Y2000000D02*
D03*
X575000D02*
D03*
X1675000D02*
D03*
Y2550000D02*
D03*
X5100000Y2250000D02*
D03*
X5200000Y1800000D02*
D03*
X4425000D02*
D03*
X3875000D02*
D03*
X4400000Y2250000D02*
D03*
X3850000D02*
D03*
X3325000Y1900000D02*
D03*
X3300000Y2325000D02*
D03*
X2774999Y2000000D02*
D03*
X2775000Y2475000D02*
D03*
X1674998Y900000D02*
D03*
Y350000D02*
D03*
X2774999Y900000D02*
D03*
Y350000D02*
D03*
X2224999D02*
D03*
X11900000Y1850000D02*
D03*
X11250000D02*
D03*
X10875000Y1475000D02*
D03*
X12150000Y1450000D02*
D03*
X11600000D02*
D03*
X13225000Y1800000D02*
D03*
X12700000Y1450000D02*
D03*
Y2000000D02*
D03*
X13800000Y1450000D02*
D03*
X13800000Y2000000D02*
D03*
X13775000Y350000D02*
D03*
Y900000D02*
D03*
X12675000Y350000D02*
D03*
X13224998D02*
D03*
X12675000Y900000D02*
D03*
X13224998D02*
D03*
X11574999D02*
D03*
X12124999D02*
D03*
X11574999Y350000D02*
D03*
X12124999D02*
D03*
X10474999Y900000D02*
D03*
X11024999D02*
D03*
X9374999D02*
D03*
X9924999D02*
D03*
X9925000Y1375000D02*
D03*
X10474999Y350000D02*
D03*
X11024999D02*
D03*
X9374999D02*
D03*
X9924999D02*
D03*
X8274999D02*
D03*
X8824999D02*
D03*
X8274999Y900000D02*
D03*
X8275000Y1450000D02*
D03*
X8825000D02*
D03*
X7174999Y350000D02*
D03*
X7724999D02*
D03*
X7174999Y900000D02*
D03*
X7724999D02*
D03*
X6074999Y350000D02*
D03*
X6624999D02*
D03*
X6074999Y900000D02*
D03*
X6624999D02*
D03*
X4974999D02*
D03*
X5524999D02*
D03*
X4974999Y350000D02*
D03*
X5524999D02*
D03*
X3874999D02*
D03*
X4424999D02*
D03*
X3874999Y900000D02*
D03*
X4424999D02*
D03*
X3324999D02*
D03*
Y350000D02*
D03*
X2774999Y1450000D02*
D03*
X2224998D02*
D03*
X3900000D02*
D03*
X3324999D02*
D03*
X4974999D02*
D03*
X4424999D02*
D03*
X6075000D02*
D03*
X5524999D02*
D03*
X6625000D02*
D03*
X7175000D02*
D03*
X7725000D02*
D03*
X8475000Y1750000D02*
D03*
X8925000Y1825000D02*
D03*
X9425000Y1775000D02*
D03*
X9625000Y2025000D02*
D03*
X10200000Y1650000D02*
D03*
X10750000Y2150000D02*
D03*
X11075000Y2725000D02*
D03*
X11050000Y2425000D02*
D03*
X10275000Y2225000D02*
D03*
X10525000Y2500000D02*
D03*
X9950000Y3150000D02*
D03*
X10975000Y3025000D02*
D03*
X11150000Y3250000D02*
D03*
X11900000Y3525000D02*
D03*
X11325000Y3850000D02*
D03*
X12125000D02*
D03*
X11150000Y3525000D02*
D03*
X10550000D02*
D03*
Y3725000D02*
D03*
X10900000Y4100000D02*
D03*
X10400000Y4275000D02*
D03*
X10200000Y4525000D02*
D03*
X11200000Y5300000D02*
D03*
X10450000Y4550000D02*
D03*
X9900000Y4775000D02*
D03*
X8975000Y4500000D02*
D03*
X9275000Y2450000D02*
D03*
X9675000Y2775000D02*
D03*
X9075000Y2275000D02*
D03*
X8850000Y2075000D02*
D03*
X8525000Y2500000D02*
D03*
X6825000Y2750000D02*
D03*
X7475000Y3425000D02*
D03*
X1975000Y1150000D02*
D03*
X2225000D02*
D03*
X2300000Y4525000D02*
D03*
X2875000Y3850000D02*
D03*
X2500000Y2850000D02*
D03*
X3000000Y3250000D02*
D03*
X4825000D02*
D03*
X3925000D02*
D03*
X5825000Y3325000D02*
D03*
X6350000Y4025000D02*
D03*
X8650000Y4475000D02*
D03*
X8300000Y4975000D02*
D03*
X7750000Y5025000D02*
D03*
X7125000Y4525000D02*
D03*
X7450000Y4850000D02*
D03*
X8275000Y4475000D02*
D03*
X7325000Y3650000D02*
D03*
X6100000Y3175000D02*
D03*
X6475000Y2350000D02*
D03*
X7000000Y3175000D02*
D03*
X7950000Y3950000D02*
D03*
X9600000Y4250000D02*
D03*
X10675000Y2775000D02*
D03*
X6975000Y2375000D02*
D03*
X7450000D02*
D03*
X7750000Y2250000D02*
D03*
X7975000Y2025000D02*
D03*
X10275000Y2700000D02*
D03*
X10050000Y2475000D02*
D03*
X23925000Y6475000D02*
D03*
X24000000Y4675000D02*
D03*
X24225000Y4825000D02*
D03*
X3248639Y3701007D02*
D03*
X3500000Y3700000D02*
D03*
X20225000Y6225000D02*
D03*
X18525000Y4650000D02*
D03*
X18775000Y4900000D02*
D03*
X18400000Y4525000D02*
D03*
X18275000Y4400000D02*
D03*
X18650000Y4775000D02*
D03*
X25775000Y7050000D02*
D03*
X20450000Y3175000D02*
D03*
Y3025000D02*
D03*
X20625000Y2800000D02*
D03*
X20575000Y2700000D02*
D03*
X20950455Y2725000D02*
D03*
X21625000Y4925000D02*
D03*
X18775000Y5675000D02*
D03*
X18425000Y5325000D02*
D03*
X19875000Y6325000D02*
D03*
X19600000Y4700000D02*
D03*
X20025000Y5375000D02*
D03*
X19925000Y4900000D02*
D03*
X20900000Y6325000D02*
D03*
X20625000Y6225000D02*
D03*
X23925000Y6100000D02*
D03*
X21975000Y3775000D02*
D03*
X24225000Y4195000D02*
D03*
X19750000Y4175000D02*
D03*
X20050000Y4475000D02*
D03*
X20350000Y4775000D02*
D03*
X20650000Y5075000D02*
D03*
X20580000Y2905000D02*
D03*
X21100000Y2655000D02*
D03*
X24000000Y4195000D02*
D03*
X22175000Y3100000D02*
D03*
X22425000Y3225000D02*
D03*
X21600000Y2775000D02*
D03*
X21825000Y2900000D02*
D03*
X21525000Y2675000D02*
D03*
X20100000Y3175000D02*
D03*
X20300000Y3100000D02*
D03*
X18275000Y3800000D02*
D03*
X18400000Y3900000D02*
D03*
X20860001Y2650000D02*
D03*
X26575000Y6650000D02*
D03*
X27075000D02*
D03*
X29200000Y7375000D02*
D03*
X28375000Y5800000D02*
D03*
X19275000Y7225000D02*
D03*
X19625000Y7563500D02*
D03*
X27700000Y7375000D02*
D03*
X27075000Y4575000D02*
D03*
X27004999Y2889886D02*
D03*
X27200000Y7375000D02*
D03*
X26700000D02*
D03*
X18525000Y4025000D02*
D03*
X26200000Y7375000D02*
D03*
X18775000Y4275000D02*
D03*
X28200000Y5800000D02*
D03*
X27175000Y4775000D02*
D03*
X27000000Y4400000D02*
D03*
X26875000Y4275000D02*
D03*
X26775000Y4150000D02*
D03*
X26675000Y4075000D02*
D03*
X26439999Y3975000D02*
D03*
X26557367Y4000000D02*
D03*
X18650000Y4150000D02*
D03*
X26300000Y3665000D02*
D03*
X26500000Y3475000D02*
D03*
X26401685Y3570000D02*
D03*
X26725000Y3125000D02*
D03*
X26822031Y3044589D02*
D03*
X26909064Y2961974D02*
D03*
X27100000Y2816571D02*
D03*
X27450000Y6000000D02*
D03*
X845000Y6250000D02*
D03*
X8204926Y2920074D02*
D03*
X3553639Y5975000D02*
D03*
X8575000Y2675000D02*
D03*
X8725000D02*
D03*
X9675000Y3850000D02*
D03*
X9625000Y3950000D02*
D03*
X9550000Y3850000D02*
D03*
X9375000Y2950000D02*
D03*
X9600000Y2890000D02*
D03*
X9300000Y2575000D02*
D03*
X9200000Y2650000D02*
D03*
X9125000Y2600000D02*
D03*
X8025000Y3125000D02*
D03*
X5950000Y3750000D02*
D03*
X7650000Y3325000D02*
D03*
X7291777Y4466777D02*
D03*
X7025000Y3675000D02*
D03*
X6750000D02*
D03*
X6905000Y4650000D02*
D03*
X6775000D02*
D03*
X7860000Y3060000D02*
D03*
X8250000Y2825000D02*
D03*
X8450000Y2725000D02*
D03*
X8305638Y2898120D02*
D03*
X7950000Y3190000D02*
D03*
X3625000Y3700000D02*
D03*
X3369999Y3700350D02*
D03*
X3125000Y3700000D02*
D03*
X7675000Y6150000D02*
D03*
X7825000D02*
D03*
Y5150000D02*
D03*
X7675000D02*
D03*
X7525000Y6150000D02*
D03*
Y5150000D02*
D03*
X7375000Y6150000D02*
D03*
Y5150000D02*
D03*
X5425000Y4850000D02*
D03*
X9650000Y3075000D02*
D03*
X9425000Y2875000D02*
D03*
X11050000Y5600000D02*
D03*
X11375000Y5025000D02*
D03*
X10675000Y4325000D02*
D03*
X10225000Y4775000D02*
D03*
X11525000Y4175000D02*
D03*
X11850000Y3700000D02*
D03*
X11975000Y3800000D02*
D03*
X11725000Y4500000D02*
D03*
X11575000D02*
D03*
X11629152Y3595176D02*
D03*
X11300000Y4375000D02*
D03*
X11750000Y3600000D02*
D03*
X11500000D02*
D03*
X11425000Y4275000D02*
D03*
X3400000Y2590000D02*
D03*
X3225000Y2600000D02*
D03*
X3150000Y2700000D02*
D03*
X2300000Y7450000D02*
D03*
X1300000D02*
D03*
X800000Y7425000D02*
D03*
X1800000Y7450000D02*
D03*
X2800000D02*
D03*
X3300000D02*
D03*
X1575000Y5975000D02*
D03*
X3000000D02*
D03*
X2775000D02*
D03*
X2025000D02*
D03*
X1300000D02*
D03*
X3800000Y7475000D02*
D03*
X550000Y6700000D02*
D03*
X9425000Y4275000D02*
D03*
X8050000Y5175000D02*
D03*
X7750000Y4900000D02*
D03*
X7450000Y4625000D02*
D03*
D66*
X15000000Y1200000D02*
D03*
X29750000Y6600000D02*
D03*
X250000D02*
D03*
%TF.MD5,6c83d39768e0489459046e0706abc84f*%
M02*
